<?xml version="1.0" encoding="utf-8" standalone="no"?>
<!DOCTYPE svg PUBLIC "-//W3C//DTD SVG 1.1//EN"
  "http://www.w3.org/Graphics/SVG/1.1/DTD/svg11.dtd">
<!-- Created with matplotlib (https://matplotlib.org/) -->
<svg height="288pt" version="1.1" viewBox="0 0 432 288" width="432pt" xmlns="http://www.w3.org/2000/svg" xmlns:xlink="http://www.w3.org/1999/xlink">
 <defs>
  <style type="text/css">
*{stroke-linecap:butt;stroke-linejoin:round;}
  </style>
 </defs>
 <g id="figure_1">
  <g id="patch_1">
   <path d="M 0 288 
L 432 288 
L 432 0 
L 0 0 
z
" style="fill:#f0f0f0;"/>
  </g>
  <g id="axes_1">
   <g id="patch_2">
    <path d="M 34.56 267.84 
L 410.4 267.84 
L 410.4 34.56 
L 34.56 34.56 
z
" style="fill:#ffffff;"/>
   </g>
   <g id="matplotlib.axis_1">
    <g id="xtick_1">
     <g id="line2d_1">
      <path clip-path="url(#p0cc1bee3da)" d="M 186.867229 267.84 
L 186.867229 34.56 
" style="fill:none;stroke:#cbcbcb;"/>
     </g>
     <g id="line2d_2"/>
     <g id="text_1">
      <!-- 0.00104825 -->
      <defs>
       <path d="M 31.78125 66.40625 
Q 24.171875 66.40625 20.328125 58.90625 
Q 16.5 51.421875 16.5 36.375 
Q 16.5 21.390625 20.328125 13.890625 
Q 24.171875 6.390625 31.78125 6.390625 
Q 39.453125 6.390625 43.28125 13.890625 
Q 47.125 21.390625 47.125 36.375 
Q 47.125 51.421875 43.28125 58.90625 
Q 39.453125 66.40625 31.78125 66.40625 
z
M 31.78125 74.21875 
Q 44.046875 74.21875 50.515625 64.515625 
Q 56.984375 54.828125 56.984375 36.375 
Q 56.984375 17.96875 50.515625 8.265625 
Q 44.046875 -1.421875 31.78125 -1.421875 
Q 19.53125 -1.421875 13.0625 8.265625 
Q 6.59375 17.96875 6.59375 36.375 
Q 6.59375 54.828125 13.0625 64.515625 
Q 19.53125 74.21875 31.78125 74.21875 
z
" id="DejaVuSans-48"/>
       <path d="M 10.6875 12.40625 
L 21 12.40625 
L 21 0 
L 10.6875 0 
z
" id="DejaVuSans-46"/>
       <path d="M 12.40625 8.296875 
L 28.515625 8.296875 
L 28.515625 63.921875 
L 10.984375 60.40625 
L 10.984375 69.390625 
L 28.421875 72.90625 
L 38.28125 72.90625 
L 38.28125 8.296875 
L 54.390625 8.296875 
L 54.390625 0 
L 12.40625 0 
z
" id="DejaVuSans-49"/>
       <path d="M 37.796875 64.3125 
L 12.890625 25.390625 
L 37.796875 25.390625 
z
M 35.203125 72.90625 
L 47.609375 72.90625 
L 47.609375 25.390625 
L 58.015625 25.390625 
L 58.015625 17.1875 
L 47.609375 17.1875 
L 47.609375 0 
L 37.796875 0 
L 37.796875 17.1875 
L 4.890625 17.1875 
L 4.890625 26.703125 
z
" id="DejaVuSans-52"/>
       <path d="M 31.78125 34.625 
Q 24.75 34.625 20.71875 30.859375 
Q 16.703125 27.09375 16.703125 20.515625 
Q 16.703125 13.921875 20.71875 10.15625 
Q 24.75 6.390625 31.78125 6.390625 
Q 38.8125 6.390625 42.859375 10.171875 
Q 46.921875 13.96875 46.921875 20.515625 
Q 46.921875 27.09375 42.890625 30.859375 
Q 38.875 34.625 31.78125 34.625 
z
M 21.921875 38.8125 
Q 15.578125 40.375 12.03125 44.71875 
Q 8.5 49.078125 8.5 55.328125 
Q 8.5 64.0625 14.71875 69.140625 
Q 20.953125 74.21875 31.78125 74.21875 
Q 42.671875 74.21875 48.875 69.140625 
Q 55.078125 64.0625 55.078125 55.328125 
Q 55.078125 49.078125 51.53125 44.71875 
Q 48 40.375 41.703125 38.8125 
Q 48.828125 37.15625 52.796875 32.3125 
Q 56.78125 27.484375 56.78125 20.515625 
Q 56.78125 9.90625 50.3125 4.234375 
Q 43.84375 -1.421875 31.78125 -1.421875 
Q 19.734375 -1.421875 13.25 4.234375 
Q 6.78125 9.90625 6.78125 20.515625 
Q 6.78125 27.484375 10.78125 32.3125 
Q 14.796875 37.15625 21.921875 38.8125 
z
M 18.3125 54.390625 
Q 18.3125 48.734375 21.84375 45.5625 
Q 25.390625 42.390625 31.78125 42.390625 
Q 38.140625 42.390625 41.71875 45.5625 
Q 45.3125 48.734375 45.3125 54.390625 
Q 45.3125 60.0625 41.71875 63.234375 
Q 38.140625 66.40625 31.78125 66.40625 
Q 25.390625 66.40625 21.84375 63.234375 
Q 18.3125 60.0625 18.3125 54.390625 
z
" id="DejaVuSans-56"/>
       <path d="M 19.1875 8.296875 
L 53.609375 8.296875 
L 53.609375 0 
L 7.328125 0 
L 7.328125 8.296875 
Q 12.9375 14.109375 22.625 23.890625 
Q 32.328125 33.6875 34.8125 36.53125 
Q 39.546875 41.84375 41.421875 45.53125 
Q 43.3125 49.21875 43.3125 52.78125 
Q 43.3125 58.59375 39.234375 62.25 
Q 35.15625 65.921875 28.609375 65.921875 
Q 23.96875 65.921875 18.8125 64.3125 
Q 13.671875 62.703125 7.8125 59.421875 
L 7.8125 69.390625 
Q 13.765625 71.78125 18.9375 73 
Q 24.125 74.21875 28.421875 74.21875 
Q 39.75 74.21875 46.484375 68.546875 
Q 53.21875 62.890625 53.21875 53.421875 
Q 53.21875 48.921875 51.53125 44.890625 
Q 49.859375 40.875 45.40625 35.40625 
Q 44.1875 33.984375 37.640625 27.21875 
Q 31.109375 20.453125 19.1875 8.296875 
z
" id="DejaVuSans-50"/>
       <path d="M 10.796875 72.90625 
L 49.515625 72.90625 
L 49.515625 64.59375 
L 19.828125 64.59375 
L 19.828125 46.734375 
Q 21.96875 47.46875 24.109375 47.828125 
Q 26.265625 48.1875 28.421875 48.1875 
Q 40.625 48.1875 47.75 41.5 
Q 54.890625 34.8125 54.890625 23.390625 
Q 54.890625 11.625 47.5625 5.09375 
Q 40.234375 -1.421875 26.90625 -1.421875 
Q 22.3125 -1.421875 17.546875 -0.640625 
Q 12.796875 0.140625 7.71875 1.703125 
L 7.71875 11.625 
Q 12.109375 9.234375 16.796875 8.0625 
Q 21.484375 6.890625 26.703125 6.890625 
Q 35.15625 6.890625 40.078125 11.328125 
Q 45.015625 15.765625 45.015625 23.390625 
Q 45.015625 31 40.078125 35.4375 
Q 35.15625 39.890625 26.703125 39.890625 
Q 22.75 39.890625 18.8125 39.015625 
Q 14.890625 38.140625 10.796875 36.28125 
z
" id="DejaVuSans-53"/>
      </defs>
      <g transform="translate(144.558791 281.977813)scale(0.14 -0.14)">
       <use xlink:href="#DejaVuSans-48"/>
       <use x="63.623047" xlink:href="#DejaVuSans-46"/>
       <use x="95.410156" xlink:href="#DejaVuSans-48"/>
       <use x="159.033203" xlink:href="#DejaVuSans-48"/>
       <use x="222.65625" xlink:href="#DejaVuSans-49"/>
       <use x="286.279297" xlink:href="#DejaVuSans-48"/>
       <use x="349.902344" xlink:href="#DejaVuSans-52"/>
       <use x="413.525391" xlink:href="#DejaVuSans-56"/>
       <use x="477.148438" xlink:href="#DejaVuSans-50"/>
       <use x="540.771484" xlink:href="#DejaVuSans-53"/>
      </g>
     </g>
    </g>
    <g id="xtick_2">
     <g id="line2d_3">
      <path clip-path="url(#p0cc1bee3da)" d="M 259.732494 267.84 
L 259.732494 34.56 
" style="fill:none;stroke:#cbcbcb;"/>
     </g>
     <g id="line2d_4"/>
     <g id="text_2">
      <!-- 0.00106289 -->
      <defs>
       <path d="M 33.015625 40.375 
Q 26.375 40.375 22.484375 35.828125 
Q 18.609375 31.296875 18.609375 23.390625 
Q 18.609375 15.53125 22.484375 10.953125 
Q 26.375 6.390625 33.015625 6.390625 
Q 39.65625 6.390625 43.53125 10.953125 
Q 47.40625 15.53125 47.40625 23.390625 
Q 47.40625 31.296875 43.53125 35.828125 
Q 39.65625 40.375 33.015625 40.375 
z
M 52.59375 71.296875 
L 52.59375 62.3125 
Q 48.875 64.0625 45.09375 64.984375 
Q 41.3125 65.921875 37.59375 65.921875 
Q 27.828125 65.921875 22.671875 59.328125 
Q 17.53125 52.734375 16.796875 39.40625 
Q 19.671875 43.65625 24.015625 45.921875 
Q 28.375 48.1875 33.59375 48.1875 
Q 44.578125 48.1875 50.953125 41.515625 
Q 57.328125 34.859375 57.328125 23.390625 
Q 57.328125 12.15625 50.6875 5.359375 
Q 44.046875 -1.421875 33.015625 -1.421875 
Q 20.359375 -1.421875 13.671875 8.265625 
Q 6.984375 17.96875 6.984375 36.375 
Q 6.984375 53.65625 15.1875 63.9375 
Q 23.390625 74.21875 37.203125 74.21875 
Q 40.921875 74.21875 44.703125 73.484375 
Q 48.484375 72.75 52.59375 71.296875 
z
" id="DejaVuSans-54"/>
       <path d="M 10.984375 1.515625 
L 10.984375 10.5 
Q 14.703125 8.734375 18.5 7.8125 
Q 22.3125 6.890625 25.984375 6.890625 
Q 35.75 6.890625 40.890625 13.453125 
Q 46.046875 20.015625 46.78125 33.40625 
Q 43.953125 29.203125 39.59375 26.953125 
Q 35.25 24.703125 29.984375 24.703125 
Q 19.046875 24.703125 12.671875 31.3125 
Q 6.296875 37.9375 6.296875 49.421875 
Q 6.296875 60.640625 12.9375 67.421875 
Q 19.578125 74.21875 30.609375 74.21875 
Q 43.265625 74.21875 49.921875 64.515625 
Q 56.59375 54.828125 56.59375 36.375 
Q 56.59375 19.140625 48.40625 8.859375 
Q 40.234375 -1.421875 26.421875 -1.421875 
Q 22.703125 -1.421875 18.890625 -0.6875 
Q 15.09375 0.046875 10.984375 1.515625 
z
M 30.609375 32.421875 
Q 37.25 32.421875 41.125 36.953125 
Q 45.015625 41.5 45.015625 49.421875 
Q 45.015625 57.28125 41.125 61.84375 
Q 37.25 66.40625 30.609375 66.40625 
Q 23.96875 66.40625 20.09375 61.84375 
Q 16.21875 57.28125 16.21875 49.421875 
Q 16.21875 41.5 20.09375 36.953125 
Q 23.96875 32.421875 30.609375 32.421875 
z
" id="DejaVuSans-57"/>
      </defs>
      <g transform="translate(217.424057 281.977813)scale(0.14 -0.14)">
       <use xlink:href="#DejaVuSans-48"/>
       <use x="63.623047" xlink:href="#DejaVuSans-46"/>
       <use x="95.410156" xlink:href="#DejaVuSans-48"/>
       <use x="159.033203" xlink:href="#DejaVuSans-48"/>
       <use x="222.65625" xlink:href="#DejaVuSans-49"/>
       <use x="286.279297" xlink:href="#DejaVuSans-48"/>
       <use x="349.902344" xlink:href="#DejaVuSans-54"/>
       <use x="413.525391" xlink:href="#DejaVuSans-50"/>
       <use x="477.148438" xlink:href="#DejaVuSans-56"/>
       <use x="540.771484" xlink:href="#DejaVuSans-57"/>
      </g>
     </g>
    </g>
   </g>
   <g id="matplotlib.axis_2">
    <g id="ytick_1">
     <g id="line2d_5">
      <path clip-path="url(#p0cc1bee3da)" d="M 34.56 267.84 
L 410.4 267.84 
" style="fill:none;stroke:#cbcbcb;"/>
     </g>
     <g id="line2d_6"/>
     <g id="text_3">
      <!-- 0 -->
      <g transform="translate(22.1525 273.158906)scale(0.14 -0.14)">
       <use xlink:href="#DejaVuSans-48"/>
      </g>
     </g>
    </g>
    <g id="ytick_2">
     <g id="line2d_7">
      <path clip-path="url(#p0cc1bee3da)" d="M 34.56 230.280572 
L 410.4 230.280572 
" style="fill:none;stroke:#cbcbcb;"/>
     </g>
     <g id="line2d_8"/>
     <g id="text_4">
      <!-- 10000 -->
      <g transform="translate(-13.4775 235.599478)scale(0.14 -0.14)">
       <use xlink:href="#DejaVuSans-49"/>
       <use x="63.623047" xlink:href="#DejaVuSans-48"/>
       <use x="127.246094" xlink:href="#DejaVuSans-48"/>
       <use x="190.869141" xlink:href="#DejaVuSans-48"/>
       <use x="254.492188" xlink:href="#DejaVuSans-48"/>
      </g>
     </g>
    </g>
    <g id="ytick_3">
     <g id="line2d_9">
      <path clip-path="url(#p0cc1bee3da)" d="M 34.56 192.721144 
L 410.4 192.721144 
" style="fill:none;stroke:#cbcbcb;"/>
     </g>
     <g id="line2d_10"/>
     <g id="text_5">
      <!-- 20000 -->
      <g transform="translate(-13.4775 198.040051)scale(0.14 -0.14)">
       <use xlink:href="#DejaVuSans-50"/>
       <use x="63.623047" xlink:href="#DejaVuSans-48"/>
       <use x="127.246094" xlink:href="#DejaVuSans-48"/>
       <use x="190.869141" xlink:href="#DejaVuSans-48"/>
       <use x="254.492188" xlink:href="#DejaVuSans-48"/>
      </g>
     </g>
    </g>
    <g id="ytick_4">
     <g id="line2d_11">
      <path clip-path="url(#p0cc1bee3da)" d="M 34.56 155.161717 
L 410.4 155.161717 
" style="fill:none;stroke:#cbcbcb;"/>
     </g>
     <g id="line2d_12"/>
     <g id="text_6">
      <!-- 30000 -->
      <defs>
       <path d="M 40.578125 39.3125 
Q 47.65625 37.796875 51.625 33 
Q 55.609375 28.21875 55.609375 21.1875 
Q 55.609375 10.40625 48.1875 4.484375 
Q 40.765625 -1.421875 27.09375 -1.421875 
Q 22.515625 -1.421875 17.65625 -0.515625 
Q 12.796875 0.390625 7.625 2.203125 
L 7.625 11.71875 
Q 11.71875 9.328125 16.59375 8.109375 
Q 21.484375 6.890625 26.8125 6.890625 
Q 36.078125 6.890625 40.9375 10.546875 
Q 45.796875 14.203125 45.796875 21.1875 
Q 45.796875 27.640625 41.28125 31.265625 
Q 36.765625 34.90625 28.71875 34.90625 
L 20.21875 34.90625 
L 20.21875 43.015625 
L 29.109375 43.015625 
Q 36.375 43.015625 40.234375 45.921875 
Q 44.09375 48.828125 44.09375 54.296875 
Q 44.09375 59.90625 40.109375 62.90625 
Q 36.140625 65.921875 28.71875 65.921875 
Q 24.65625 65.921875 20.015625 65.03125 
Q 15.375 64.15625 9.8125 62.3125 
L 9.8125 71.09375 
Q 15.4375 72.65625 20.34375 73.4375 
Q 25.25 74.21875 29.59375 74.21875 
Q 40.828125 74.21875 47.359375 69.109375 
Q 53.90625 64.015625 53.90625 55.328125 
Q 53.90625 49.265625 50.4375 45.09375 
Q 46.96875 40.921875 40.578125 39.3125 
z
" id="DejaVuSans-51"/>
      </defs>
      <g transform="translate(-13.4775 160.480623)scale(0.14 -0.14)">
       <use xlink:href="#DejaVuSans-51"/>
       <use x="63.623047" xlink:href="#DejaVuSans-48"/>
       <use x="127.246094" xlink:href="#DejaVuSans-48"/>
       <use x="190.869141" xlink:href="#DejaVuSans-48"/>
       <use x="254.492188" xlink:href="#DejaVuSans-48"/>
      </g>
     </g>
    </g>
    <g id="ytick_5">
     <g id="line2d_13">
      <path clip-path="url(#p0cc1bee3da)" d="M 34.56 117.602289 
L 410.4 117.602289 
" style="fill:none;stroke:#cbcbcb;"/>
     </g>
     <g id="line2d_14"/>
     <g id="text_7">
      <!-- 40000 -->
      <g transform="translate(-13.4775 122.921195)scale(0.14 -0.14)">
       <use xlink:href="#DejaVuSans-52"/>
       <use x="63.623047" xlink:href="#DejaVuSans-48"/>
       <use x="127.246094" xlink:href="#DejaVuSans-48"/>
       <use x="190.869141" xlink:href="#DejaVuSans-48"/>
       <use x="254.492188" xlink:href="#DejaVuSans-48"/>
      </g>
     </g>
    </g>
    <g id="ytick_6">
     <g id="line2d_15">
      <path clip-path="url(#p0cc1bee3da)" d="M 34.56 80.042861 
L 410.4 80.042861 
" style="fill:none;stroke:#cbcbcb;"/>
     </g>
     <g id="line2d_16"/>
     <g id="text_8">
      <!-- 50000 -->
      <g transform="translate(-13.4775 85.361767)scale(0.14 -0.14)">
       <use xlink:href="#DejaVuSans-53"/>
       <use x="63.623047" xlink:href="#DejaVuSans-48"/>
       <use x="127.246094" xlink:href="#DejaVuSans-48"/>
       <use x="190.869141" xlink:href="#DejaVuSans-48"/>
       <use x="254.492188" xlink:href="#DejaVuSans-48"/>
      </g>
     </g>
    </g>
    <g id="ytick_7">
     <g id="line2d_17">
      <path clip-path="url(#p0cc1bee3da)" d="M 34.56 42.483433 
L 410.4 42.483433 
" style="fill:none;stroke:#cbcbcb;"/>
     </g>
     <g id="line2d_18"/>
     <g id="text_9">
      <!-- 60000 -->
      <g transform="translate(-13.4775 47.80234)scale(0.14 -0.14)">
       <use xlink:href="#DejaVuSans-54"/>
       <use x="63.623047" xlink:href="#DejaVuSans-48"/>
       <use x="127.246094" xlink:href="#DejaVuSans-48"/>
       <use x="190.869141" xlink:href="#DejaVuSans-48"/>
       <use x="254.492188" xlink:href="#DejaVuSans-48"/>
      </g>
     </g>
    </g>
   </g>
   <g id="patch_3">
    <path clip-path="url(#p0cc1bee3da)" d="M 79.907094 267.84 
L 89.417809 267.84 
L 89.417809 258.009406 
L 79.907094 258.009406 
z
" style="fill:#204fab;opacity:0.4;"/>
   </g>
   <g id="patch_4">
    <path clip-path="url(#p0cc1bee3da)" d="M 89.417809 267.84 
L 98.928525 267.84 
L 98.928525 263.907762 
L 89.417809 263.907762 
z
" style="fill:#204fab;opacity:0.4;"/>
   </g>
   <g id="patch_5">
    <path clip-path="url(#p0cc1bee3da)" d="M 98.928525 267.84 
L 108.43924 267.84 
L 108.43924 248.178812 
L 98.928525 248.178812 
z
" style="fill:#204fab;opacity:0.4;"/>
   </g>
   <g id="patch_6">
    <path clip-path="url(#p0cc1bee3da)" d="M 108.43924 267.84 
L 117.949955 267.84 
L 117.949955 240.314336 
L 108.43924 240.314336 
z
" style="fill:#204fab;opacity:0.4;"/>
   </g>
   <g id="patch_7">
    <path clip-path="url(#p0cc1bee3da)" d="M 117.949955 267.84 
L 127.46067 267.84 
L 127.46067 220.653148 
L 117.949955 220.653148 
z
" style="fill:#204fab;opacity:0.4;"/>
   </g>
   <g id="patch_8">
    <path clip-path="url(#p0cc1bee3da)" d="M 127.46067 267.84 
L 136.971385 267.84 
L 136.971385 206.890316 
L 127.46067 206.890316 
z
" style="fill:#204fab;opacity:0.4;"/>
   </g>
   <g id="patch_9">
    <path clip-path="url(#p0cc1bee3da)" d="M 136.971385 267.84 
L 146.482101 267.84 
L 146.482101 167.567939 
L 136.971385 167.567939 
z
" style="fill:#204fab;opacity:0.4;"/>
   </g>
   <g id="patch_10">
    <path clip-path="url(#p0cc1bee3da)" d="M 146.482101 267.84 
L 155.992816 267.84 
L 155.992816 120.381087 
L 146.482101 120.381087 
z
" style="fill:#204fab;opacity:0.4;"/>
   </g>
   <g id="patch_11">
    <path clip-path="url(#p0cc1bee3da)" d="M 155.992816 267.84 
L 165.503531 267.84 
L 165.503531 143.974513 
L 155.992816 143.974513 
z
" style="fill:#204fab;opacity:0.4;"/>
   </g>
   <g id="patch_12">
    <path clip-path="url(#p0cc1bee3da)" d="M 165.503531 267.84 
L 175.014246 267.84 
L 175.014246 86.957067 
L 165.503531 86.957067 
z
" style="fill:#204fab;opacity:0.4;"/>
   </g>
   <g id="patch_13">
    <path clip-path="url(#p0cc1bee3da)" d="M 175.014246 267.84 
L 184.524962 267.84 
L 184.524962 47.63469 
L 175.014246 47.63469 
z
" style="fill:#204fab;opacity:0.4;"/>
   </g>
   <g id="patch_14">
    <path clip-path="url(#p0cc1bee3da)" d="M 184.524962 267.84 
L 194.035677 267.84 
L 194.035677 45.668571 
L 184.524962 45.668571 
z
" style="fill:#204fab;opacity:0.4;"/>
   </g>
   <g id="patch_15">
    <path clip-path="url(#p0cc1bee3da)" d="M 194.035677 267.84 
L 203.546392 267.84 
L 203.546392 104.652137 
L 194.035677 104.652137 
z
" style="fill:#204fab;opacity:0.4;"/>
   </g>
   <g id="patch_16">
    <path clip-path="url(#p0cc1bee3da)" d="M 203.546392 267.84 
L 213.057107 267.84 
L 213.057107 75.160354 
L 203.546392 75.160354 
z
" style="fill:#204fab;opacity:0.4;"/>
   </g>
   <g id="patch_17">
    <path clip-path="url(#p0cc1bee3da)" d="M 213.057107 267.84 
L 222.567822 267.84 
L 222.567822 136.110038 
L 213.057107 136.110038 
z
" style="fill:#204fab;opacity:0.4;"/>
   </g>
   <g id="patch_18">
    <path clip-path="url(#p0cc1bee3da)" d="M 222.567822 267.84 
L 232.078538 267.84 
L 232.078538 163.635702 
L 222.567822 163.635702 
z
" style="fill:#204fab;opacity:0.4;"/>
   </g>
   <g id="patch_19">
    <path clip-path="url(#p0cc1bee3da)" d="M 232.078538 267.84 
L 241.589253 267.84 
L 241.589253 193.127484 
L 232.078538 193.127484 
z
" style="fill:#204fab;opacity:0.4;"/>
   </g>
   <g id="patch_20">
    <path clip-path="url(#p0cc1bee3da)" d="M 241.589253 267.84 
L 251.099968 267.84 
L 251.099968 232.449861 
L 241.589253 232.449861 
z
" style="fill:#204fab;opacity:0.4;"/>
   </g>
   <g id="patch_21">
    <path clip-path="url(#p0cc1bee3da)" d="M 251.099968 267.84 
L 260.610683 267.84 
L 260.610683 226.551504 
L 251.099968 226.551504 
z
" style="fill:#204fab;opacity:0.4;"/>
   </g>
   <g id="patch_22">
    <path clip-path="url(#p0cc1bee3da)" d="M 260.610683 267.84 
L 270.121398 267.84 
L 270.121398 234.41598 
L 260.610683 234.41598 
z
" style="fill:#204fab;opacity:0.4;"/>
   </g>
   <g id="patch_23">
    <path clip-path="url(#p0cc1bee3da)" d="M 270.121398 267.84 
L 279.632114 267.84 
L 279.632114 256.043287 
L 270.121398 256.043287 
z
" style="fill:#204fab;opacity:0.4;"/>
   </g>
   <g id="patch_24">
    <path clip-path="url(#p0cc1bee3da)" d="M 279.632114 267.84 
L 289.142829 267.84 
L 289.142829 259.975525 
L 279.632114 259.975525 
z
" style="fill:#204fab;opacity:0.4;"/>
   </g>
   <g id="patch_25">
    <path clip-path="url(#p0cc1bee3da)" d="M 289.142829 267.84 
L 298.653544 267.84 
L 298.653544 265.873881 
L 289.142829 265.873881 
z
" style="fill:#204fab;opacity:0.4;"/>
   </g>
   <g id="patch_26">
    <path clip-path="url(#p0cc1bee3da)" d="M 298.653544 267.84 
L 308.164259 267.84 
L 308.164259 265.873881 
L 298.653544 265.873881 
z
" style="fill:#204fab;opacity:0.4;"/>
   </g>
   <g id="patch_27">
    <path clip-path="url(#p0cc1bee3da)" d="M 308.164259 267.84 
L 317.674975 267.84 
L 317.674975 267.84 
L 308.164259 267.84 
z
" style="fill:#204fab;opacity:0.4;"/>
   </g>
   <g id="patch_28">
    <path clip-path="url(#p0cc1bee3da)" d="M 317.674975 267.84 
L 327.18569 267.84 
L 327.18569 265.873881 
L 317.674975 265.873881 
z
" style="fill:#204fab;opacity:0.4;"/>
   </g>
   <g id="patch_29">
    <path clip-path="url(#p0cc1bee3da)" d="M 118.603654 267.84 
L 128.763707 267.84 
L 128.763707 265.999538 
L 118.603654 265.999538 
z
" style="fill:#bababa;opacity:0.4;"/>
   </g>
   <g id="patch_30">
    <path clip-path="url(#p0cc1bee3da)" d="M 128.763707 267.84 
L 138.92376 267.84 
L 138.92376 267.84 
L 128.763707 267.84 
z
" style="fill:#bababa;opacity:0.4;"/>
   </g>
   <g id="patch_31">
    <path clip-path="url(#p0cc1bee3da)" d="M 138.92376 267.84 
L 149.083813 267.84 
L 149.083813 267.84 
L 138.92376 267.84 
z
" style="fill:#bababa;opacity:0.4;"/>
   </g>
   <g id="patch_32">
    <path clip-path="url(#p0cc1bee3da)" d="M 149.083813 267.84 
L 159.243866 267.84 
L 159.243866 262.318613 
L 149.083813 262.318613 
z
" style="fill:#bababa;opacity:0.4;"/>
   </g>
   <g id="patch_33">
    <path clip-path="url(#p0cc1bee3da)" d="M 159.243866 267.84 
L 169.403919 267.84 
L 169.403919 258.637688 
L 159.243866 258.637688 
z
" style="fill:#bababa;opacity:0.4;"/>
   </g>
   <g id="patch_34">
    <path clip-path="url(#p0cc1bee3da)" d="M 169.403919 267.84 
L 179.563972 267.84 
L 179.563972 253.1163 
L 169.403919 253.1163 
z
" style="fill:#bababa;opacity:0.4;"/>
   </g>
   <g id="patch_35">
    <path clip-path="url(#p0cc1bee3da)" d="M 179.563972 267.84 
L 189.724025 267.84 
L 189.724025 232.871213 
L 179.563972 232.871213 
z
" style="fill:#bababa;opacity:0.4;"/>
   </g>
   <g id="patch_36">
    <path clip-path="url(#p0cc1bee3da)" d="M 189.724025 267.84 
L 199.884078 267.84 
L 199.884078 210.785663 
L 189.724025 210.785663 
z
" style="fill:#bababa;opacity:0.4;"/>
   </g>
   <g id="patch_37">
    <path clip-path="url(#p0cc1bee3da)" d="M 199.884078 267.84 
L 210.044131 267.84 
L 210.044131 208.945201 
L 199.884078 208.945201 
z
" style="fill:#bababa;opacity:0.4;"/>
   </g>
   <g id="patch_38">
    <path clip-path="url(#p0cc1bee3da)" d="M 210.044131 267.84 
L 220.204184 267.84 
L 220.204184 179.497801 
L 210.044131 179.497801 
z
" style="fill:#bababa;opacity:0.4;"/>
   </g>
   <g id="patch_39">
    <path clip-path="url(#p0cc1bee3da)" d="M 220.204184 267.84 
L 230.364237 267.84 
L 230.364237 104.038839 
L 220.204184 104.038839 
z
" style="fill:#bababa;opacity:0.4;"/>
   </g>
   <g id="patch_40">
    <path clip-path="url(#p0cc1bee3da)" d="M 230.364237 267.84 
L 240.52429 267.84 
L 240.52429 124.283927 
L 230.364237 124.283927 
z
" style="fill:#bababa;opacity:0.4;"/>
   </g>
   <g id="patch_41">
    <path clip-path="url(#p0cc1bee3da)" d="M 240.52429 267.84 
L 250.684343 267.84 
L 250.684343 107.719764 
L 240.52429 107.719764 
z
" style="fill:#bababa;opacity:0.4;"/>
   </g>
   <g id="patch_42">
    <path clip-path="url(#p0cc1bee3da)" d="M 250.684343 267.84 
L 260.844396 267.84 
L 260.844396 58.027277 
L 250.684343 58.027277 
z
" style="fill:#bababa;opacity:0.4;"/>
   </g>
   <g id="patch_43">
    <path clip-path="url(#p0cc1bee3da)" d="M 260.844396 267.84 
L 271.004449 267.84 
L 271.004449 70.910515 
L 260.844396 70.910515 
z
" style="fill:#bababa;opacity:0.4;"/>
   </g>
   <g id="patch_44">
    <path clip-path="url(#p0cc1bee3da)" d="M 271.004449 267.84 
L 281.164502 267.84 
L 281.164502 111.400689 
L 271.004449 111.400689 
z
" style="fill:#bababa;opacity:0.4;"/>
   </g>
   <g id="patch_45">
    <path clip-path="url(#p0cc1bee3da)" d="M 281.164502 267.84 
L 291.324555 267.84 
L 291.324555 113.241152 
L 281.164502 113.241152 
z
" style="fill:#bababa;opacity:0.4;"/>
   </g>
   <g id="patch_46">
    <path clip-path="url(#p0cc1bee3da)" d="M 291.324555 267.84 
L 301.484608 267.84 
L 301.484608 144.529014 
L 291.324555 144.529014 
z
" style="fill:#bababa;opacity:0.4;"/>
   </g>
   <g id="patch_47">
    <path clip-path="url(#p0cc1bee3da)" d="M 301.484608 267.84 
L 311.644661 267.84 
L 311.644661 183.178726 
L 301.484608 183.178726 
z
" style="fill:#bababa;opacity:0.4;"/>
   </g>
   <g id="patch_48">
    <path clip-path="url(#p0cc1bee3da)" d="M 311.644661 267.84 
L 321.804714 267.84 
L 321.804714 194.221501 
L 311.644661 194.221501 
z
" style="fill:#bababa;opacity:0.4;"/>
   </g>
   <g id="patch_49">
    <path clip-path="url(#p0cc1bee3da)" d="M 321.804714 267.84 
L 331.964767 267.84 
L 331.964767 227.349825 
L 321.804714 227.349825 
z
" style="fill:#bababa;opacity:0.4;"/>
   </g>
   <g id="patch_50">
    <path clip-path="url(#p0cc1bee3da)" d="M 331.964767 267.84 
L 342.12482 267.84 
L 342.12482 236.552138 
L 331.964767 236.552138 
z
" style="fill:#bababa;opacity:0.4;"/>
   </g>
   <g id="patch_51">
    <path clip-path="url(#p0cc1bee3da)" d="M 342.12482 267.84 
L 352.284873 267.84 
L 352.284873 249.435375 
L 342.12482 249.435375 
z
" style="fill:#bababa;opacity:0.4;"/>
   </g>
   <g id="patch_52">
    <path clip-path="url(#p0cc1bee3da)" d="M 352.284873 267.84 
L 362.444926 267.84 
L 362.444926 254.956763 
L 352.284873 254.956763 
z
" style="fill:#bababa;opacity:0.4;"/>
   </g>
   <g id="line2d_19">
    <path clip-path="url(#p0cc1bee3da)" d="M 51.643636 267.810978 
L 58.820145 267.641096 
L 63.604483 267.249162 
L 65.996653 266.906532 
L 68.388822 266.446758 
L 73.173161 265.203819 
L 85.134008 261.68491 
L 89.918346 260.172179 
L 92.310516 259.168399 
L 94.702685 257.9106 
L 97.094855 256.362155 
L 99.487024 254.512276 
L 101.879193 252.365318 
L 104.271363 249.925797 
L 106.663532 247.186842 
L 109.055701 244.12789 
L 111.447871 240.722682 
L 113.84004 236.953295 
L 116.23221 232.822427 
L 118.624379 228.356374 
L 121.016548 223.595244 
L 125.800887 213.299199 
L 128.193057 207.744516 
L 130.585226 201.852889 
L 132.977395 195.565804 
L 135.369565 188.859458 
L 140.153903 174.446407 
L 144.938242 159.839845 
L 147.330412 152.974579 
L 149.722581 146.561738 
L 154.50692 134.839964 
L 159.291258 123.133258 
L 161.683428 116.654059 
L 164.075597 109.562749 
L 166.467767 101.881459 
L 173.644275 77.673279 
L 176.036444 70.589813 
L 178.428613 64.841541 
L 180.820783 60.889351 
L 183.212952 59.038808 
L 185.605122 59.356881 
L 187.997291 61.634235 
L 190.38946 65.418644 
L 192.78163 70.120669 
L 197.565969 80.120893 
L 202.350307 89.299915 
L 204.742477 93.815998 
L 207.134646 98.655445 
L 209.526815 104.069192 
L 211.918985 110.202927 
L 214.311154 117.086557 
L 216.703324 124.659461 
L 219.095493 132.805642 
L 223.879832 150.215408 
L 228.66417 167.958964 
L 231.05634 176.510999 
L 233.448509 184.645989 
L 235.840679 192.25104 
L 238.232848 199.243036 
L 240.625017 205.558967 
L 243.017187 211.150479 
L 245.409356 215.98998 
L 247.801525 220.087147 
L 250.193695 223.50626 
L 252.585864 226.372252 
L 254.978034 228.858166 
L 262.154542 235.833357 
L 266.938881 241.117189 
L 274.115389 249.478938 
L 276.507558 252.027212 
L 278.899727 254.349237 
L 281.291897 256.428648 
L 283.684066 258.275139 
L 286.076236 259.910607 
L 288.468405 261.355082 
L 290.860574 262.618159 
L 293.252744 263.698669 
L 295.644913 264.591353 
L 298.037082 265.296167 
L 300.429252 265.825128 
L 302.821421 266.203408 
L 307.60576 266.642519 
L 314.782268 266.90051 
L 333.919623 267.215205 
L 345.88047 267.726613 
L 355.449148 267.819691 
L 355.449148 267.819691 
" style="fill:none;stroke:#204fab;stroke-width:4;"/>
   </g>
   <g id="line2d_20">
    <path clip-path="url(#p0cc1bee3da)" d="M 87.732216 267.820355 
L 99.763088 267.701958 
L 111.79396 267.25906 
L 119.012483 267.107913 
L 133.44953 267.1232 
L 138.261879 266.679529 
L 140.668053 266.292495 
L 145.480402 265.189399 
L 150.29275 263.736207 
L 155.105099 262.047509 
L 159.917448 260.070569 
L 162.323622 258.874607 
L 164.729797 257.452797 
L 167.135971 255.732812 
L 169.542146 253.653017 
L 171.94832 251.175853 
L 174.354494 248.297358 
L 176.760669 245.050402 
L 179.166843 241.500933 
L 183.979192 233.859795 
L 191.197715 222.293565 
L 196.010064 214.725511 
L 198.416238 210.742115 
L 200.822413 206.416461 
L 203.228587 201.575571 
L 205.634761 196.070777 
L 208.040936 189.811285 
L 210.44711 182.793357 
L 212.853285 175.118244 
L 222.477982 142.943379 
L 224.884157 136.02118 
L 227.290331 129.94211 
L 229.696505 124.700447 
L 232.10268 120.172134 
L 234.508854 116.147864 
L 241.727377 104.648452 
L 244.133552 100.370921 
L 248.9459 91.010671 
L 251.352075 86.35053 
L 253.758249 82.189511 
L 256.164424 78.963233 
L 258.570598 77.062446 
L 260.976772 76.744625 
L 263.382947 78.072479 
L 265.789121 80.899023 
L 268.195295 84.904165 
L 270.60147 89.671515 
L 277.819993 104.839321 
L 287.444691 123.719494 
L 289.850865 129.061057 
L 292.257039 134.906026 
L 294.663214 141.233866 
L 299.475563 154.834837 
L 304.287911 168.490893 
L 306.694086 174.951316 
L 309.10026 181.070209 
L 313.912609 192.369176 
L 318.724958 202.876458 
L 323.537306 212.989862 
L 328.349655 222.52662 
L 330.75583 226.913865 
L 333.162004 230.971741 
L 335.568178 234.679297 
L 337.974353 238.04768 
L 340.380527 241.111867 
L 342.786701 243.917356 
L 345.192876 246.507358 
L 347.59905 248.914793 
L 352.411399 253.257119 
L 357.223748 257.03392 
L 362.036097 260.294695 
L 364.442271 261.73127 
L 366.848445 263.025538 
L 369.25462 264.162209 
L 371.660794 265.12767 
L 374.066969 265.915534 
L 376.473143 266.530115 
L 378.879317 266.986712 
L 383.691666 267.524692 
L 388.504015 267.743177 
L 393.316364 267.811874 
L 393.316364 267.811874 
" style="fill:none;stroke:#bababa;stroke-width:4;"/>
   </g>
   <g id="patch_53">
    <path d="M 34.56 267.84 
L 34.56 34.56 
" style="fill:none;stroke:#f0f0f0;stroke-linecap:square;stroke-linejoin:miter;stroke-width:3;"/>
   </g>
   <g id="patch_54">
    <path d="M 410.4 267.84 
L 410.4 34.56 
" style="fill:none;stroke:#f0f0f0;stroke-linecap:square;stroke-linejoin:miter;stroke-width:3;"/>
   </g>
   <g id="patch_55">
    <path d="M 34.56 267.84 
L 410.4 267.84 
" style="fill:none;stroke:#f0f0f0;stroke-linecap:square;stroke-linejoin:miter;stroke-width:3;"/>
   </g>
   <g id="patch_56">
    <path d="M 34.56 34.56 
L 410.4 34.56 
" style="fill:none;stroke:#f0f0f0;stroke-linecap:square;stroke-linejoin:miter;stroke-width:3;"/>
   </g>
   <g id="text_10">
    <!-- Bootstrapped Mean Values -->
    <defs>
     <path d="M 19.671875 34.8125 
L 19.671875 8.109375 
L 35.5 8.109375 
Q 43.453125 8.109375 47.28125 11.40625 
Q 51.125 14.703125 51.125 21.484375 
Q 51.125 28.328125 47.28125 31.5625 
Q 43.453125 34.8125 35.5 34.8125 
z
M 19.671875 64.796875 
L 19.671875 42.828125 
L 34.28125 42.828125 
Q 41.5 42.828125 45.03125 45.53125 
Q 48.578125 48.25 48.578125 53.8125 
Q 48.578125 59.328125 45.03125 62.0625 
Q 41.5 64.796875 34.28125 64.796875 
z
M 9.8125 72.90625 
L 35.015625 72.90625 
Q 46.296875 72.90625 52.390625 68.21875 
Q 58.5 63.53125 58.5 54.890625 
Q 58.5 48.1875 55.375 44.234375 
Q 52.25 40.28125 46.1875 39.3125 
Q 53.46875 37.75 57.5 32.78125 
Q 61.53125 27.828125 61.53125 20.40625 
Q 61.53125 10.640625 54.890625 5.3125 
Q 48.25 0 35.984375 0 
L 9.8125 0 
z
" id="DejaVuSans-66"/>
     <path d="M 30.609375 48.390625 
Q 23.390625 48.390625 19.1875 42.75 
Q 14.984375 37.109375 14.984375 27.296875 
Q 14.984375 17.484375 19.15625 11.84375 
Q 23.34375 6.203125 30.609375 6.203125 
Q 37.796875 6.203125 41.984375 11.859375 
Q 46.1875 17.53125 46.1875 27.296875 
Q 46.1875 37.015625 41.984375 42.703125 
Q 37.796875 48.390625 30.609375 48.390625 
z
M 30.609375 56 
Q 42.328125 56 49.015625 48.375 
Q 55.71875 40.765625 55.71875 27.296875 
Q 55.71875 13.875 49.015625 6.21875 
Q 42.328125 -1.421875 30.609375 -1.421875 
Q 18.84375 -1.421875 12.171875 6.21875 
Q 5.515625 13.875 5.515625 27.296875 
Q 5.515625 40.765625 12.171875 48.375 
Q 18.84375 56 30.609375 56 
z
" id="DejaVuSans-111"/>
     <path d="M 18.3125 70.21875 
L 18.3125 54.6875 
L 36.8125 54.6875 
L 36.8125 47.703125 
L 18.3125 47.703125 
L 18.3125 18.015625 
Q 18.3125 11.328125 20.140625 9.421875 
Q 21.96875 7.515625 27.59375 7.515625 
L 36.8125 7.515625 
L 36.8125 0 
L 27.59375 0 
Q 17.1875 0 13.234375 3.875 
Q 9.28125 7.765625 9.28125 18.015625 
L 9.28125 47.703125 
L 2.6875 47.703125 
L 2.6875 54.6875 
L 9.28125 54.6875 
L 9.28125 70.21875 
z
" id="DejaVuSans-116"/>
     <path d="M 44.28125 53.078125 
L 44.28125 44.578125 
Q 40.484375 46.53125 36.375 47.5 
Q 32.28125 48.484375 27.875 48.484375 
Q 21.1875 48.484375 17.84375 46.4375 
Q 14.5 44.390625 14.5 40.28125 
Q 14.5 37.15625 16.890625 35.375 
Q 19.28125 33.59375 26.515625 31.984375 
L 29.59375 31.296875 
Q 39.15625 29.25 43.1875 25.515625 
Q 47.21875 21.78125 47.21875 15.09375 
Q 47.21875 7.46875 41.1875 3.015625 
Q 35.15625 -1.421875 24.609375 -1.421875 
Q 20.21875 -1.421875 15.453125 -0.5625 
Q 10.6875 0.296875 5.421875 2 
L 5.421875 11.28125 
Q 10.40625 8.6875 15.234375 7.390625 
Q 20.0625 6.109375 24.8125 6.109375 
Q 31.15625 6.109375 34.5625 8.28125 
Q 37.984375 10.453125 37.984375 14.40625 
Q 37.984375 18.0625 35.515625 20.015625 
Q 33.0625 21.96875 24.703125 23.78125 
L 21.578125 24.515625 
Q 13.234375 26.265625 9.515625 29.90625 
Q 5.8125 33.546875 5.8125 39.890625 
Q 5.8125 47.609375 11.28125 51.796875 
Q 16.75 56 26.8125 56 
Q 31.78125 56 36.171875 55.265625 
Q 40.578125 54.546875 44.28125 53.078125 
z
" id="DejaVuSans-115"/>
     <path d="M 41.109375 46.296875 
Q 39.59375 47.171875 37.8125 47.578125 
Q 36.03125 48 33.890625 48 
Q 26.265625 48 22.1875 43.046875 
Q 18.109375 38.09375 18.109375 28.8125 
L 18.109375 0 
L 9.078125 0 
L 9.078125 54.6875 
L 18.109375 54.6875 
L 18.109375 46.1875 
Q 20.953125 51.171875 25.484375 53.578125 
Q 30.03125 56 36.53125 56 
Q 37.453125 56 38.578125 55.875 
Q 39.703125 55.765625 41.0625 55.515625 
z
" id="DejaVuSans-114"/>
     <path d="M 34.28125 27.484375 
Q 23.390625 27.484375 19.1875 25 
Q 14.984375 22.515625 14.984375 16.5 
Q 14.984375 11.71875 18.140625 8.90625 
Q 21.296875 6.109375 26.703125 6.109375 
Q 34.1875 6.109375 38.703125 11.40625 
Q 43.21875 16.703125 43.21875 25.484375 
L 43.21875 27.484375 
z
M 52.203125 31.203125 
L 52.203125 0 
L 43.21875 0 
L 43.21875 8.296875 
Q 40.140625 3.328125 35.546875 0.953125 
Q 30.953125 -1.421875 24.3125 -1.421875 
Q 15.921875 -1.421875 10.953125 3.296875 
Q 6 8.015625 6 15.921875 
Q 6 25.140625 12.171875 29.828125 
Q 18.359375 34.515625 30.609375 34.515625 
L 43.21875 34.515625 
L 43.21875 35.40625 
Q 43.21875 41.609375 39.140625 45 
Q 35.0625 48.390625 27.6875 48.390625 
Q 23 48.390625 18.546875 47.265625 
Q 14.109375 46.140625 10.015625 43.890625 
L 10.015625 52.203125 
Q 14.9375 54.109375 19.578125 55.046875 
Q 24.21875 56 28.609375 56 
Q 40.484375 56 46.34375 49.84375 
Q 52.203125 43.703125 52.203125 31.203125 
z
" id="DejaVuSans-97"/>
     <path d="M 18.109375 8.203125 
L 18.109375 -20.796875 
L 9.078125 -20.796875 
L 9.078125 54.6875 
L 18.109375 54.6875 
L 18.109375 46.390625 
Q 20.953125 51.265625 25.265625 53.625 
Q 29.59375 56 35.59375 56 
Q 45.5625 56 51.78125 48.09375 
Q 58.015625 40.1875 58.015625 27.296875 
Q 58.015625 14.40625 51.78125 6.484375 
Q 45.5625 -1.421875 35.59375 -1.421875 
Q 29.59375 -1.421875 25.265625 0.953125 
Q 20.953125 3.328125 18.109375 8.203125 
z
M 48.6875 27.296875 
Q 48.6875 37.203125 44.609375 42.84375 
Q 40.53125 48.484375 33.40625 48.484375 
Q 26.265625 48.484375 22.1875 42.84375 
Q 18.109375 37.203125 18.109375 27.296875 
Q 18.109375 17.390625 22.1875 11.75 
Q 26.265625 6.109375 33.40625 6.109375 
Q 40.53125 6.109375 44.609375 11.75 
Q 48.6875 17.390625 48.6875 27.296875 
z
" id="DejaVuSans-112"/>
     <path d="M 56.203125 29.59375 
L 56.203125 25.203125 
L 14.890625 25.203125 
Q 15.484375 15.921875 20.484375 11.0625 
Q 25.484375 6.203125 34.421875 6.203125 
Q 39.59375 6.203125 44.453125 7.46875 
Q 49.3125 8.734375 54.109375 11.28125 
L 54.109375 2.78125 
Q 49.265625 0.734375 44.1875 -0.34375 
Q 39.109375 -1.421875 33.890625 -1.421875 
Q 20.796875 -1.421875 13.15625 6.1875 
Q 5.515625 13.8125 5.515625 26.8125 
Q 5.515625 40.234375 12.765625 48.109375 
Q 20.015625 56 32.328125 56 
Q 43.359375 56 49.78125 48.890625 
Q 56.203125 41.796875 56.203125 29.59375 
z
M 47.21875 32.234375 
Q 47.125 39.59375 43.09375 43.984375 
Q 39.0625 48.390625 32.421875 48.390625 
Q 24.90625 48.390625 20.390625 44.140625 
Q 15.875 39.890625 15.1875 32.171875 
z
" id="DejaVuSans-101"/>
     <path d="M 45.40625 46.390625 
L 45.40625 75.984375 
L 54.390625 75.984375 
L 54.390625 0 
L 45.40625 0 
L 45.40625 8.203125 
Q 42.578125 3.328125 38.25 0.953125 
Q 33.9375 -1.421875 27.875 -1.421875 
Q 17.96875 -1.421875 11.734375 6.484375 
Q 5.515625 14.40625 5.515625 27.296875 
Q 5.515625 40.1875 11.734375 48.09375 
Q 17.96875 56 27.875 56 
Q 33.9375 56 38.25 53.625 
Q 42.578125 51.265625 45.40625 46.390625 
z
M 14.796875 27.296875 
Q 14.796875 17.390625 18.875 11.75 
Q 22.953125 6.109375 30.078125 6.109375 
Q 37.203125 6.109375 41.296875 11.75 
Q 45.40625 17.390625 45.40625 27.296875 
Q 45.40625 37.203125 41.296875 42.84375 
Q 37.203125 48.484375 30.078125 48.484375 
Q 22.953125 48.484375 18.875 42.84375 
Q 14.796875 37.203125 14.796875 27.296875 
z
" id="DejaVuSans-100"/>
     <path id="DejaVuSans-32"/>
     <path d="M 9.8125 72.90625 
L 24.515625 72.90625 
L 43.109375 23.296875 
L 61.8125 72.90625 
L 76.515625 72.90625 
L 76.515625 0 
L 66.890625 0 
L 66.890625 64.015625 
L 48.09375 14.015625 
L 38.1875 14.015625 
L 19.390625 64.015625 
L 19.390625 0 
L 9.8125 0 
z
" id="DejaVuSans-77"/>
     <path d="M 54.890625 33.015625 
L 54.890625 0 
L 45.90625 0 
L 45.90625 32.71875 
Q 45.90625 40.484375 42.875 44.328125 
Q 39.84375 48.1875 33.796875 48.1875 
Q 26.515625 48.1875 22.3125 43.546875 
Q 18.109375 38.921875 18.109375 30.90625 
L 18.109375 0 
L 9.078125 0 
L 9.078125 54.6875 
L 18.109375 54.6875 
L 18.109375 46.1875 
Q 21.34375 51.125 25.703125 53.5625 
Q 30.078125 56 35.796875 56 
Q 45.21875 56 50.046875 50.171875 
Q 54.890625 44.34375 54.890625 33.015625 
z
" id="DejaVuSans-110"/>
     <path d="M 28.609375 0 
L 0.78125 72.90625 
L 11.078125 72.90625 
L 34.1875 11.53125 
L 57.328125 72.90625 
L 67.578125 72.90625 
L 39.796875 0 
z
" id="DejaVuSans-86"/>
     <path d="M 9.421875 75.984375 
L 18.40625 75.984375 
L 18.40625 0 
L 9.421875 0 
z
" id="DejaVuSans-108"/>
     <path d="M 8.5 21.578125 
L 8.5 54.6875 
L 17.484375 54.6875 
L 17.484375 21.921875 
Q 17.484375 14.15625 20.5 10.265625 
Q 23.53125 6.390625 29.59375 6.390625 
Q 36.859375 6.390625 41.078125 11.03125 
Q 45.3125 15.671875 45.3125 23.6875 
L 45.3125 54.6875 
L 54.296875 54.6875 
L 54.296875 0 
L 45.3125 0 
L 45.3125 8.40625 
Q 42.046875 3.421875 37.71875 1 
Q 33.40625 -1.421875 27.6875 -1.421875 
Q 18.265625 -1.421875 13.375 4.4375 
Q 8.5 10.296875 8.5 21.578125 
z
M 31.109375 56 
z
" id="DejaVuSans-117"/>
    </defs>
    <g transform="translate(86.778 28.56)scale(0.2016 -0.2016)">
     <use xlink:href="#DejaVuSans-66"/>
     <use x="68.603516" xlink:href="#DejaVuSans-111"/>
     <use x="129.785156" xlink:href="#DejaVuSans-111"/>
     <use x="190.966797" xlink:href="#DejaVuSans-116"/>
     <use x="230.175781" xlink:href="#DejaVuSans-115"/>
     <use x="282.275391" xlink:href="#DejaVuSans-116"/>
     <use x="321.484375" xlink:href="#DejaVuSans-114"/>
     <use x="362.597656" xlink:href="#DejaVuSans-97"/>
     <use x="423.876953" xlink:href="#DejaVuSans-112"/>
     <use x="487.353516" xlink:href="#DejaVuSans-112"/>
     <use x="550.830078" xlink:href="#DejaVuSans-101"/>
     <use x="612.353516" xlink:href="#DejaVuSans-100"/>
     <use x="675.830078" xlink:href="#DejaVuSans-32"/>
     <use x="707.617188" xlink:href="#DejaVuSans-77"/>
     <use x="793.896484" xlink:href="#DejaVuSans-101"/>
     <use x="855.419922" xlink:href="#DejaVuSans-97"/>
     <use x="916.699219" xlink:href="#DejaVuSans-110"/>
     <use x="980.078125" xlink:href="#DejaVuSans-32"/>
     <use x="1011.865234" xlink:href="#DejaVuSans-86"/>
     <use x="1080.164062" xlink:href="#DejaVuSans-97"/>
     <use x="1141.443359" xlink:href="#DejaVuSans-108"/>
     <use x="1169.226562" xlink:href="#DejaVuSans-117"/>
     <use x="1232.605469" xlink:href="#DejaVuSans-101"/>
     <use x="1294.128906" xlink:href="#DejaVuSans-115"/>
    </g>
   </g>
   <g id="legend_1">
    <g id="patch_57">
     <path d="M 177.1075 86.85875 
L 400.6 86.85875 
Q 403.4 86.85875 403.4 84.05875 
L 403.4 44.36 
Q 403.4 41.56 400.6 41.56 
L 177.1075 41.56 
Q 174.3075 41.56 174.3075 44.36 
L 174.3075 84.05875 
Q 174.3075 86.85875 177.1075 86.85875 
z
" style="fill:#ffffff;opacity:0.8;stroke:#cccccc;stroke-linejoin:miter;stroke-width:0.5;"/>
    </g>
    <g id="patch_58">
     <path d="M 179.9075 57.797813 
L 207.9075 57.797813 
L 207.9075 47.997813 
L 179.9075 47.997813 
z
" style="fill:#204fab;opacity:0.4;"/>
    </g>
    <g id="text_11">
     <!-- Bootstrapped Row Means -->
     <defs>
      <path d="M 44.390625 34.1875 
Q 47.5625 33.109375 50.5625 29.59375 
Q 53.5625 26.078125 56.59375 19.921875 
L 66.609375 0 
L 56 0 
L 46.6875 18.703125 
Q 43.0625 26.03125 39.671875 28.421875 
Q 36.28125 30.8125 30.421875 30.8125 
L 19.671875 30.8125 
L 19.671875 0 
L 9.8125 0 
L 9.8125 72.90625 
L 32.078125 72.90625 
Q 44.578125 72.90625 50.734375 67.671875 
Q 56.890625 62.453125 56.890625 51.90625 
Q 56.890625 45.015625 53.6875 40.46875 
Q 50.484375 35.9375 44.390625 34.1875 
z
M 19.671875 64.796875 
L 19.671875 38.921875 
L 32.078125 38.921875 
Q 39.203125 38.921875 42.84375 42.21875 
Q 46.484375 45.515625 46.484375 51.90625 
Q 46.484375 58.296875 42.84375 61.546875 
Q 39.203125 64.796875 32.078125 64.796875 
z
" id="DejaVuSans-82"/>
      <path d="M 4.203125 54.6875 
L 13.1875 54.6875 
L 24.421875 12.015625 
L 35.59375 54.6875 
L 46.1875 54.6875 
L 57.421875 12.015625 
L 68.609375 54.6875 
L 77.59375 54.6875 
L 63.28125 0 
L 52.6875 0 
L 40.921875 44.828125 
L 29.109375 0 
L 18.5 0 
z
" id="DejaVuSans-119"/>
     </defs>
     <g transform="translate(219.1075 57.797813)scale(0.14 -0.14)">
      <use xlink:href="#DejaVuSans-66"/>
      <use x="68.603516" xlink:href="#DejaVuSans-111"/>
      <use x="129.785156" xlink:href="#DejaVuSans-111"/>
      <use x="190.966797" xlink:href="#DejaVuSans-116"/>
      <use x="230.175781" xlink:href="#DejaVuSans-115"/>
      <use x="282.275391" xlink:href="#DejaVuSans-116"/>
      <use x="321.484375" xlink:href="#DejaVuSans-114"/>
      <use x="362.597656" xlink:href="#DejaVuSans-97"/>
      <use x="423.876953" xlink:href="#DejaVuSans-112"/>
      <use x="487.353516" xlink:href="#DejaVuSans-112"/>
      <use x="550.830078" xlink:href="#DejaVuSans-101"/>
      <use x="612.353516" xlink:href="#DejaVuSans-100"/>
      <use x="675.830078" xlink:href="#DejaVuSans-32"/>
      <use x="707.617188" xlink:href="#DejaVuSans-82"/>
      <use x="777.037109" xlink:href="#DejaVuSans-111"/>
      <use x="838.21875" xlink:href="#DejaVuSans-119"/>
      <use x="920.005859" xlink:href="#DejaVuSans-32"/>
      <use x="951.792969" xlink:href="#DejaVuSans-77"/>
      <use x="1038.072266" xlink:href="#DejaVuSans-101"/>
      <use x="1099.595703" xlink:href="#DejaVuSans-97"/>
      <use x="1160.875" xlink:href="#DejaVuSans-110"/>
      <use x="1224.253906" xlink:href="#DejaVuSans-115"/>
     </g>
    </g>
    <g id="patch_59">
     <path d="M 179.9075 78.347188 
L 207.9075 78.347188 
L 207.9075 68.547188 
L 179.9075 68.547188 
z
" style="fill:#bababa;opacity:0.4;"/>
    </g>
    <g id="text_12">
     <!-- Bootstrapped df Means -->
     <defs>
      <path d="M 37.109375 75.984375 
L 37.109375 68.5 
L 28.515625 68.5 
Q 23.6875 68.5 21.796875 66.546875 
Q 19.921875 64.59375 19.921875 59.515625 
L 19.921875 54.6875 
L 34.71875 54.6875 
L 34.71875 47.703125 
L 19.921875 47.703125 
L 19.921875 0 
L 10.890625 0 
L 10.890625 47.703125 
L 2.296875 47.703125 
L 2.296875 54.6875 
L 10.890625 54.6875 
L 10.890625 58.5 
Q 10.890625 67.625 15.140625 71.796875 
Q 19.390625 75.984375 28.609375 75.984375 
z
" id="DejaVuSans-102"/>
     </defs>
     <g transform="translate(219.1075 78.347188)scale(0.14 -0.14)">
      <use xlink:href="#DejaVuSans-66"/>
      <use x="68.603516" xlink:href="#DejaVuSans-111"/>
      <use x="129.785156" xlink:href="#DejaVuSans-111"/>
      <use x="190.966797" xlink:href="#DejaVuSans-116"/>
      <use x="230.175781" xlink:href="#DejaVuSans-115"/>
      <use x="282.275391" xlink:href="#DejaVuSans-116"/>
      <use x="321.484375" xlink:href="#DejaVuSans-114"/>
      <use x="362.597656" xlink:href="#DejaVuSans-97"/>
      <use x="423.876953" xlink:href="#DejaVuSans-112"/>
      <use x="487.353516" xlink:href="#DejaVuSans-112"/>
      <use x="550.830078" xlink:href="#DejaVuSans-101"/>
      <use x="612.353516" xlink:href="#DejaVuSans-100"/>
      <use x="675.830078" xlink:href="#DejaVuSans-32"/>
      <use x="707.617188" xlink:href="#DejaVuSans-100"/>
      <use x="771.09375" xlink:href="#DejaVuSans-102"/>
      <use x="806.298828" xlink:href="#DejaVuSans-32"/>
      <use x="838.085938" xlink:href="#DejaVuSans-77"/>
      <use x="924.365234" xlink:href="#DejaVuSans-101"/>
      <use x="985.888672" xlink:href="#DejaVuSans-97"/>
      <use x="1047.167969" xlink:href="#DejaVuSans-110"/>
      <use x="1110.546875" xlink:href="#DejaVuSans-115"/>
     </g>
    </g>
   </g>
  </g>
 </g>
 <defs>
  <clipPath id="p0cc1bee3da">
   <rect height="233.28" width="375.84" x="34.56" y="34.56"/>
  </clipPath>
 </defs>
</svg>
