<?xml version="1.0" encoding="utf-8" standalone="no"?>
<!DOCTYPE svg PUBLIC "-//W3C//DTD SVG 1.1//EN"
  "http://www.w3.org/Graphics/SVG/1.1/DTD/svg11.dtd">
<!-- Created with matplotlib (https://matplotlib.org/) -->
<svg height="576pt" version="1.1" viewBox="0 0 720 576" width="720pt" xmlns="http://www.w3.org/2000/svg" xmlns:xlink="http://www.w3.org/1999/xlink">
 <defs>
  <style type="text/css">
*{stroke-linecap:butt;stroke-linejoin:round;}
  </style>
 </defs>
 <g id="figure_1">
  <g id="patch_1">
   <path d="M 0 576 
L 720 576 
L 720 0 
L 0 0 
z
" style="fill:#ffffff;"/>
  </g>
  <g id="axes_1">
   <g id="patch_2">
    <path d="M 57.6 535.68 
L 684 535.68 
L 684 69.12 
L 57.6 69.12 
z
" style="fill:#ffffff;"/>
   </g>
   <g id="matplotlib.axis_1">
    <g id="xtick_1">
     <g id="line2d_1">
      <path clip-path="url(#p3583ae12dd)" d="M 245.304304 535.68 
L 245.304304 69.12 
" style="fill:none;stroke:#cbcbcb;"/>
     </g>
     <g id="line2d_2"/>
     <g id="text_1">
      <!-- 0.00106892 -->
      <defs>
       <path d="M 31.78125 66.40625 
Q 24.171875 66.40625 20.328125 58.90625 
Q 16.5 51.421875 16.5 36.375 
Q 16.5 21.390625 20.328125 13.890625 
Q 24.171875 6.390625 31.78125 6.390625 
Q 39.453125 6.390625 43.28125 13.890625 
Q 47.125 21.390625 47.125 36.375 
Q 47.125 51.421875 43.28125 58.90625 
Q 39.453125 66.40625 31.78125 66.40625 
z
M 31.78125 74.21875 
Q 44.046875 74.21875 50.515625 64.515625 
Q 56.984375 54.828125 56.984375 36.375 
Q 56.984375 17.96875 50.515625 8.265625 
Q 44.046875 -1.421875 31.78125 -1.421875 
Q 19.53125 -1.421875 13.0625 8.265625 
Q 6.59375 17.96875 6.59375 36.375 
Q 6.59375 54.828125 13.0625 64.515625 
Q 19.53125 74.21875 31.78125 74.21875 
z
" id="DejaVuSans-48"/>
       <path d="M 10.6875 12.40625 
L 21 12.40625 
L 21 0 
L 10.6875 0 
z
" id="DejaVuSans-46"/>
       <path d="M 12.40625 8.296875 
L 28.515625 8.296875 
L 28.515625 63.921875 
L 10.984375 60.40625 
L 10.984375 69.390625 
L 28.421875 72.90625 
L 38.28125 72.90625 
L 38.28125 8.296875 
L 54.390625 8.296875 
L 54.390625 0 
L 12.40625 0 
z
" id="DejaVuSans-49"/>
       <path d="M 33.015625 40.375 
Q 26.375 40.375 22.484375 35.828125 
Q 18.609375 31.296875 18.609375 23.390625 
Q 18.609375 15.53125 22.484375 10.953125 
Q 26.375 6.390625 33.015625 6.390625 
Q 39.65625 6.390625 43.53125 10.953125 
Q 47.40625 15.53125 47.40625 23.390625 
Q 47.40625 31.296875 43.53125 35.828125 
Q 39.65625 40.375 33.015625 40.375 
z
M 52.59375 71.296875 
L 52.59375 62.3125 
Q 48.875 64.0625 45.09375 64.984375 
Q 41.3125 65.921875 37.59375 65.921875 
Q 27.828125 65.921875 22.671875 59.328125 
Q 17.53125 52.734375 16.796875 39.40625 
Q 19.671875 43.65625 24.015625 45.921875 
Q 28.375 48.1875 33.59375 48.1875 
Q 44.578125 48.1875 50.953125 41.515625 
Q 57.328125 34.859375 57.328125 23.390625 
Q 57.328125 12.15625 50.6875 5.359375 
Q 44.046875 -1.421875 33.015625 -1.421875 
Q 20.359375 -1.421875 13.671875 8.265625 
Q 6.984375 17.96875 6.984375 36.375 
Q 6.984375 53.65625 15.1875 63.9375 
Q 23.390625 74.21875 37.203125 74.21875 
Q 40.921875 74.21875 44.703125 73.484375 
Q 48.484375 72.75 52.59375 71.296875 
z
" id="DejaVuSans-54"/>
       <path d="M 31.78125 34.625 
Q 24.75 34.625 20.71875 30.859375 
Q 16.703125 27.09375 16.703125 20.515625 
Q 16.703125 13.921875 20.71875 10.15625 
Q 24.75 6.390625 31.78125 6.390625 
Q 38.8125 6.390625 42.859375 10.171875 
Q 46.921875 13.96875 46.921875 20.515625 
Q 46.921875 27.09375 42.890625 30.859375 
Q 38.875 34.625 31.78125 34.625 
z
M 21.921875 38.8125 
Q 15.578125 40.375 12.03125 44.71875 
Q 8.5 49.078125 8.5 55.328125 
Q 8.5 64.0625 14.71875 69.140625 
Q 20.953125 74.21875 31.78125 74.21875 
Q 42.671875 74.21875 48.875 69.140625 
Q 55.078125 64.0625 55.078125 55.328125 
Q 55.078125 49.078125 51.53125 44.71875 
Q 48 40.375 41.703125 38.8125 
Q 48.828125 37.15625 52.796875 32.3125 
Q 56.78125 27.484375 56.78125 20.515625 
Q 56.78125 9.90625 50.3125 4.234375 
Q 43.84375 -1.421875 31.78125 -1.421875 
Q 19.734375 -1.421875 13.25 4.234375 
Q 6.78125 9.90625 6.78125 20.515625 
Q 6.78125 27.484375 10.78125 32.3125 
Q 14.796875 37.15625 21.921875 38.8125 
z
M 18.3125 54.390625 
Q 18.3125 48.734375 21.84375 45.5625 
Q 25.390625 42.390625 31.78125 42.390625 
Q 38.140625 42.390625 41.71875 45.5625 
Q 45.3125 48.734375 45.3125 54.390625 
Q 45.3125 60.0625 41.71875 63.234375 
Q 38.140625 66.40625 31.78125 66.40625 
Q 25.390625 66.40625 21.84375 63.234375 
Q 18.3125 60.0625 18.3125 54.390625 
z
" id="DejaVuSans-56"/>
       <path d="M 10.984375 1.515625 
L 10.984375 10.5 
Q 14.703125 8.734375 18.5 7.8125 
Q 22.3125 6.890625 25.984375 6.890625 
Q 35.75 6.890625 40.890625 13.453125 
Q 46.046875 20.015625 46.78125 33.40625 
Q 43.953125 29.203125 39.59375 26.953125 
Q 35.25 24.703125 29.984375 24.703125 
Q 19.046875 24.703125 12.671875 31.3125 
Q 6.296875 37.9375 6.296875 49.421875 
Q 6.296875 60.640625 12.9375 67.421875 
Q 19.578125 74.21875 30.609375 74.21875 
Q 43.265625 74.21875 49.921875 64.515625 
Q 56.59375 54.828125 56.59375 36.375 
Q 56.59375 19.140625 48.40625 8.859375 
Q 40.234375 -1.421875 26.421875 -1.421875 
Q 22.703125 -1.421875 18.890625 -0.6875 
Q 15.09375 0.046875 10.984375 1.515625 
z
M 30.609375 32.421875 
Q 37.25 32.421875 41.125 36.953125 
Q 45.015625 41.5 45.015625 49.421875 
Q 45.015625 57.28125 41.125 61.84375 
Q 37.25 66.40625 30.609375 66.40625 
Q 23.96875 66.40625 20.09375 61.84375 
Q 16.21875 57.28125 16.21875 49.421875 
Q 16.21875 41.5 20.09375 36.953125 
Q 23.96875 32.421875 30.609375 32.421875 
z
" id="DejaVuSans-57"/>
       <path d="M 19.1875 8.296875 
L 53.609375 8.296875 
L 53.609375 0 
L 7.328125 0 
L 7.328125 8.296875 
Q 12.9375 14.109375 22.625 23.890625 
Q 32.328125 33.6875 34.8125 36.53125 
Q 39.546875 41.84375 41.421875 45.53125 
Q 43.3125 49.21875 43.3125 52.78125 
Q 43.3125 58.59375 39.234375 62.25 
Q 35.15625 65.921875 28.609375 65.921875 
Q 23.96875 65.921875 18.8125 64.3125 
Q 13.671875 62.703125 7.8125 59.421875 
L 7.8125 69.390625 
Q 13.765625 71.78125 18.9375 73 
Q 24.125 74.21875 28.421875 74.21875 
Q 39.75 74.21875 46.484375 68.546875 
Q 53.21875 62.890625 53.21875 53.421875 
Q 53.21875 48.921875 51.53125 44.890625 
Q 49.859375 40.875 45.40625 35.40625 
Q 44.1875 33.984375 37.640625 27.21875 
Q 31.109375 20.453125 19.1875 8.296875 
z
" id="DejaVuSans-50"/>
      </defs>
      <g transform="translate(202.995867 549.817813)scale(0.14 -0.14)">
       <use xlink:href="#DejaVuSans-48"/>
       <use x="63.623047" xlink:href="#DejaVuSans-46"/>
       <use x="95.410156" xlink:href="#DejaVuSans-48"/>
       <use x="159.033203" xlink:href="#DejaVuSans-48"/>
       <use x="222.65625" xlink:href="#DejaVuSans-49"/>
       <use x="286.279297" xlink:href="#DejaVuSans-48"/>
       <use x="349.902344" xlink:href="#DejaVuSans-54"/>
       <use x="413.525391" xlink:href="#DejaVuSans-56"/>
       <use x="477.148438" xlink:href="#DejaVuSans-57"/>
       <use x="540.771484" xlink:href="#DejaVuSans-50"/>
      </g>
     </g>
    </g>
    <g id="xtick_2">
     <g id="line2d_3">
      <path clip-path="url(#p3583ae12dd)" d="M 469.37173 535.68 
L 469.37173 69.12 
" style="fill:none;stroke:#cbcbcb;"/>
     </g>
     <g id="line2d_4"/>
     <g id="text_2">
      <!-- 0.00108620 -->
      <g transform="translate(427.063292 549.817813)scale(0.14 -0.14)">
       <use xlink:href="#DejaVuSans-48"/>
       <use x="63.623047" xlink:href="#DejaVuSans-46"/>
       <use x="95.410156" xlink:href="#DejaVuSans-48"/>
       <use x="159.033203" xlink:href="#DejaVuSans-48"/>
       <use x="222.65625" xlink:href="#DejaVuSans-49"/>
       <use x="286.279297" xlink:href="#DejaVuSans-48"/>
       <use x="349.902344" xlink:href="#DejaVuSans-56"/>
       <use x="413.525391" xlink:href="#DejaVuSans-54"/>
       <use x="477.148438" xlink:href="#DejaVuSans-50"/>
       <use x="540.771484" xlink:href="#DejaVuSans-48"/>
      </g>
     </g>
    </g>
   </g>
   <g id="matplotlib.axis_2">
    <g id="ytick_1">
     <g id="line2d_5">
      <path clip-path="url(#p3583ae12dd)" d="M 57.6 535.68 
L 684 535.68 
" style="fill:none;stroke:#cbcbcb;"/>
     </g>
     <g id="line2d_6"/>
     <g id="text_3">
      <!-- 0 -->
      <g transform="translate(45.1925 540.998906)scale(0.14 -0.14)">
       <use xlink:href="#DejaVuSans-48"/>
      </g>
     </g>
    </g>
    <g id="ytick_2">
     <g id="line2d_7">
      <path clip-path="url(#p3583ae12dd)" d="M 57.6 466.099678 
L 684 466.099678 
" style="fill:none;stroke:#cbcbcb;"/>
     </g>
     <g id="line2d_8"/>
     <g id="text_4">
      <!-- 20000 -->
      <g transform="translate(9.5625 471.418584)scale(0.14 -0.14)">
       <use xlink:href="#DejaVuSans-50"/>
       <use x="63.623047" xlink:href="#DejaVuSans-48"/>
       <use x="127.246094" xlink:href="#DejaVuSans-48"/>
       <use x="190.869141" xlink:href="#DejaVuSans-48"/>
       <use x="254.492188" xlink:href="#DejaVuSans-48"/>
      </g>
     </g>
    </g>
    <g id="ytick_3">
     <g id="line2d_9">
      <path clip-path="url(#p3583ae12dd)" d="M 57.6 396.519356 
L 684 396.519356 
" style="fill:none;stroke:#cbcbcb;"/>
     </g>
     <g id="line2d_10"/>
     <g id="text_5">
      <!-- 40000 -->
      <defs>
       <path d="M 37.796875 64.3125 
L 12.890625 25.390625 
L 37.796875 25.390625 
z
M 35.203125 72.90625 
L 47.609375 72.90625 
L 47.609375 25.390625 
L 58.015625 25.390625 
L 58.015625 17.1875 
L 47.609375 17.1875 
L 47.609375 0 
L 37.796875 0 
L 37.796875 17.1875 
L 4.890625 17.1875 
L 4.890625 26.703125 
z
" id="DejaVuSans-52"/>
      </defs>
      <g transform="translate(9.5625 401.838263)scale(0.14 -0.14)">
       <use xlink:href="#DejaVuSans-52"/>
       <use x="63.623047" xlink:href="#DejaVuSans-48"/>
       <use x="127.246094" xlink:href="#DejaVuSans-48"/>
       <use x="190.869141" xlink:href="#DejaVuSans-48"/>
       <use x="254.492188" xlink:href="#DejaVuSans-48"/>
      </g>
     </g>
    </g>
    <g id="ytick_4">
     <g id="line2d_11">
      <path clip-path="url(#p3583ae12dd)" d="M 57.6 326.939034 
L 684 326.939034 
" style="fill:none;stroke:#cbcbcb;"/>
     </g>
     <g id="line2d_12"/>
     <g id="text_6">
      <!-- 60000 -->
      <g transform="translate(9.5625 332.257941)scale(0.14 -0.14)">
       <use xlink:href="#DejaVuSans-54"/>
       <use x="63.623047" xlink:href="#DejaVuSans-48"/>
       <use x="127.246094" xlink:href="#DejaVuSans-48"/>
       <use x="190.869141" xlink:href="#DejaVuSans-48"/>
       <use x="254.492188" xlink:href="#DejaVuSans-48"/>
      </g>
     </g>
    </g>
    <g id="ytick_5">
     <g id="line2d_13">
      <path clip-path="url(#p3583ae12dd)" d="M 57.6 257.358713 
L 684 257.358713 
" style="fill:none;stroke:#cbcbcb;"/>
     </g>
     <g id="line2d_14"/>
     <g id="text_7">
      <!-- 80000 -->
      <g transform="translate(9.5625 262.677619)scale(0.14 -0.14)">
       <use xlink:href="#DejaVuSans-56"/>
       <use x="63.623047" xlink:href="#DejaVuSans-48"/>
       <use x="127.246094" xlink:href="#DejaVuSans-48"/>
       <use x="190.869141" xlink:href="#DejaVuSans-48"/>
       <use x="254.492188" xlink:href="#DejaVuSans-48"/>
      </g>
     </g>
    </g>
    <g id="ytick_6">
     <g id="line2d_15">
      <path clip-path="url(#p3583ae12dd)" d="M 57.6 187.778391 
L 684 187.778391 
" style="fill:none;stroke:#cbcbcb;"/>
     </g>
     <g id="line2d_16"/>
     <g id="text_8">
      <!-- 100000 -->
      <g transform="translate(0.655 193.097297)scale(0.14 -0.14)">
       <use xlink:href="#DejaVuSans-49"/>
       <use x="63.623047" xlink:href="#DejaVuSans-48"/>
       <use x="127.246094" xlink:href="#DejaVuSans-48"/>
       <use x="190.869141" xlink:href="#DejaVuSans-48"/>
       <use x="254.492188" xlink:href="#DejaVuSans-48"/>
       <use x="318.115234" xlink:href="#DejaVuSans-48"/>
      </g>
     </g>
    </g>
    <g id="ytick_7">
     <g id="line2d_17">
      <path clip-path="url(#p3583ae12dd)" d="M 57.6 118.198069 
L 684 118.198069 
" style="fill:none;stroke:#cbcbcb;"/>
     </g>
     <g id="line2d_18"/>
     <g id="text_9">
      <!-- 120000 -->
      <g transform="translate(0.655 123.516975)scale(0.14 -0.14)">
       <use xlink:href="#DejaVuSans-49"/>
       <use x="63.623047" xlink:href="#DejaVuSans-50"/>
       <use x="127.246094" xlink:href="#DejaVuSans-48"/>
       <use x="190.869141" xlink:href="#DejaVuSans-48"/>
       <use x="254.492188" xlink:href="#DejaVuSans-48"/>
       <use x="318.115234" xlink:href="#DejaVuSans-48"/>
      </g>
     </g>
    </g>
   </g>
   <g id="patch_3">
    <path clip-path="url(#p3583ae12dd)" d="M 121.022312 535.68 
L 132.803707 535.68 
L 132.803707 512.696749 
L 121.022312 512.696749 
z
" style="fill:#204fab;opacity:0.4;"/>
   </g>
   <g id="patch_4">
    <path clip-path="url(#p3583ae12dd)" d="M 132.803707 535.68 
L 144.585102 535.68 
L 144.585102 505.035665 
L 132.803707 505.035665 
z
" style="fill:#204fab;opacity:0.4;"/>
   </g>
   <g id="patch_5">
    <path clip-path="url(#p3583ae12dd)" d="M 144.585102 535.68 
L 156.366498 535.68 
L 156.366498 478.221872 
L 144.585102 478.221872 
z
" style="fill:#204fab;opacity:0.4;"/>
   </g>
   <g id="patch_6">
    <path clip-path="url(#p3583ae12dd)" d="M 156.366498 535.68 
L 168.147893 535.68 
L 168.147893 493.544039 
L 156.366498 493.544039 
z
" style="fill:#204fab;opacity:0.4;"/>
   </g>
   <g id="patch_7">
    <path clip-path="url(#p3583ae12dd)" d="M 168.147893 535.68 
L 179.929288 535.68 
L 179.929288 420.763744 
L 168.147893 420.763744 
z
" style="fill:#204fab;opacity:0.4;"/>
   </g>
   <g id="patch_8">
    <path clip-path="url(#p3583ae12dd)" d="M 179.929288 535.68 
L 191.710684 535.68 
L 191.710684 374.797241 
L 179.929288 374.797241 
z
" style="fill:#204fab;opacity:0.4;"/>
   </g>
   <g id="patch_9">
    <path clip-path="url(#p3583ae12dd)" d="M 191.710684 535.68 
L 203.492079 535.68 
L 203.492079 351.81399 
L 191.710684 351.81399 
z
" style="fill:#204fab;opacity:0.4;"/>
   </g>
   <g id="patch_10">
    <path clip-path="url(#p3583ae12dd)" d="M 203.492079 535.68 
L 215.273475 535.68 
L 215.273475 225.406108 
L 203.492079 225.406108 
z
" style="fill:#204fab;opacity:0.4;"/>
   </g>
   <g id="patch_11">
    <path clip-path="url(#p3583ae12dd)" d="M 215.273475 535.68 
L 227.05487 535.68 
L 227.05487 190.931232 
L 215.273475 190.931232 
z
" style="fill:#204fab;opacity:0.4;"/>
   </g>
   <g id="patch_12">
    <path clip-path="url(#p3583ae12dd)" d="M 227.05487 535.68 
L 238.836265 535.68 
L 238.836265 102.828768 
L 227.05487 102.828768 
z
" style="fill:#204fab;opacity:0.4;"/>
   </g>
   <g id="patch_13">
    <path clip-path="url(#p3583ae12dd)" d="M 238.836265 535.68 
L 250.617661 535.68 
L 250.617661 91.337143 
L 238.836265 91.337143 
z
" style="fill:#204fab;opacity:0.4;"/>
   </g>
   <g id="patch_14">
    <path clip-path="url(#p3583ae12dd)" d="M 250.617661 535.68 
L 262.399056 535.68 
L 262.399056 164.117438 
L 250.617661 164.117438 
z
" style="fill:#204fab;opacity:0.4;"/>
   </g>
   <g id="patch_15">
    <path clip-path="url(#p3583ae12dd)" d="M 262.399056 535.68 
L 274.180451 535.68 
L 274.180451 240.728276 
L 262.399056 240.728276 
z
" style="fill:#204fab;opacity:0.4;"/>
   </g>
   <g id="patch_16">
    <path clip-path="url(#p3583ae12dd)" d="M 274.180451 535.68 
L 285.961847 535.68 
L 285.961847 202.422857 
L 274.180451 202.422857 
z
" style="fill:#204fab;opacity:0.4;"/>
   </g>
   <g id="patch_17">
    <path clip-path="url(#p3583ae12dd)" d="M 285.961847 535.68 
L 297.743242 535.68 
L 297.743242 282.864236 
L 285.961847 282.864236 
z
" style="fill:#204fab;opacity:0.4;"/>
   </g>
   <g id="patch_18">
    <path clip-path="url(#p3583ae12dd)" d="M 297.743242 535.68 
L 309.524638 535.68 
L 309.524638 393.949951 
L 297.743242 393.949951 
z
" style="fill:#204fab;opacity:0.4;"/>
   </g>
   <g id="patch_19">
    <path clip-path="url(#p3583ae12dd)" d="M 309.524638 535.68 
L 321.306033 535.68 
L 321.306033 413.10266 
L 309.524638 413.10266 
z
" style="fill:#204fab;opacity:0.4;"/>
   </g>
   <g id="patch_20">
    <path clip-path="url(#p3583ae12dd)" d="M 321.306033 535.68 
L 333.087428 535.68 
L 333.087428 439.916453 
L 321.306033 439.916453 
z
" style="fill:#204fab;opacity:0.4;"/>
   </g>
   <g id="patch_21">
    <path clip-path="url(#p3583ae12dd)" d="M 333.087428 535.68 
L 344.868824 535.68 
L 344.868824 505.035665 
L 333.087428 505.035665 
z
" style="fill:#204fab;opacity:0.4;"/>
   </g>
   <g id="patch_22">
    <path clip-path="url(#p3583ae12dd)" d="M 344.868824 535.68 
L 356.650219 535.68 
L 356.650219 508.866207 
L 344.868824 508.866207 
z
" style="fill:#204fab;opacity:0.4;"/>
   </g>
   <g id="patch_23">
    <path clip-path="url(#p3583ae12dd)" d="M 356.650219 535.68 
L 368.431614 535.68 
L 368.431614 528.018916 
L 356.650219 528.018916 
z
" style="fill:#204fab;opacity:0.4;"/>
   </g>
   <g id="patch_24">
    <path clip-path="url(#p3583ae12dd)" d="M 368.431614 535.68 
L 380.21301 535.68 
L 380.21301 535.68 
L 368.431614 535.68 
z
" style="fill:#204fab;opacity:0.4;"/>
   </g>
   <g id="patch_25">
    <path clip-path="url(#p3583ae12dd)" d="M 380.21301 535.68 
L 391.994405 535.68 
L 391.994405 528.018916 
L 380.21301 528.018916 
z
" style="fill:#204fab;opacity:0.4;"/>
   </g>
   <g id="patch_26">
    <path clip-path="url(#p3583ae12dd)" d="M 307.510011 535.68 
L 320.991829 535.68 
L 320.991829 532.332593 
L 307.510011 532.332593 
z
" style="fill:#bababa;opacity:0.4;"/>
   </g>
   <g id="patch_27">
    <path clip-path="url(#p3583ae12dd)" d="M 320.991829 535.68 
L 334.473647 535.68 
L 334.473647 532.332593 
L 320.991829 532.332593 
z
" style="fill:#bababa;opacity:0.4;"/>
   </g>
   <g id="patch_28">
    <path clip-path="url(#p3583ae12dd)" d="M 334.473647 535.68 
L 347.955465 535.68 
L 347.955465 515.59556 
L 334.473647 515.59556 
z
" style="fill:#bababa;opacity:0.4;"/>
   </g>
   <g id="patch_29">
    <path clip-path="url(#p3583ae12dd)" d="M 347.955465 535.68 
L 361.437283 535.68 
L 361.437283 525.63778 
L 347.955465 525.63778 
z
" style="fill:#bababa;opacity:0.4;"/>
   </g>
   <g id="patch_30">
    <path clip-path="url(#p3583ae12dd)" d="M 361.437283 535.68 
L 374.919101 535.68 
L 374.919101 505.553339 
L 361.437283 505.553339 
z
" style="fill:#bababa;opacity:0.4;"/>
   </g>
   <g id="patch_31">
    <path clip-path="url(#p3583ae12dd)" d="M 374.919101 535.68 
L 388.400919 535.68 
L 388.400919 468.731866 
L 374.919101 468.731866 
z
" style="fill:#bababa;opacity:0.4;"/>
   </g>
   <g id="patch_32">
    <path clip-path="url(#p3583ae12dd)" d="M 388.400919 535.68 
L 401.882737 535.68 
L 401.882737 411.825951 
L 388.400919 411.825951 
z
" style="fill:#bababa;opacity:0.4;"/>
   </g>
   <g id="patch_33">
    <path clip-path="url(#p3583ae12dd)" d="M 401.882737 535.68 
L 415.364555 535.68 
L 415.364555 334.835597 
L 401.882737 334.835597 
z
" style="fill:#bababa;opacity:0.4;"/>
   </g>
   <g id="patch_34">
    <path clip-path="url(#p3583ae12dd)" d="M 415.364555 535.68 
L 428.846373 535.68 
L 428.846373 301.361529 
L 415.364555 301.361529 
z
" style="fill:#bababa;opacity:0.4;"/>
   </g>
   <g id="patch_35">
    <path clip-path="url(#p3583ae12dd)" d="M 428.846373 535.68 
L 442.328191 535.68 
L 442.328191 254.497835 
L 428.846373 254.497835 
z
" style="fill:#bababa;opacity:0.4;"/>
   </g>
   <g id="patch_36">
    <path clip-path="url(#p3583ae12dd)" d="M 442.328191 535.68 
L 455.810009 535.68 
L 455.810009 244.455615 
L 442.328191 244.455615 
z
" style="fill:#bababa;opacity:0.4;"/>
   </g>
   <g id="patch_37">
    <path clip-path="url(#p3583ae12dd)" d="M 455.810009 535.68 
L 469.291827 535.68 
L 469.291827 144.033413 
L 455.810009 144.033413 
z
" style="fill:#bababa;opacity:0.4;"/>
   </g>
   <g id="patch_38">
    <path clip-path="url(#p3583ae12dd)" d="M 469.291827 535.68 
L 482.773645 535.68 
L 482.773645 133.991193 
L 469.291827 133.991193 
z
" style="fill:#bababa;opacity:0.4;"/>
   </g>
   <g id="patch_39">
    <path clip-path="url(#p3583ae12dd)" d="M 482.773645 535.68 
L 496.255463 535.68 
L 496.255463 217.676361 
L 482.773645 217.676361 
z
" style="fill:#bababa;opacity:0.4;"/>
   </g>
   <g id="patch_40">
    <path clip-path="url(#p3583ae12dd)" d="M 496.255463 535.68 
L 509.737281 535.68 
L 509.737281 231.065988 
L 496.255463 231.065988 
z
" style="fill:#bababa;opacity:0.4;"/>
   </g>
   <g id="patch_41">
    <path clip-path="url(#p3583ae12dd)" d="M 509.737281 535.68 
L 523.219099 535.68 
L 523.219099 284.624496 
L 509.737281 284.624496 
z
" style="fill:#bababa;opacity:0.4;"/>
   </g>
   <g id="patch_42">
    <path clip-path="url(#p3583ae12dd)" d="M 523.219099 535.68 
L 536.700917 535.68 
L 536.700917 378.351884 
L 523.219099 378.351884 
z
" style="fill:#bababa;opacity:0.4;"/>
   </g>
   <g id="patch_43">
    <path clip-path="url(#p3583ae12dd)" d="M 536.700917 535.68 
L 550.182735 535.68 
L 550.182735 428.562985 
L 536.700917 428.562985 
z
" style="fill:#bababa;opacity:0.4;"/>
   </g>
   <g id="patch_44">
    <path clip-path="url(#p3583ae12dd)" d="M 550.182735 535.68 
L 563.664553 535.68 
L 563.664553 465.384459 
L 550.182735 465.384459 
z
" style="fill:#bababa;opacity:0.4;"/>
   </g>
   <g id="patch_45">
    <path clip-path="url(#p3583ae12dd)" d="M 563.664553 535.68 
L 577.146371 535.68 
L 577.146371 498.858526 
L 563.664553 498.858526 
z
" style="fill:#bababa;opacity:0.4;"/>
   </g>
   <g id="patch_46">
    <path clip-path="url(#p3583ae12dd)" d="M 577.146371 535.68 
L 590.628189 535.68 
L 590.628189 505.553339 
L 577.146371 505.553339 
z
" style="fill:#bababa;opacity:0.4;"/>
   </g>
   <g id="patch_47">
    <path clip-path="url(#p3583ae12dd)" d="M 590.628189 535.68 
L 604.110007 535.68 
L 604.110007 528.985187 
L 590.628189 528.985187 
z
" style="fill:#bababa;opacity:0.4;"/>
   </g>
   <g id="patch_48">
    <path clip-path="url(#p3583ae12dd)" d="M 604.110007 535.68 
L 617.591825 535.68 
L 617.591825 528.985187 
L 604.110007 528.985187 
z
" style="fill:#bababa;opacity:0.4;"/>
   </g>
   <g id="line2d_19">
    <path clip-path="url(#p3583ae12dd)" d="M 86.072727 535.628428 
L 91.440779 535.524779 
L 96.80883 535.187034 
L 99.492856 534.853621 
L 102.176881 534.353227 
L 104.860907 533.637339 
L 107.544933 532.659168 
L 110.228958 531.380148 
L 112.912984 529.77621 
L 115.59701 527.842414 
L 118.281036 525.594766 
L 120.965061 523.068587 
L 123.649087 520.313494 
L 129.017138 514.338937 
L 137.069215 504.83068 
L 142.437267 498.252041 
L 147.805318 491.332229 
L 150.489344 487.641336 
L 153.173369 483.681627 
L 155.857395 479.310462 
L 158.541421 474.345549 
L 161.225446 468.591911 
L 163.909472 461.883746 
L 166.593498 454.128056 
L 169.277524 445.333552 
L 171.961549 435.612176 
L 174.645575 425.150175 
L 180.013626 402.805892 
L 185.381678 379.296474 
L 188.065703 367.017488 
L 190.749729 354.184657 
L 193.433755 340.62468 
L 196.11778 326.219345 
L 198.801806 310.955809 
L 204.169857 278.458828 
L 209.537909 245.362688 
L 212.221935 229.446511 
L 214.90596 214.286285 
L 217.589986 199.992963 
L 220.274012 186.580729 
L 222.958037 174.022325 
L 225.642063 162.322093 
L 228.326089 151.581597 
L 231.010114 142.034386 
L 233.69414 134.036272 
L 236.378166 128.011859 
L 239.062191 124.371671 
L 241.746217 123.422404 
L 244.430243 125.293399 
L 247.114268 129.895976 
L 249.798294 136.922016 
L 252.48232 145.878309 
L 255.166346 156.146906 
L 260.534397 177.982325 
L 263.218423 188.387068 
L 265.902448 197.929551 
L 268.586474 206.497652 
L 271.2705 214.233799 
L 276.638551 228.889669 
L 279.322577 236.970683 
L 282.006602 246.316524 
L 284.690628 257.314092 
L 287.374654 270.097192 
L 290.058679 284.516524 
L 295.426731 316.466335 
L 300.794782 348.446696 
L 303.478808 363.063399 
L 306.162834 376.362773 
L 308.846859 388.32336 
L 311.530885 399.120311 
L 314.214911 409.056935 
L 319.582962 427.672218 
L 327.635039 455.016571 
L 330.319065 463.765314 
L 333.00309 472.005115 
L 335.687116 479.559218 
L 338.371142 486.334738 
L 341.055167 492.337873 
L 343.739193 497.657503 
L 346.423219 502.426501 
L 349.107245 506.776566 
L 351.79127 510.80241 
L 354.475296 514.545293 
L 357.159322 517.997106 
L 359.843347 521.118651 
L 362.527373 523.862311 
L 365.211399 526.190656 
L 367.895424 528.086903 
L 370.57945 529.557771 
L 373.263476 530.631917 
L 375.947501 531.357073 
L 378.631527 531.797187 
L 381.315553 532.028845 
L 392.051656 532.452827 
L 397.419707 533.059815 
L 408.15581 534.688271 
L 413.523861 535.228509 
L 418.891912 535.511375 
L 426.943989 535.635928 
L 426.943989 535.635928 
" style="fill:none;stroke:#204fab;stroke-width:4;"/>
   </g>
   <g id="line2d_20">
    <path clip-path="url(#p3583ae12dd)" d="M 269.574563 535.646837 
L 278.691556 535.567546 
L 287.80855 535.242317 
L 296.925543 534.599957 
L 309.081534 533.482828 
L 312.120531 533.09777 
L 315.159529 532.595215 
L 318.198527 531.927681 
L 321.237524 531.059967 
L 324.276522 529.98093 
L 327.31552 528.710283 
L 333.393515 525.813728 
L 339.471511 522.913829 
L 351.627501 517.471406 
L 354.666499 515.604197 
L 357.705497 513.180417 
L 360.744495 510.02658 
L 363.783492 506.011639 
L 366.82249 501.056977 
L 369.861488 495.129568 
L 372.900485 488.221947 
L 375.939483 480.329264 
L 378.978481 471.436436 
L 382.017479 461.525066 
L 385.056476 450.600585 
L 388.095474 438.728846 
L 391.134472 426.063691 
L 406.32946 359.95242 
L 412.407456 335.355227 
L 418.485451 311.920642 
L 421.524449 300.843974 
L 424.563447 290.476857 
L 427.602444 281.020507 
L 430.641442 272.536292 
L 433.68044 264.865184 
L 439.758435 250.251078 
L 442.797433 242.203111 
L 445.836431 233.058899 
L 448.875428 222.681625 
L 451.914426 211.280541 
L 457.992421 187.815116 
L 461.031419 177.429734 
L 464.070417 169.092065 
L 467.109415 163.47461 
L 470.148412 160.970766 
L 473.18741 161.645508 
L 476.226408 165.242757 
L 479.265405 171.247065 
L 482.304403 178.988027 
L 485.343401 187.766763 
L 494.460394 215.255683 
L 500.538389 233.178502 
L 503.577387 242.589361 
L 506.616385 252.752063 
L 509.655383 263.960096 
L 512.69438 276.399025 
L 515.733378 290.11101 
L 518.772376 304.980992 
L 524.850371 337.014504 
L 530.928367 369.23407 
L 533.967364 384.310773 
L 537.006362 398.279039 
L 540.04536 411.009196 
L 543.084357 422.523529 
L 546.123355 432.957175 
L 549.162353 442.495474 
L 552.201351 451.308781 
L 555.240348 459.506132 
L 558.279346 467.121352 
L 561.318344 474.132259 
L 564.357341 480.501077 
L 567.396339 486.217035 
L 570.435337 491.323171 
L 573.474334 495.917426 
L 576.513332 500.129497 
L 582.591328 507.868811 
L 588.669323 514.978738 
L 591.708321 518.204906 
L 594.747318 521.106986 
L 597.786316 523.617904 
L 600.825314 525.704124 
L 603.864312 527.373391 
L 606.903309 528.671884 
L 609.942307 529.673476 
L 612.981305 530.464588 
L 619.0593 531.730015 
L 631.215291 533.958192 
L 637.293286 534.797163 
L 643.371282 535.311009 
L 649.449277 535.554277 
L 655.527273 535.638278 
L 655.527273 535.638278 
" style="fill:none;stroke:#bababa;stroke-width:4;"/>
   </g>
   <g id="patch_49">
    <path d="M 57.6 535.68 
L 57.6 69.12 
" style="fill:none;stroke:#f0f0f0;stroke-linecap:square;stroke-linejoin:miter;stroke-width:3;"/>
   </g>
   <g id="patch_50">
    <path d="M 684 535.68 
L 684 69.12 
" style="fill:none;stroke:#f0f0f0;stroke-linecap:square;stroke-linejoin:miter;stroke-width:3;"/>
   </g>
   <g id="patch_51">
    <path d="M 57.6 535.68 
L 684 535.68 
" style="fill:none;stroke:#f0f0f0;stroke-linecap:square;stroke-linejoin:miter;stroke-width:3;"/>
   </g>
   <g id="patch_52">
    <path d="M 57.6 69.12 
L 684 69.12 
" style="fill:none;stroke:#f0f0f0;stroke-linecap:square;stroke-linejoin:miter;stroke-width:3;"/>
   </g>
   <g id="text_10">
    <!-- Bootstrapped Mean Values -->
    <defs>
     <path d="M 19.671875 34.8125 
L 19.671875 8.109375 
L 35.5 8.109375 
Q 43.453125 8.109375 47.28125 11.40625 
Q 51.125 14.703125 51.125 21.484375 
Q 51.125 28.328125 47.28125 31.5625 
Q 43.453125 34.8125 35.5 34.8125 
z
M 19.671875 64.796875 
L 19.671875 42.828125 
L 34.28125 42.828125 
Q 41.5 42.828125 45.03125 45.53125 
Q 48.578125 48.25 48.578125 53.8125 
Q 48.578125 59.328125 45.03125 62.0625 
Q 41.5 64.796875 34.28125 64.796875 
z
M 9.8125 72.90625 
L 35.015625 72.90625 
Q 46.296875 72.90625 52.390625 68.21875 
Q 58.5 63.53125 58.5 54.890625 
Q 58.5 48.1875 55.375 44.234375 
Q 52.25 40.28125 46.1875 39.3125 
Q 53.46875 37.75 57.5 32.78125 
Q 61.53125 27.828125 61.53125 20.40625 
Q 61.53125 10.640625 54.890625 5.3125 
Q 48.25 0 35.984375 0 
L 9.8125 0 
z
" id="DejaVuSans-66"/>
     <path d="M 30.609375 48.390625 
Q 23.390625 48.390625 19.1875 42.75 
Q 14.984375 37.109375 14.984375 27.296875 
Q 14.984375 17.484375 19.15625 11.84375 
Q 23.34375 6.203125 30.609375 6.203125 
Q 37.796875 6.203125 41.984375 11.859375 
Q 46.1875 17.53125 46.1875 27.296875 
Q 46.1875 37.015625 41.984375 42.703125 
Q 37.796875 48.390625 30.609375 48.390625 
z
M 30.609375 56 
Q 42.328125 56 49.015625 48.375 
Q 55.71875 40.765625 55.71875 27.296875 
Q 55.71875 13.875 49.015625 6.21875 
Q 42.328125 -1.421875 30.609375 -1.421875 
Q 18.84375 -1.421875 12.171875 6.21875 
Q 5.515625 13.875 5.515625 27.296875 
Q 5.515625 40.765625 12.171875 48.375 
Q 18.84375 56 30.609375 56 
z
" id="DejaVuSans-111"/>
     <path d="M 18.3125 70.21875 
L 18.3125 54.6875 
L 36.8125 54.6875 
L 36.8125 47.703125 
L 18.3125 47.703125 
L 18.3125 18.015625 
Q 18.3125 11.328125 20.140625 9.421875 
Q 21.96875 7.515625 27.59375 7.515625 
L 36.8125 7.515625 
L 36.8125 0 
L 27.59375 0 
Q 17.1875 0 13.234375 3.875 
Q 9.28125 7.765625 9.28125 18.015625 
L 9.28125 47.703125 
L 2.6875 47.703125 
L 2.6875 54.6875 
L 9.28125 54.6875 
L 9.28125 70.21875 
z
" id="DejaVuSans-116"/>
     <path d="M 44.28125 53.078125 
L 44.28125 44.578125 
Q 40.484375 46.53125 36.375 47.5 
Q 32.28125 48.484375 27.875 48.484375 
Q 21.1875 48.484375 17.84375 46.4375 
Q 14.5 44.390625 14.5 40.28125 
Q 14.5 37.15625 16.890625 35.375 
Q 19.28125 33.59375 26.515625 31.984375 
L 29.59375 31.296875 
Q 39.15625 29.25 43.1875 25.515625 
Q 47.21875 21.78125 47.21875 15.09375 
Q 47.21875 7.46875 41.1875 3.015625 
Q 35.15625 -1.421875 24.609375 -1.421875 
Q 20.21875 -1.421875 15.453125 -0.5625 
Q 10.6875 0.296875 5.421875 2 
L 5.421875 11.28125 
Q 10.40625 8.6875 15.234375 7.390625 
Q 20.0625 6.109375 24.8125 6.109375 
Q 31.15625 6.109375 34.5625 8.28125 
Q 37.984375 10.453125 37.984375 14.40625 
Q 37.984375 18.0625 35.515625 20.015625 
Q 33.0625 21.96875 24.703125 23.78125 
L 21.578125 24.515625 
Q 13.234375 26.265625 9.515625 29.90625 
Q 5.8125 33.546875 5.8125 39.890625 
Q 5.8125 47.609375 11.28125 51.796875 
Q 16.75 56 26.8125 56 
Q 31.78125 56 36.171875 55.265625 
Q 40.578125 54.546875 44.28125 53.078125 
z
" id="DejaVuSans-115"/>
     <path d="M 41.109375 46.296875 
Q 39.59375 47.171875 37.8125 47.578125 
Q 36.03125 48 33.890625 48 
Q 26.265625 48 22.1875 43.046875 
Q 18.109375 38.09375 18.109375 28.8125 
L 18.109375 0 
L 9.078125 0 
L 9.078125 54.6875 
L 18.109375 54.6875 
L 18.109375 46.1875 
Q 20.953125 51.171875 25.484375 53.578125 
Q 30.03125 56 36.53125 56 
Q 37.453125 56 38.578125 55.875 
Q 39.703125 55.765625 41.0625 55.515625 
z
" id="DejaVuSans-114"/>
     <path d="M 34.28125 27.484375 
Q 23.390625 27.484375 19.1875 25 
Q 14.984375 22.515625 14.984375 16.5 
Q 14.984375 11.71875 18.140625 8.90625 
Q 21.296875 6.109375 26.703125 6.109375 
Q 34.1875 6.109375 38.703125 11.40625 
Q 43.21875 16.703125 43.21875 25.484375 
L 43.21875 27.484375 
z
M 52.203125 31.203125 
L 52.203125 0 
L 43.21875 0 
L 43.21875 8.296875 
Q 40.140625 3.328125 35.546875 0.953125 
Q 30.953125 -1.421875 24.3125 -1.421875 
Q 15.921875 -1.421875 10.953125 3.296875 
Q 6 8.015625 6 15.921875 
Q 6 25.140625 12.171875 29.828125 
Q 18.359375 34.515625 30.609375 34.515625 
L 43.21875 34.515625 
L 43.21875 35.40625 
Q 43.21875 41.609375 39.140625 45 
Q 35.0625 48.390625 27.6875 48.390625 
Q 23 48.390625 18.546875 47.265625 
Q 14.109375 46.140625 10.015625 43.890625 
L 10.015625 52.203125 
Q 14.9375 54.109375 19.578125 55.046875 
Q 24.21875 56 28.609375 56 
Q 40.484375 56 46.34375 49.84375 
Q 52.203125 43.703125 52.203125 31.203125 
z
" id="DejaVuSans-97"/>
     <path d="M 18.109375 8.203125 
L 18.109375 -20.796875 
L 9.078125 -20.796875 
L 9.078125 54.6875 
L 18.109375 54.6875 
L 18.109375 46.390625 
Q 20.953125 51.265625 25.265625 53.625 
Q 29.59375 56 35.59375 56 
Q 45.5625 56 51.78125 48.09375 
Q 58.015625 40.1875 58.015625 27.296875 
Q 58.015625 14.40625 51.78125 6.484375 
Q 45.5625 -1.421875 35.59375 -1.421875 
Q 29.59375 -1.421875 25.265625 0.953125 
Q 20.953125 3.328125 18.109375 8.203125 
z
M 48.6875 27.296875 
Q 48.6875 37.203125 44.609375 42.84375 
Q 40.53125 48.484375 33.40625 48.484375 
Q 26.265625 48.484375 22.1875 42.84375 
Q 18.109375 37.203125 18.109375 27.296875 
Q 18.109375 17.390625 22.1875 11.75 
Q 26.265625 6.109375 33.40625 6.109375 
Q 40.53125 6.109375 44.609375 11.75 
Q 48.6875 17.390625 48.6875 27.296875 
z
" id="DejaVuSans-112"/>
     <path d="M 56.203125 29.59375 
L 56.203125 25.203125 
L 14.890625 25.203125 
Q 15.484375 15.921875 20.484375 11.0625 
Q 25.484375 6.203125 34.421875 6.203125 
Q 39.59375 6.203125 44.453125 7.46875 
Q 49.3125 8.734375 54.109375 11.28125 
L 54.109375 2.78125 
Q 49.265625 0.734375 44.1875 -0.34375 
Q 39.109375 -1.421875 33.890625 -1.421875 
Q 20.796875 -1.421875 13.15625 6.1875 
Q 5.515625 13.8125 5.515625 26.8125 
Q 5.515625 40.234375 12.765625 48.109375 
Q 20.015625 56 32.328125 56 
Q 43.359375 56 49.78125 48.890625 
Q 56.203125 41.796875 56.203125 29.59375 
z
M 47.21875 32.234375 
Q 47.125 39.59375 43.09375 43.984375 
Q 39.0625 48.390625 32.421875 48.390625 
Q 24.90625 48.390625 20.390625 44.140625 
Q 15.875 39.890625 15.1875 32.171875 
z
" id="DejaVuSans-101"/>
     <path d="M 45.40625 46.390625 
L 45.40625 75.984375 
L 54.390625 75.984375 
L 54.390625 0 
L 45.40625 0 
L 45.40625 8.203125 
Q 42.578125 3.328125 38.25 0.953125 
Q 33.9375 -1.421875 27.875 -1.421875 
Q 17.96875 -1.421875 11.734375 6.484375 
Q 5.515625 14.40625 5.515625 27.296875 
Q 5.515625 40.1875 11.734375 48.09375 
Q 17.96875 56 27.875 56 
Q 33.9375 56 38.25 53.625 
Q 42.578125 51.265625 45.40625 46.390625 
z
M 14.796875 27.296875 
Q 14.796875 17.390625 18.875 11.75 
Q 22.953125 6.109375 30.078125 6.109375 
Q 37.203125 6.109375 41.296875 11.75 
Q 45.40625 17.390625 45.40625 27.296875 
Q 45.40625 37.203125 41.296875 42.84375 
Q 37.203125 48.484375 30.078125 48.484375 
Q 22.953125 48.484375 18.875 42.84375 
Q 14.796875 37.203125 14.796875 27.296875 
z
" id="DejaVuSans-100"/>
     <path id="DejaVuSans-32"/>
     <path d="M 9.8125 72.90625 
L 24.515625 72.90625 
L 43.109375 23.296875 
L 61.8125 72.90625 
L 76.515625 72.90625 
L 76.515625 0 
L 66.890625 0 
L 66.890625 64.015625 
L 48.09375 14.015625 
L 38.1875 14.015625 
L 19.390625 64.015625 
L 19.390625 0 
L 9.8125 0 
z
" id="DejaVuSans-77"/>
     <path d="M 54.890625 33.015625 
L 54.890625 0 
L 45.90625 0 
L 45.90625 32.71875 
Q 45.90625 40.484375 42.875 44.328125 
Q 39.84375 48.1875 33.796875 48.1875 
Q 26.515625 48.1875 22.3125 43.546875 
Q 18.109375 38.921875 18.109375 30.90625 
L 18.109375 0 
L 9.078125 0 
L 9.078125 54.6875 
L 18.109375 54.6875 
L 18.109375 46.1875 
Q 21.34375 51.125 25.703125 53.5625 
Q 30.078125 56 35.796875 56 
Q 45.21875 56 50.046875 50.171875 
Q 54.890625 44.34375 54.890625 33.015625 
z
" id="DejaVuSans-110"/>
     <path d="M 28.609375 0 
L 0.78125 72.90625 
L 11.078125 72.90625 
L 34.1875 11.53125 
L 57.328125 72.90625 
L 67.578125 72.90625 
L 39.796875 0 
z
" id="DejaVuSans-86"/>
     <path d="M 9.421875 75.984375 
L 18.40625 75.984375 
L 18.40625 0 
L 9.421875 0 
z
" id="DejaVuSans-108"/>
     <path d="M 8.5 21.578125 
L 8.5 54.6875 
L 17.484375 54.6875 
L 17.484375 21.921875 
Q 17.484375 14.15625 20.5 10.265625 
Q 23.53125 6.390625 29.59375 6.390625 
Q 36.859375 6.390625 41.078125 11.03125 
Q 45.3125 15.671875 45.3125 23.6875 
L 45.3125 54.6875 
L 54.296875 54.6875 
L 54.296875 0 
L 45.3125 0 
L 45.3125 8.40625 
Q 42.046875 3.421875 37.71875 1 
Q 33.40625 -1.421875 27.6875 -1.421875 
Q 18.265625 -1.421875 13.375 4.4375 
Q 8.5 10.296875 8.5 21.578125 
z
M 31.109375 56 
z
" id="DejaVuSans-117"/>
    </defs>
    <g transform="translate(235.098 63.12)scale(0.2016 -0.2016)">
     <use xlink:href="#DejaVuSans-66"/>
     <use x="68.603516" xlink:href="#DejaVuSans-111"/>
     <use x="129.785156" xlink:href="#DejaVuSans-111"/>
     <use x="190.966797" xlink:href="#DejaVuSans-116"/>
     <use x="230.175781" xlink:href="#DejaVuSans-115"/>
     <use x="282.275391" xlink:href="#DejaVuSans-116"/>
     <use x="321.484375" xlink:href="#DejaVuSans-114"/>
     <use x="362.597656" xlink:href="#DejaVuSans-97"/>
     <use x="423.876953" xlink:href="#DejaVuSans-112"/>
     <use x="487.353516" xlink:href="#DejaVuSans-112"/>
     <use x="550.830078" xlink:href="#DejaVuSans-101"/>
     <use x="612.353516" xlink:href="#DejaVuSans-100"/>
     <use x="675.830078" xlink:href="#DejaVuSans-32"/>
     <use x="707.617188" xlink:href="#DejaVuSans-77"/>
     <use x="793.896484" xlink:href="#DejaVuSans-101"/>
     <use x="855.419922" xlink:href="#DejaVuSans-97"/>
     <use x="916.699219" xlink:href="#DejaVuSans-110"/>
     <use x="980.078125" xlink:href="#DejaVuSans-32"/>
     <use x="1011.865234" xlink:href="#DejaVuSans-86"/>
     <use x="1080.164062" xlink:href="#DejaVuSans-97"/>
     <use x="1141.443359" xlink:href="#DejaVuSans-108"/>
     <use x="1169.226562" xlink:href="#DejaVuSans-117"/>
     <use x="1232.605469" xlink:href="#DejaVuSans-101"/>
     <use x="1294.128906" xlink:href="#DejaVuSans-115"/>
    </g>
   </g>
   <g id="legend_1">
    <g id="patch_53">
     <path d="M 450.7075 121.41875 
L 674.2 121.41875 
Q 677 121.41875 677 118.61875 
L 677 78.92 
Q 677 76.12 674.2 76.12 
L 450.7075 76.12 
Q 447.9075 76.12 447.9075 78.92 
L 447.9075 118.61875 
Q 447.9075 121.41875 450.7075 121.41875 
z
" style="fill:#ffffff;opacity:0.8;stroke:#cccccc;stroke-linejoin:miter;stroke-width:0.5;"/>
    </g>
    <g id="patch_54">
     <path d="M 453.5075 92.357812 
L 481.5075 92.357812 
L 481.5075 82.557812 
L 453.5075 82.557812 
z
" style="fill:#204fab;opacity:0.4;"/>
    </g>
    <g id="text_11">
     <!-- Bootstrapped Row Means -->
     <defs>
      <path d="M 44.390625 34.1875 
Q 47.5625 33.109375 50.5625 29.59375 
Q 53.5625 26.078125 56.59375 19.921875 
L 66.609375 0 
L 56 0 
L 46.6875 18.703125 
Q 43.0625 26.03125 39.671875 28.421875 
Q 36.28125 30.8125 30.421875 30.8125 
L 19.671875 30.8125 
L 19.671875 0 
L 9.8125 0 
L 9.8125 72.90625 
L 32.078125 72.90625 
Q 44.578125 72.90625 50.734375 67.671875 
Q 56.890625 62.453125 56.890625 51.90625 
Q 56.890625 45.015625 53.6875 40.46875 
Q 50.484375 35.9375 44.390625 34.1875 
z
M 19.671875 64.796875 
L 19.671875 38.921875 
L 32.078125 38.921875 
Q 39.203125 38.921875 42.84375 42.21875 
Q 46.484375 45.515625 46.484375 51.90625 
Q 46.484375 58.296875 42.84375 61.546875 
Q 39.203125 64.796875 32.078125 64.796875 
z
" id="DejaVuSans-82"/>
      <path d="M 4.203125 54.6875 
L 13.1875 54.6875 
L 24.421875 12.015625 
L 35.59375 54.6875 
L 46.1875 54.6875 
L 57.421875 12.015625 
L 68.609375 54.6875 
L 77.59375 54.6875 
L 63.28125 0 
L 52.6875 0 
L 40.921875 44.828125 
L 29.109375 0 
L 18.5 0 
z
" id="DejaVuSans-119"/>
     </defs>
     <g transform="translate(492.7075 92.357812)scale(0.14 -0.14)">
      <use xlink:href="#DejaVuSans-66"/>
      <use x="68.603516" xlink:href="#DejaVuSans-111"/>
      <use x="129.785156" xlink:href="#DejaVuSans-111"/>
      <use x="190.966797" xlink:href="#DejaVuSans-116"/>
      <use x="230.175781" xlink:href="#DejaVuSans-115"/>
      <use x="282.275391" xlink:href="#DejaVuSans-116"/>
      <use x="321.484375" xlink:href="#DejaVuSans-114"/>
      <use x="362.597656" xlink:href="#DejaVuSans-97"/>
      <use x="423.876953" xlink:href="#DejaVuSans-112"/>
      <use x="487.353516" xlink:href="#DejaVuSans-112"/>
      <use x="550.830078" xlink:href="#DejaVuSans-101"/>
      <use x="612.353516" xlink:href="#DejaVuSans-100"/>
      <use x="675.830078" xlink:href="#DejaVuSans-32"/>
      <use x="707.617188" xlink:href="#DejaVuSans-82"/>
      <use x="777.037109" xlink:href="#DejaVuSans-111"/>
      <use x="838.21875" xlink:href="#DejaVuSans-119"/>
      <use x="920.005859" xlink:href="#DejaVuSans-32"/>
      <use x="951.792969" xlink:href="#DejaVuSans-77"/>
      <use x="1038.072266" xlink:href="#DejaVuSans-101"/>
      <use x="1099.595703" xlink:href="#DejaVuSans-97"/>
      <use x="1160.875" xlink:href="#DejaVuSans-110"/>
      <use x="1224.253906" xlink:href="#DejaVuSans-115"/>
     </g>
    </g>
    <g id="patch_55">
     <path d="M 453.5075 112.907187 
L 481.5075 112.907187 
L 481.5075 103.107187 
L 453.5075 103.107187 
z
" style="fill:#bababa;opacity:0.4;"/>
    </g>
    <g id="text_12">
     <!-- Bootstrapped df Means -->
     <defs>
      <path d="M 37.109375 75.984375 
L 37.109375 68.5 
L 28.515625 68.5 
Q 23.6875 68.5 21.796875 66.546875 
Q 19.921875 64.59375 19.921875 59.515625 
L 19.921875 54.6875 
L 34.71875 54.6875 
L 34.71875 47.703125 
L 19.921875 47.703125 
L 19.921875 0 
L 10.890625 0 
L 10.890625 47.703125 
L 2.296875 47.703125 
L 2.296875 54.6875 
L 10.890625 54.6875 
L 10.890625 58.5 
Q 10.890625 67.625 15.140625 71.796875 
Q 19.390625 75.984375 28.609375 75.984375 
z
" id="DejaVuSans-102"/>
     </defs>
     <g transform="translate(492.7075 112.907187)scale(0.14 -0.14)">
      <use xlink:href="#DejaVuSans-66"/>
      <use x="68.603516" xlink:href="#DejaVuSans-111"/>
      <use x="129.785156" xlink:href="#DejaVuSans-111"/>
      <use x="190.966797" xlink:href="#DejaVuSans-116"/>
      <use x="230.175781" xlink:href="#DejaVuSans-115"/>
      <use x="282.275391" xlink:href="#DejaVuSans-116"/>
      <use x="321.484375" xlink:href="#DejaVuSans-114"/>
      <use x="362.597656" xlink:href="#DejaVuSans-97"/>
      <use x="423.876953" xlink:href="#DejaVuSans-112"/>
      <use x="487.353516" xlink:href="#DejaVuSans-112"/>
      <use x="550.830078" xlink:href="#DejaVuSans-101"/>
      <use x="612.353516" xlink:href="#DejaVuSans-100"/>
      <use x="675.830078" xlink:href="#DejaVuSans-32"/>
      <use x="707.617188" xlink:href="#DejaVuSans-100"/>
      <use x="771.09375" xlink:href="#DejaVuSans-102"/>
      <use x="806.298828" xlink:href="#DejaVuSans-32"/>
      <use x="838.085938" xlink:href="#DejaVuSans-77"/>
      <use x="924.365234" xlink:href="#DejaVuSans-101"/>
      <use x="985.888672" xlink:href="#DejaVuSans-97"/>
      <use x="1047.167969" xlink:href="#DejaVuSans-110"/>
      <use x="1110.546875" xlink:href="#DejaVuSans-115"/>
     </g>
    </g>
   </g>
  </g>
 </g>
 <defs>
  <clipPath id="p3583ae12dd">
   <rect height="466.56" width="626.4" x="57.6" y="69.12"/>
  </clipPath>
 </defs>
</svg>
