<?xml version="1.0" encoding="utf-8" standalone="no"?>
<!DOCTYPE svg PUBLIC "-//W3C//DTD SVG 1.1//EN"
  "http://www.w3.org/Graphics/SVG/1.1/DTD/svg11.dtd">
<!-- Created with matplotlib (https://matplotlib.org/) -->
<svg height="288pt" version="1.1" viewBox="0 0 432 288" width="432pt" xmlns="http://www.w3.org/2000/svg" xmlns:xlink="http://www.w3.org/1999/xlink">
 <defs>
  <style type="text/css">
*{stroke-linecap:butt;stroke-linejoin:round;}
  </style>
 </defs>
 <g id="figure_1">
  <g id="patch_1">
   <path d="M 0 288 
L 432 288 
L 432 0 
L 0 0 
z
" style="fill:#f0f0f0;"/>
  </g>
  <g id="axes_1">
   <g id="patch_2">
    <path d="M 34.56 267.84 
L 410.4 267.84 
L 410.4 34.56 
L 34.56 34.56 
z
" style="fill:#ffffff;"/>
   </g>
   <g id="matplotlib.axis_1"/>
   <g id="matplotlib.axis_2">
    <g id="ytick_1">
     <g id="line2d_1">
      <path clip-path="url(#p096d0a5b44)" d="M 34.56 267.84 
L 410.4 267.84 
" style="fill:none;stroke:#cbcbcb;"/>
     </g>
     <g id="line2d_2"/>
     <g id="text_1">
      <!-- 0 -->
      <defs>
       <path d="M 31.78125 66.40625 
Q 24.171875 66.40625 20.328125 58.90625 
Q 16.5 51.421875 16.5 36.375 
Q 16.5 21.390625 20.328125 13.890625 
Q 24.171875 6.390625 31.78125 6.390625 
Q 39.453125 6.390625 43.28125 13.890625 
Q 47.125 21.390625 47.125 36.375 
Q 47.125 51.421875 43.28125 58.90625 
Q 39.453125 66.40625 31.78125 66.40625 
z
M 31.78125 74.21875 
Q 44.046875 74.21875 50.515625 64.515625 
Q 56.984375 54.828125 56.984375 36.375 
Q 56.984375 17.96875 50.515625 8.265625 
Q 44.046875 -1.421875 31.78125 -1.421875 
Q 19.53125 -1.421875 13.0625 8.265625 
Q 6.59375 17.96875 6.59375 36.375 
Q 6.59375 54.828125 13.0625 64.515625 
Q 19.53125 74.21875 31.78125 74.21875 
z
" id="DejaVuSans-48"/>
      </defs>
      <g transform="translate(22.1525 273.158906)scale(0.14 -0.14)">
       <use xlink:href="#DejaVuSans-48"/>
      </g>
     </g>
    </g>
    <g id="ytick_2">
     <g id="line2d_3">
      <path clip-path="url(#p096d0a5b44)" d="M 34.56 213.842083 
L 410.4 213.842083 
" style="fill:none;stroke:#cbcbcb;"/>
     </g>
     <g id="line2d_4"/>
     <g id="text_2">
      <!-- 100000 -->
      <defs>
       <path d="M 12.40625 8.296875 
L 28.515625 8.296875 
L 28.515625 63.921875 
L 10.984375 60.40625 
L 10.984375 69.390625 
L 28.421875 72.90625 
L 38.28125 72.90625 
L 38.28125 8.296875 
L 54.390625 8.296875 
L 54.390625 0 
L 12.40625 0 
z
" id="DejaVuSans-49"/>
      </defs>
      <g transform="translate(-22.385 219.16099)scale(0.14 -0.14)">
       <use xlink:href="#DejaVuSans-49"/>
       <use x="63.623047" xlink:href="#DejaVuSans-48"/>
       <use x="127.246094" xlink:href="#DejaVuSans-48"/>
       <use x="190.869141" xlink:href="#DejaVuSans-48"/>
       <use x="254.492188" xlink:href="#DejaVuSans-48"/>
       <use x="318.115234" xlink:href="#DejaVuSans-48"/>
      </g>
     </g>
    </g>
    <g id="ytick_3">
     <g id="line2d_5">
      <path clip-path="url(#p096d0a5b44)" d="M 34.56 159.844167 
L 410.4 159.844167 
" style="fill:none;stroke:#cbcbcb;"/>
     </g>
     <g id="line2d_6"/>
     <g id="text_3">
      <!-- 200000 -->
      <defs>
       <path d="M 19.1875 8.296875 
L 53.609375 8.296875 
L 53.609375 0 
L 7.328125 0 
L 7.328125 8.296875 
Q 12.9375 14.109375 22.625 23.890625 
Q 32.328125 33.6875 34.8125 36.53125 
Q 39.546875 41.84375 41.421875 45.53125 
Q 43.3125 49.21875 43.3125 52.78125 
Q 43.3125 58.59375 39.234375 62.25 
Q 35.15625 65.921875 28.609375 65.921875 
Q 23.96875 65.921875 18.8125 64.3125 
Q 13.671875 62.703125 7.8125 59.421875 
L 7.8125 69.390625 
Q 13.765625 71.78125 18.9375 73 
Q 24.125 74.21875 28.421875 74.21875 
Q 39.75 74.21875 46.484375 68.546875 
Q 53.21875 62.890625 53.21875 53.421875 
Q 53.21875 48.921875 51.53125 44.890625 
Q 49.859375 40.875 45.40625 35.40625 
Q 44.1875 33.984375 37.640625 27.21875 
Q 31.109375 20.453125 19.1875 8.296875 
z
" id="DejaVuSans-50"/>
      </defs>
      <g transform="translate(-22.385 165.163073)scale(0.14 -0.14)">
       <use xlink:href="#DejaVuSans-50"/>
       <use x="63.623047" xlink:href="#DejaVuSans-48"/>
       <use x="127.246094" xlink:href="#DejaVuSans-48"/>
       <use x="190.869141" xlink:href="#DejaVuSans-48"/>
       <use x="254.492188" xlink:href="#DejaVuSans-48"/>
       <use x="318.115234" xlink:href="#DejaVuSans-48"/>
      </g>
     </g>
    </g>
    <g id="ytick_4">
     <g id="line2d_7">
      <path clip-path="url(#p096d0a5b44)" d="M 34.56 105.84625 
L 410.4 105.84625 
" style="fill:none;stroke:#cbcbcb;"/>
     </g>
     <g id="line2d_8"/>
     <g id="text_4">
      <!-- 300000 -->
      <defs>
       <path d="M 40.578125 39.3125 
Q 47.65625 37.796875 51.625 33 
Q 55.609375 28.21875 55.609375 21.1875 
Q 55.609375 10.40625 48.1875 4.484375 
Q 40.765625 -1.421875 27.09375 -1.421875 
Q 22.515625 -1.421875 17.65625 -0.515625 
Q 12.796875 0.390625 7.625 2.203125 
L 7.625 11.71875 
Q 11.71875 9.328125 16.59375 8.109375 
Q 21.484375 6.890625 26.8125 6.890625 
Q 36.078125 6.890625 40.9375 10.546875 
Q 45.796875 14.203125 45.796875 21.1875 
Q 45.796875 27.640625 41.28125 31.265625 
Q 36.765625 34.90625 28.71875 34.90625 
L 20.21875 34.90625 
L 20.21875 43.015625 
L 29.109375 43.015625 
Q 36.375 43.015625 40.234375 45.921875 
Q 44.09375 48.828125 44.09375 54.296875 
Q 44.09375 59.90625 40.109375 62.90625 
Q 36.140625 65.921875 28.71875 65.921875 
Q 24.65625 65.921875 20.015625 65.03125 
Q 15.375 64.15625 9.8125 62.3125 
L 9.8125 71.09375 
Q 15.4375 72.65625 20.34375 73.4375 
Q 25.25 74.21875 29.59375 74.21875 
Q 40.828125 74.21875 47.359375 69.109375 
Q 53.90625 64.015625 53.90625 55.328125 
Q 53.90625 49.265625 50.4375 45.09375 
Q 46.96875 40.921875 40.578125 39.3125 
z
" id="DejaVuSans-51"/>
      </defs>
      <g transform="translate(-22.385 111.165156)scale(0.14 -0.14)">
       <use xlink:href="#DejaVuSans-51"/>
       <use x="63.623047" xlink:href="#DejaVuSans-48"/>
       <use x="127.246094" xlink:href="#DejaVuSans-48"/>
       <use x="190.869141" xlink:href="#DejaVuSans-48"/>
       <use x="254.492188" xlink:href="#DejaVuSans-48"/>
       <use x="318.115234" xlink:href="#DejaVuSans-48"/>
      </g>
     </g>
    </g>
    <g id="ytick_5">
     <g id="line2d_9">
      <path clip-path="url(#p096d0a5b44)" d="M 34.56 51.848333 
L 410.4 51.848333 
" style="fill:none;stroke:#cbcbcb;"/>
     </g>
     <g id="line2d_10"/>
     <g id="text_5">
      <!-- 400000 -->
      <defs>
       <path d="M 37.796875 64.3125 
L 12.890625 25.390625 
L 37.796875 25.390625 
z
M 35.203125 72.90625 
L 47.609375 72.90625 
L 47.609375 25.390625 
L 58.015625 25.390625 
L 58.015625 17.1875 
L 47.609375 17.1875 
L 47.609375 0 
L 37.796875 0 
L 37.796875 17.1875 
L 4.890625 17.1875 
L 4.890625 26.703125 
z
" id="DejaVuSans-52"/>
      </defs>
      <g transform="translate(-22.385 57.167239)scale(0.14 -0.14)">
       <use xlink:href="#DejaVuSans-52"/>
       <use x="63.623047" xlink:href="#DejaVuSans-48"/>
       <use x="127.246094" xlink:href="#DejaVuSans-48"/>
       <use x="190.869141" xlink:href="#DejaVuSans-48"/>
       <use x="254.492188" xlink:href="#DejaVuSans-48"/>
       <use x="318.115234" xlink:href="#DejaVuSans-48"/>
      </g>
     </g>
    </g>
   </g>
   <g id="patch_3">
    <path clip-path="url(#p096d0a5b44)" d="M 78.037104 267.84 
L 86.766333 267.84 
L 86.766333 256.800426 
L 78.037104 256.800426 
z
" style="fill:#204fab;opacity:0.4;"/>
   </g>
   <g id="patch_4">
    <path clip-path="url(#p096d0a5b44)" d="M 86.766333 267.84 
L 95.495562 267.84 
L 95.495562 267.150027 
L 86.766333 267.150027 
z
" style="fill:#204fab;opacity:0.4;"/>
   </g>
   <g id="patch_5">
    <path clip-path="url(#p096d0a5b44)" d="M 95.495562 267.84 
L 104.22479 267.84 
L 104.22479 232.651358 
L 95.495562 232.651358 
z
" style="fill:#204fab;opacity:0.4;"/>
   </g>
   <g id="patch_6">
    <path clip-path="url(#p096d0a5b44)" d="M 104.22479 267.84 
L 112.954019 267.84 
L 112.954019 265.77008 
L 104.22479 265.77008 
z
" style="fill:#204fab;opacity:0.4;"/>
   </g>
   <g id="patch_7">
    <path clip-path="url(#p096d0a5b44)" d="M 112.954019 267.84 
L 121.683248 267.84 
L 121.683248 267.84 
L 112.954019 267.84 
z
" style="fill:#204fab;opacity:0.4;"/>
   </g>
   <g id="patch_8">
    <path clip-path="url(#p096d0a5b44)" d="M 121.683248 267.84 
L 130.412476 267.84 
L 130.412476 168.483833 
L 121.683248 168.483833 
z
" style="fill:#204fab;opacity:0.4;"/>
   </g>
   <g id="patch_9">
    <path clip-path="url(#p096d0a5b44)" d="M 130.412476 267.84 
L 139.141705 267.84 
L 139.141705 258.870346 
L 130.412476 258.870346 
z
" style="fill:#204fab;opacity:0.4;"/>
   </g>
   <g id="patch_10">
    <path clip-path="url(#p096d0a5b44)" d="M 139.141705 267.84 
L 147.870934 267.84 
L 147.870934 105.696256 
L 139.141705 105.696256 
z
" style="fill:#204fab;opacity:0.4;"/>
   </g>
   <g id="patch_11">
    <path clip-path="url(#p096d0a5b44)" d="M 147.870934 267.84 
L 156.600163 267.84 
L 156.600163 261.63024 
L 147.870934 261.63024 
z
" style="fill:#204fab;opacity:0.4;"/>
   </g>
   <g id="patch_12">
    <path clip-path="url(#p096d0a5b44)" d="M 156.600163 267.84 
L 165.329391 267.84 
L 165.329391 267.84 
L 156.600163 267.84 
z
" style="fill:#204fab;opacity:0.4;"/>
   </g>
   <g id="patch_13">
    <path clip-path="url(#p096d0a5b44)" d="M 165.329391 267.84 
L 174.05862 267.84 
L 174.05862 144.334765 
L 165.329391 144.334765 
z
" style="fill:#204fab;opacity:0.4;"/>
   </g>
   <g id="patch_14">
    <path clip-path="url(#p096d0a5b44)" d="M 174.05862 267.84 
L 182.787849 267.84 
L 182.787849 262.320213 
L 174.05862 262.320213 
z
" style="fill:#204fab;opacity:0.4;"/>
   </g>
   <g id="patch_15">
    <path clip-path="url(#p096d0a5b44)" d="M 182.787849 267.84 
L 191.517077 267.84 
L 191.517077 158.824206 
L 182.787849 158.824206 
z
" style="fill:#204fab;opacity:0.4;"/>
   </g>
   <g id="patch_16">
    <path clip-path="url(#p096d0a5b44)" d="M 191.517077 267.84 
L 200.246306 267.84 
L 200.246306 267.84 
L 191.517077 267.84 
z
" style="fill:#204fab;opacity:0.4;"/>
   </g>
   <g id="patch_17">
    <path clip-path="url(#p096d0a5b44)" d="M 200.246306 267.84 
L 208.975535 267.84 
L 208.975535 263.010186 
L 200.246306 263.010186 
z
" style="fill:#204fab;opacity:0.4;"/>
   </g>
   <g id="patch_18">
    <path clip-path="url(#p096d0a5b44)" d="M 208.975535 267.84 
L 217.704763 267.84 
L 217.704763 198.152689 
L 208.975535 198.152689 
z
" style="fill:#204fab;opacity:0.4;"/>
   </g>
   <g id="patch_19">
    <path clip-path="url(#p096d0a5b44)" d="M 217.704763 267.84 
L 226.433992 267.84 
L 226.433992 265.77008 
L 217.704763 265.77008 
z
" style="fill:#204fab;opacity:0.4;"/>
   </g>
   <g id="patch_20">
    <path clip-path="url(#p096d0a5b44)" d="M 226.433992 267.84 
L 235.163221 267.84 
L 235.163221 235.411251 
L 226.433992 235.411251 
z
" style="fill:#204fab;opacity:0.4;"/>
   </g>
   <g id="patch_21">
    <path clip-path="url(#p096d0a5b44)" d="M 235.163221 267.84 
L 243.892449 267.84 
L 243.892449 267.84 
L 235.163221 267.84 
z
" style="fill:#204fab;opacity:0.4;"/>
   </g>
   <g id="patch_22">
    <path clip-path="url(#p096d0a5b44)" d="M 243.892449 267.84 
L 252.621678 267.84 
L 252.621678 267.150027 
L 243.892449 267.150027 
z
" style="fill:#204fab;opacity:0.4;"/>
   </g>
   <g id="patch_23">
    <path clip-path="url(#p096d0a5b44)" d="M 252.621678 267.84 
L 261.350907 267.84 
L 261.350907 254.730506 
L 252.621678 254.730506 
z
" style="fill:#204fab;opacity:0.4;"/>
   </g>
   <g id="patch_24">
    <path clip-path="url(#p096d0a5b44)" d="M 261.350907 267.84 
L 270.080135 267.84 
L 270.080135 267.84 
L 261.350907 267.84 
z
" style="fill:#204fab;opacity:0.4;"/>
   </g>
   <g id="patch_25">
    <path clip-path="url(#p096d0a5b44)" d="M 270.080135 267.84 
L 278.809364 267.84 
L 278.809364 264.390133 
L 270.080135 264.390133 
z
" style="fill:#204fab;opacity:0.4;"/>
   </g>
   <g id="patch_26">
    <path clip-path="url(#p096d0a5b44)" d="M 167.26922 267.84 
L 175.998449 267.84 
L 175.998449 264.390133 
L 167.26922 264.390133 
z
" style="fill:#bababa;opacity:0.4;"/>
   </g>
   <g id="patch_27">
    <path clip-path="url(#p096d0a5b44)" d="M 175.998449 267.84 
L 184.727677 267.84 
L 184.727677 267.84 
L 175.998449 267.84 
z
" style="fill:#bababa;opacity:0.4;"/>
   </g>
   <g id="patch_28">
    <path clip-path="url(#p096d0a5b44)" d="M 184.727677 267.84 
L 193.456906 267.84 
L 193.456906 253.350559 
L 184.727677 253.350559 
z
" style="fill:#bababa;opacity:0.4;"/>
   </g>
   <g id="patch_29">
    <path clip-path="url(#p096d0a5b44)" d="M 193.456906 267.84 
L 202.186135 267.84 
L 202.186135 267.84 
L 193.456906 267.84 
z
" style="fill:#bababa;opacity:0.4;"/>
   </g>
   <g id="patch_30">
    <path clip-path="url(#p096d0a5b44)" d="M 202.186135 267.84 
L 210.915363 267.84 
L 210.915363 267.84 
L 202.186135 267.84 
z
" style="fill:#bababa;opacity:0.4;"/>
   </g>
   <g id="patch_31">
    <path clip-path="url(#p096d0a5b44)" d="M 210.915363 267.84 
L 219.644592 267.84 
L 219.644592 216.091996 
L 210.915363 216.091996 
z
" style="fill:#bababa;opacity:0.4;"/>
   </g>
   <g id="patch_32">
    <path clip-path="url(#p096d0a5b44)" d="M 219.644592 267.84 
L 228.373821 267.84 
L 228.373821 267.84 
L 219.644592 267.84 
z
" style="fill:#bababa;opacity:0.4;"/>
   </g>
   <g id="patch_33">
    <path clip-path="url(#p096d0a5b44)" d="M 228.373821 267.84 
L 237.103049 267.84 
L 237.103049 147.094658 
L 228.373821 147.094658 
z
" style="fill:#bababa;opacity:0.4;"/>
   </g>
   <g id="patch_34">
    <path clip-path="url(#p096d0a5b44)" d="M 237.103049 267.84 
L 245.832278 267.84 
L 245.832278 267.84 
L 237.103049 267.84 
z
" style="fill:#bababa;opacity:0.4;"/>
   </g>
   <g id="patch_35">
    <path clip-path="url(#p096d0a5b44)" d="M 245.832278 267.84 
L 254.561507 267.84 
L 254.561507 267.84 
L 245.832278 267.84 
z
" style="fill:#bababa;opacity:0.4;"/>
   </g>
   <g id="patch_36">
    <path clip-path="url(#p096d0a5b44)" d="M 254.561507 267.84 
L 263.290735 267.84 
L 263.290735 117.425803 
L 254.561507 117.425803 
z
" style="fill:#bababa;opacity:0.4;"/>
   </g>
   <g id="patch_37">
    <path clip-path="url(#p096d0a5b44)" d="M 263.290735 267.84 
L 272.019964 267.84 
L 272.019964 267.84 
L 263.290735 267.84 
z
" style="fill:#bababa;opacity:0.4;"/>
   </g>
   <g id="patch_38">
    <path clip-path="url(#p096d0a5b44)" d="M 272.019964 267.84 
L 280.749193 267.84 
L 280.749193 45.668571 
L 272.019964 45.668571 
z
" style="fill:#bababa;opacity:0.4;"/>
   </g>
   <g id="patch_39">
    <path clip-path="url(#p096d0a5b44)" d="M 280.749193 267.84 
L 289.478421 267.84 
L 289.478421 267.84 
L 280.749193 267.84 
z
" style="fill:#bababa;opacity:0.4;"/>
   </g>
   <g id="patch_40">
    <path clip-path="url(#p096d0a5b44)" d="M 289.478421 267.84 
L 298.20765 267.84 
L 298.20765 267.84 
L 289.478421 267.84 
z
" style="fill:#bababa;opacity:0.4;"/>
   </g>
   <g id="patch_41">
    <path clip-path="url(#p096d0a5b44)" d="M 298.20765 267.84 
L 306.936879 267.84 
L 306.936879 177.453487 
L 298.20765 177.453487 
z
" style="fill:#bababa;opacity:0.4;"/>
   </g>
   <g id="patch_42">
    <path clip-path="url(#p096d0a5b44)" d="M 306.936879 267.84 
L 315.666108 267.84 
L 315.666108 267.84 
L 306.936879 267.84 
z
" style="fill:#bababa;opacity:0.4;"/>
   </g>
   <g id="patch_43">
    <path clip-path="url(#p096d0a5b44)" d="M 315.666108 267.84 
L 324.395336 267.84 
L 324.395336 236.791198 
L 315.666108 236.791198 
z
" style="fill:#bababa;opacity:0.4;"/>
   </g>
   <g id="patch_44">
    <path clip-path="url(#p096d0a5b44)" d="M 324.395336 267.84 
L 333.124565 267.84 
L 333.124565 267.84 
L 324.395336 267.84 
z
" style="fill:#bababa;opacity:0.4;"/>
   </g>
   <g id="patch_45">
    <path clip-path="url(#p096d0a5b44)" d="M 333.124565 267.84 
L 341.853794 267.84 
L 341.853794 267.84 
L 333.124565 267.84 
z
" style="fill:#bababa;opacity:0.4;"/>
   </g>
   <g id="patch_46">
    <path clip-path="url(#p096d0a5b44)" d="M 341.853794 267.84 
L 350.583022 267.84 
L 350.583022 263.010186 
L 341.853794 263.010186 
z
" style="fill:#bababa;opacity:0.4;"/>
   </g>
   <g id="patch_47">
    <path clip-path="url(#p096d0a5b44)" d="M 350.583022 267.84 
L 359.312251 267.84 
L 359.312251 267.84 
L 350.583022 267.84 
z
" style="fill:#bababa;opacity:0.4;"/>
   </g>
   <g id="patch_48">
    <path clip-path="url(#p096d0a5b44)" d="M 359.312251 267.84 
L 368.04148 267.84 
L 368.04148 267.150027 
L 359.312251 267.150027 
z
" style="fill:#bababa;opacity:0.4;"/>
   </g>
   <g id="line2d_11">
    <path clip-path="url(#p096d0a5b44)" d="M 51.643636 267.780374 
L 55.636695 267.659849 
L 59.629753 267.335687 
L 63.622811 266.676019 
L 67.615869 265.636354 
L 73.605456 263.806431 
L 77.598515 262.874626 
L 83.588102 261.719213 
L 85.584631 261.087112 
L 87.58116 260.193601 
L 89.577689 259.01656 
L 93.570747 256.061139 
L 95.567277 254.54249 
L 97.563806 253.187027 
L 99.560335 252.074359 
L 105.549922 249.355694 
L 107.546451 247.894489 
L 109.54298 245.731951 
L 111.539509 242.763196 
L 113.536038 239.079594 
L 117.529097 230.905402 
L 119.525626 227.346463 
L 121.522155 224.682047 
L 123.518684 223.06134 
L 125.515213 222.331478 
L 127.511742 222.054956 
L 129.508271 221.619406 
L 131.5048 220.4145 
L 133.50133 218.026687 
L 135.497859 214.392224 
L 141.487446 201.041546 
L 143.483975 198.448053 
L 145.480504 197.855765 
L 147.477033 199.334661 
L 149.473562 202.47427 
L 153.466621 210.458197 
L 155.46315 213.539405 
L 157.459679 215.235572 
L 159.456208 215.49207 
L 161.452737 214.686291 
L 163.449266 213.4868 
L 165.445795 212.632718 
L 167.442324 212.702101 
L 169.438853 213.939443 
L 171.435382 216.19262 
L 175.428441 221.626957 
L 177.42497 223.530809 
L 179.421499 224.300575 
L 181.418028 223.900935 
L 183.414557 222.654806 
L 185.411086 221.142834 
L 187.407615 220.027827 
L 189.404144 219.859209 
L 191.400673 220.91716 
L 193.397203 223.142166 
L 195.393732 226.167754 
L 197.390261 229.441596 
L 199.38679 232.393795 
L 201.383319 234.599306 
L 203.379848 235.886935 
L 205.376377 236.366859 
L 209.369435 236.356211 
L 211.365964 236.727174 
L 213.362494 237.757279 
L 215.359023 239.50404 
L 217.355552 241.815183 
L 221.34861 246.884185 
L 223.345139 248.999343 
L 225.341668 250.570718 
L 227.338197 251.590858 
L 229.334726 252.192228 
L 233.327785 253.01641 
L 235.324314 253.640762 
L 237.320843 254.541264 
L 239.317372 255.689669 
L 243.31043 258.250098 
L 245.306959 259.37427 
L 247.303488 260.258218 
L 249.300017 260.880368 
L 251.296546 261.28449 
L 257.286134 262.105689 
L 261.279192 263.024521 
L 267.268779 264.768552 
L 271.261837 265.599054 
L 275.254896 266.035559 
L 285.237541 266.770512 
L 293.223658 267.4773 
L 299.213245 267.741683 
L 305.202832 267.798175 
L 305.202832 267.798175 
" style="fill:none;stroke:#204fab;stroke-width:4;"/>
   </g>
   <g id="line2d_12">
    <path clip-path="url(#p096d0a5b44)" d="M 141.994336 267.821392 
L 149.90999 267.664571 
L 155.846731 267.265481 
L 167.720213 266.215226 
L 171.67804 265.966492 
L 173.656954 265.756746 
L 175.635867 265.431587 
L 177.614781 264.964251 
L 181.572608 263.64823 
L 185.530435 262.207635 
L 187.509349 261.622561 
L 191.467176 260.815281 
L 193.44609 260.439662 
L 195.425003 259.883778 
L 197.403917 258.976043 
L 199.38283 257.589319 
L 201.361744 255.693202 
L 203.340658 253.386097 
L 207.298485 248.510336 
L 209.277398 246.53946 
L 211.256312 245.171395 
L 213.235226 244.411968 
L 217.193053 243.655897 
L 219.171966 242.744972 
L 221.15088 240.859613 
L 223.129794 237.755124 
L 225.108707 233.506323 
L 229.066534 223.546573 
L 231.045448 219.334705 
L 233.024362 216.58034 
L 235.003275 215.627472 
L 236.982189 216.355887 
L 238.961102 218.183266 
L 240.940016 220.208591 
L 242.91893 221.461046 
L 244.897843 221.183158 
L 246.876757 219.06284 
L 248.85567 215.340713 
L 252.813498 206.319746 
L 254.792411 203.030417 
L 256.771325 201.52629 
L 258.750239 201.872238 
L 260.729152 203.500131 
L 262.708066 205.350316 
L 264.686979 206.178357 
L 266.665893 204.940901 
L 268.644807 201.146315 
L 270.62372 195.061034 
L 274.581547 180.597938 
L 276.560461 175.403909 
L 278.539375 173.443061 
L 280.518288 175.351983 
L 282.497202 180.916213 
L 284.476115 189.151279 
L 288.433943 207.711268 
L 290.412856 215.278685 
L 292.39177 220.65203 
L 294.370683 223.838128 
L 296.349597 225.387396 
L 300.307424 227.020782 
L 302.286338 228.634728 
L 304.265251 231.280204 
L 306.244165 234.850904 
L 310.201992 243.030675 
L 312.180906 246.613568 
L 314.159819 249.376335 
L 316.138733 251.237629 
L 318.117647 252.338267 
L 320.09656 252.967577 
L 322.075474 253.46132 
L 324.054387 254.104403 
L 326.033301 255.064546 
L 328.012215 256.369963 
L 335.927869 262.500738 
L 337.906783 263.558555 
L 339.885696 264.320487 
L 341.86461 264.836716 
L 345.822437 265.4479 
L 361.653746 267.287548 
L 367.590487 267.486747 
L 391.33745 267.829592 
L 393.316364 267.828348 
L 393.316364 267.828348 
" style="fill:none;stroke:#bababa;stroke-width:4;"/>
   </g>
   <g id="patch_49">
    <path d="M 34.56 267.84 
L 34.56 34.56 
" style="fill:none;stroke:#f0f0f0;stroke-linecap:square;stroke-linejoin:miter;stroke-width:3;"/>
   </g>
   <g id="patch_50">
    <path d="M 410.4 267.84 
L 410.4 34.56 
" style="fill:none;stroke:#f0f0f0;stroke-linecap:square;stroke-linejoin:miter;stroke-width:3;"/>
   </g>
   <g id="patch_51">
    <path d="M 34.56 267.84 
L 410.4 267.84 
" style="fill:none;stroke:#f0f0f0;stroke-linecap:square;stroke-linejoin:miter;stroke-width:3;"/>
   </g>
   <g id="patch_52">
    <path d="M 34.56 34.56 
L 410.4 34.56 
" style="fill:none;stroke:#f0f0f0;stroke-linecap:square;stroke-linejoin:miter;stroke-width:3;"/>
   </g>
   <g id="text_6">
    <!-- Bootstrap Median Values -->
    <defs>
     <path d="M 19.671875 34.8125 
L 19.671875 8.109375 
L 35.5 8.109375 
Q 43.453125 8.109375 47.28125 11.40625 
Q 51.125 14.703125 51.125 21.484375 
Q 51.125 28.328125 47.28125 31.5625 
Q 43.453125 34.8125 35.5 34.8125 
z
M 19.671875 64.796875 
L 19.671875 42.828125 
L 34.28125 42.828125 
Q 41.5 42.828125 45.03125 45.53125 
Q 48.578125 48.25 48.578125 53.8125 
Q 48.578125 59.328125 45.03125 62.0625 
Q 41.5 64.796875 34.28125 64.796875 
z
M 9.8125 72.90625 
L 35.015625 72.90625 
Q 46.296875 72.90625 52.390625 68.21875 
Q 58.5 63.53125 58.5 54.890625 
Q 58.5 48.1875 55.375 44.234375 
Q 52.25 40.28125 46.1875 39.3125 
Q 53.46875 37.75 57.5 32.78125 
Q 61.53125 27.828125 61.53125 20.40625 
Q 61.53125 10.640625 54.890625 5.3125 
Q 48.25 0 35.984375 0 
L 9.8125 0 
z
" id="DejaVuSans-66"/>
     <path d="M 30.609375 48.390625 
Q 23.390625 48.390625 19.1875 42.75 
Q 14.984375 37.109375 14.984375 27.296875 
Q 14.984375 17.484375 19.15625 11.84375 
Q 23.34375 6.203125 30.609375 6.203125 
Q 37.796875 6.203125 41.984375 11.859375 
Q 46.1875 17.53125 46.1875 27.296875 
Q 46.1875 37.015625 41.984375 42.703125 
Q 37.796875 48.390625 30.609375 48.390625 
z
M 30.609375 56 
Q 42.328125 56 49.015625 48.375 
Q 55.71875 40.765625 55.71875 27.296875 
Q 55.71875 13.875 49.015625 6.21875 
Q 42.328125 -1.421875 30.609375 -1.421875 
Q 18.84375 -1.421875 12.171875 6.21875 
Q 5.515625 13.875 5.515625 27.296875 
Q 5.515625 40.765625 12.171875 48.375 
Q 18.84375 56 30.609375 56 
z
" id="DejaVuSans-111"/>
     <path d="M 18.3125 70.21875 
L 18.3125 54.6875 
L 36.8125 54.6875 
L 36.8125 47.703125 
L 18.3125 47.703125 
L 18.3125 18.015625 
Q 18.3125 11.328125 20.140625 9.421875 
Q 21.96875 7.515625 27.59375 7.515625 
L 36.8125 7.515625 
L 36.8125 0 
L 27.59375 0 
Q 17.1875 0 13.234375 3.875 
Q 9.28125 7.765625 9.28125 18.015625 
L 9.28125 47.703125 
L 2.6875 47.703125 
L 2.6875 54.6875 
L 9.28125 54.6875 
L 9.28125 70.21875 
z
" id="DejaVuSans-116"/>
     <path d="M 44.28125 53.078125 
L 44.28125 44.578125 
Q 40.484375 46.53125 36.375 47.5 
Q 32.28125 48.484375 27.875 48.484375 
Q 21.1875 48.484375 17.84375 46.4375 
Q 14.5 44.390625 14.5 40.28125 
Q 14.5 37.15625 16.890625 35.375 
Q 19.28125 33.59375 26.515625 31.984375 
L 29.59375 31.296875 
Q 39.15625 29.25 43.1875 25.515625 
Q 47.21875 21.78125 47.21875 15.09375 
Q 47.21875 7.46875 41.1875 3.015625 
Q 35.15625 -1.421875 24.609375 -1.421875 
Q 20.21875 -1.421875 15.453125 -0.5625 
Q 10.6875 0.296875 5.421875 2 
L 5.421875 11.28125 
Q 10.40625 8.6875 15.234375 7.390625 
Q 20.0625 6.109375 24.8125 6.109375 
Q 31.15625 6.109375 34.5625 8.28125 
Q 37.984375 10.453125 37.984375 14.40625 
Q 37.984375 18.0625 35.515625 20.015625 
Q 33.0625 21.96875 24.703125 23.78125 
L 21.578125 24.515625 
Q 13.234375 26.265625 9.515625 29.90625 
Q 5.8125 33.546875 5.8125 39.890625 
Q 5.8125 47.609375 11.28125 51.796875 
Q 16.75 56 26.8125 56 
Q 31.78125 56 36.171875 55.265625 
Q 40.578125 54.546875 44.28125 53.078125 
z
" id="DejaVuSans-115"/>
     <path d="M 41.109375 46.296875 
Q 39.59375 47.171875 37.8125 47.578125 
Q 36.03125 48 33.890625 48 
Q 26.265625 48 22.1875 43.046875 
Q 18.109375 38.09375 18.109375 28.8125 
L 18.109375 0 
L 9.078125 0 
L 9.078125 54.6875 
L 18.109375 54.6875 
L 18.109375 46.1875 
Q 20.953125 51.171875 25.484375 53.578125 
Q 30.03125 56 36.53125 56 
Q 37.453125 56 38.578125 55.875 
Q 39.703125 55.765625 41.0625 55.515625 
z
" id="DejaVuSans-114"/>
     <path d="M 34.28125 27.484375 
Q 23.390625 27.484375 19.1875 25 
Q 14.984375 22.515625 14.984375 16.5 
Q 14.984375 11.71875 18.140625 8.90625 
Q 21.296875 6.109375 26.703125 6.109375 
Q 34.1875 6.109375 38.703125 11.40625 
Q 43.21875 16.703125 43.21875 25.484375 
L 43.21875 27.484375 
z
M 52.203125 31.203125 
L 52.203125 0 
L 43.21875 0 
L 43.21875 8.296875 
Q 40.140625 3.328125 35.546875 0.953125 
Q 30.953125 -1.421875 24.3125 -1.421875 
Q 15.921875 -1.421875 10.953125 3.296875 
Q 6 8.015625 6 15.921875 
Q 6 25.140625 12.171875 29.828125 
Q 18.359375 34.515625 30.609375 34.515625 
L 43.21875 34.515625 
L 43.21875 35.40625 
Q 43.21875 41.609375 39.140625 45 
Q 35.0625 48.390625 27.6875 48.390625 
Q 23 48.390625 18.546875 47.265625 
Q 14.109375 46.140625 10.015625 43.890625 
L 10.015625 52.203125 
Q 14.9375 54.109375 19.578125 55.046875 
Q 24.21875 56 28.609375 56 
Q 40.484375 56 46.34375 49.84375 
Q 52.203125 43.703125 52.203125 31.203125 
z
" id="DejaVuSans-97"/>
     <path d="M 18.109375 8.203125 
L 18.109375 -20.796875 
L 9.078125 -20.796875 
L 9.078125 54.6875 
L 18.109375 54.6875 
L 18.109375 46.390625 
Q 20.953125 51.265625 25.265625 53.625 
Q 29.59375 56 35.59375 56 
Q 45.5625 56 51.78125 48.09375 
Q 58.015625 40.1875 58.015625 27.296875 
Q 58.015625 14.40625 51.78125 6.484375 
Q 45.5625 -1.421875 35.59375 -1.421875 
Q 29.59375 -1.421875 25.265625 0.953125 
Q 20.953125 3.328125 18.109375 8.203125 
z
M 48.6875 27.296875 
Q 48.6875 37.203125 44.609375 42.84375 
Q 40.53125 48.484375 33.40625 48.484375 
Q 26.265625 48.484375 22.1875 42.84375 
Q 18.109375 37.203125 18.109375 27.296875 
Q 18.109375 17.390625 22.1875 11.75 
Q 26.265625 6.109375 33.40625 6.109375 
Q 40.53125 6.109375 44.609375 11.75 
Q 48.6875 17.390625 48.6875 27.296875 
z
" id="DejaVuSans-112"/>
     <path id="DejaVuSans-32"/>
     <path d="M 9.8125 72.90625 
L 24.515625 72.90625 
L 43.109375 23.296875 
L 61.8125 72.90625 
L 76.515625 72.90625 
L 76.515625 0 
L 66.890625 0 
L 66.890625 64.015625 
L 48.09375 14.015625 
L 38.1875 14.015625 
L 19.390625 64.015625 
L 19.390625 0 
L 9.8125 0 
z
" id="DejaVuSans-77"/>
     <path d="M 56.203125 29.59375 
L 56.203125 25.203125 
L 14.890625 25.203125 
Q 15.484375 15.921875 20.484375 11.0625 
Q 25.484375 6.203125 34.421875 6.203125 
Q 39.59375 6.203125 44.453125 7.46875 
Q 49.3125 8.734375 54.109375 11.28125 
L 54.109375 2.78125 
Q 49.265625 0.734375 44.1875 -0.34375 
Q 39.109375 -1.421875 33.890625 -1.421875 
Q 20.796875 -1.421875 13.15625 6.1875 
Q 5.515625 13.8125 5.515625 26.8125 
Q 5.515625 40.234375 12.765625 48.109375 
Q 20.015625 56 32.328125 56 
Q 43.359375 56 49.78125 48.890625 
Q 56.203125 41.796875 56.203125 29.59375 
z
M 47.21875 32.234375 
Q 47.125 39.59375 43.09375 43.984375 
Q 39.0625 48.390625 32.421875 48.390625 
Q 24.90625 48.390625 20.390625 44.140625 
Q 15.875 39.890625 15.1875 32.171875 
z
" id="DejaVuSans-101"/>
     <path d="M 45.40625 46.390625 
L 45.40625 75.984375 
L 54.390625 75.984375 
L 54.390625 0 
L 45.40625 0 
L 45.40625 8.203125 
Q 42.578125 3.328125 38.25 0.953125 
Q 33.9375 -1.421875 27.875 -1.421875 
Q 17.96875 -1.421875 11.734375 6.484375 
Q 5.515625 14.40625 5.515625 27.296875 
Q 5.515625 40.1875 11.734375 48.09375 
Q 17.96875 56 27.875 56 
Q 33.9375 56 38.25 53.625 
Q 42.578125 51.265625 45.40625 46.390625 
z
M 14.796875 27.296875 
Q 14.796875 17.390625 18.875 11.75 
Q 22.953125 6.109375 30.078125 6.109375 
Q 37.203125 6.109375 41.296875 11.75 
Q 45.40625 17.390625 45.40625 27.296875 
Q 45.40625 37.203125 41.296875 42.84375 
Q 37.203125 48.484375 30.078125 48.484375 
Q 22.953125 48.484375 18.875 42.84375 
Q 14.796875 37.203125 14.796875 27.296875 
z
" id="DejaVuSans-100"/>
     <path d="M 9.421875 54.6875 
L 18.40625 54.6875 
L 18.40625 0 
L 9.421875 0 
z
M 9.421875 75.984375 
L 18.40625 75.984375 
L 18.40625 64.59375 
L 9.421875 64.59375 
z
" id="DejaVuSans-105"/>
     <path d="M 54.890625 33.015625 
L 54.890625 0 
L 45.90625 0 
L 45.90625 32.71875 
Q 45.90625 40.484375 42.875 44.328125 
Q 39.84375 48.1875 33.796875 48.1875 
Q 26.515625 48.1875 22.3125 43.546875 
Q 18.109375 38.921875 18.109375 30.90625 
L 18.109375 0 
L 9.078125 0 
L 9.078125 54.6875 
L 18.109375 54.6875 
L 18.109375 46.1875 
Q 21.34375 51.125 25.703125 53.5625 
Q 30.078125 56 35.796875 56 
Q 45.21875 56 50.046875 50.171875 
Q 54.890625 44.34375 54.890625 33.015625 
z
" id="DejaVuSans-110"/>
     <path d="M 28.609375 0 
L 0.78125 72.90625 
L 11.078125 72.90625 
L 34.1875 11.53125 
L 57.328125 72.90625 
L 67.578125 72.90625 
L 39.796875 0 
z
" id="DejaVuSans-86"/>
     <path d="M 9.421875 75.984375 
L 18.40625 75.984375 
L 18.40625 0 
L 9.421875 0 
z
" id="DejaVuSans-108"/>
     <path d="M 8.5 21.578125 
L 8.5 54.6875 
L 17.484375 54.6875 
L 17.484375 21.921875 
Q 17.484375 14.15625 20.5 10.265625 
Q 23.53125 6.390625 29.59375 6.390625 
Q 36.859375 6.390625 41.078125 11.03125 
Q 45.3125 15.671875 45.3125 23.6875 
L 45.3125 54.6875 
L 54.296875 54.6875 
L 54.296875 0 
L 45.3125 0 
L 45.3125 8.40625 
Q 42.046875 3.421875 37.71875 1 
Q 33.40625 -1.421875 27.6875 -1.421875 
Q 18.265625 -1.421875 13.375 4.4375 
Q 8.5 10.296875 8.5 21.578125 
z
M 31.109375 56 
z
" id="DejaVuSans-117"/>
    </defs>
    <g transform="translate(96.579225 28.56)scale(0.2016 -0.2016)">
     <use xlink:href="#DejaVuSans-66"/>
     <use x="68.603516" xlink:href="#DejaVuSans-111"/>
     <use x="129.785156" xlink:href="#DejaVuSans-111"/>
     <use x="190.966797" xlink:href="#DejaVuSans-116"/>
     <use x="230.175781" xlink:href="#DejaVuSans-115"/>
     <use x="282.275391" xlink:href="#DejaVuSans-116"/>
     <use x="321.484375" xlink:href="#DejaVuSans-114"/>
     <use x="362.597656" xlink:href="#DejaVuSans-97"/>
     <use x="423.876953" xlink:href="#DejaVuSans-112"/>
     <use x="487.353516" xlink:href="#DejaVuSans-32"/>
     <use x="519.140625" xlink:href="#DejaVuSans-77"/>
     <use x="605.419922" xlink:href="#DejaVuSans-101"/>
     <use x="666.943359" xlink:href="#DejaVuSans-100"/>
     <use x="730.419922" xlink:href="#DejaVuSans-105"/>
     <use x="758.203125" xlink:href="#DejaVuSans-97"/>
     <use x="819.482422" xlink:href="#DejaVuSans-110"/>
     <use x="882.861328" xlink:href="#DejaVuSans-32"/>
     <use x="914.648438" xlink:href="#DejaVuSans-86"/>
     <use x="982.947266" xlink:href="#DejaVuSans-97"/>
     <use x="1044.226562" xlink:href="#DejaVuSans-108"/>
     <use x="1072.009766" xlink:href="#DejaVuSans-117"/>
     <use x="1135.388672" xlink:href="#DejaVuSans-101"/>
     <use x="1196.912109" xlink:href="#DejaVuSans-115"/>
    </g>
   </g>
  </g>
 </g>
 <defs>
  <clipPath id="p096d0a5b44">
   <rect height="233.28" width="375.84" x="34.56" y="34.56"/>
  </clipPath>
 </defs>
</svg>
