<?xml version="1.0" encoding="utf-8" standalone="no"?>
<!DOCTYPE svg PUBLIC "-//W3C//DTD SVG 1.1//EN"
  "http://www.w3.org/Graphics/SVG/1.1/DTD/svg11.dtd">
<!-- Created with matplotlib (https://matplotlib.org/) -->
<svg height="288pt" version="1.1" viewBox="0 0 432 288" width="432pt" xmlns="http://www.w3.org/2000/svg" xmlns:xlink="http://www.w3.org/1999/xlink">
 <defs>
  <style type="text/css">
*{stroke-linecap:butt;stroke-linejoin:round;}
  </style>
 </defs>
 <g id="figure_1">
  <g id="patch_1">
   <path d="M 0 288 
L 432 288 
L 432 0 
L 0 0 
z
" style="fill:#f0f0f0;"/>
  </g>
  <g id="axes_1">
   <g id="patch_2">
    <path d="M 34.56 267.84 
L 410.4 267.84 
L 410.4 34.56 
L 34.56 34.56 
z
" style="fill:#ffffff;"/>
   </g>
   <g id="matplotlib.axis_1">
    <g id="xtick_1">
     <g id="line2d_1">
      <path clip-path="url(#pb295589bce)" d="M 83.703608 267.84 
L 83.703608 34.56 
" style="fill:none;stroke:#cbcbcb;"/>
     </g>
     <g id="line2d_2"/>
     <g id="text_1">
      <!-- −2 -->
      <defs>
       <path d="M 10.59375 35.5 
L 73.1875 35.5 
L 73.1875 27.203125 
L 10.59375 27.203125 
z
" id="DejaVuSans-8722"/>
       <path d="M 19.1875 8.296875 
L 53.609375 8.296875 
L 53.609375 0 
L 7.328125 0 
L 7.328125 8.296875 
Q 12.9375 14.109375 22.625 23.890625 
Q 32.328125 33.6875 34.8125 36.53125 
Q 39.546875 41.84375 41.421875 45.53125 
Q 43.3125 49.21875 43.3125 52.78125 
Q 43.3125 58.59375 39.234375 62.25 
Q 35.15625 65.921875 28.609375 65.921875 
Q 23.96875 65.921875 18.8125 64.3125 
Q 13.671875 62.703125 7.8125 59.421875 
L 7.8125 69.390625 
Q 13.765625 71.78125 18.9375 73 
Q 24.125 74.21875 28.421875 74.21875 
Q 39.75 74.21875 46.484375 68.546875 
Q 53.21875 62.890625 53.21875 53.421875 
Q 53.21875 48.921875 51.53125 44.890625 
Q 49.859375 40.875 45.40625 35.40625 
Q 44.1875 33.984375 37.640625 27.21875 
Q 31.109375 20.453125 19.1875 8.296875 
z
" id="DejaVuSans-50"/>
      </defs>
      <g transform="translate(73.384077 281.977813)scale(0.14 -0.14)">
       <use xlink:href="#DejaVuSans-8722"/>
       <use x="83.789062" xlink:href="#DejaVuSans-50"/>
      </g>
     </g>
    </g>
    <g id="xtick_2">
     <g id="line2d_3">
      <path clip-path="url(#pb295589bce)" d="M 153.091804 267.84 
L 153.091804 34.56 
" style="fill:none;stroke:#cbcbcb;"/>
     </g>
     <g id="line2d_4"/>
     <g id="text_2">
      <!-- −1 -->
      <defs>
       <path d="M 12.40625 8.296875 
L 28.515625 8.296875 
L 28.515625 63.921875 
L 10.984375 60.40625 
L 10.984375 69.390625 
L 28.421875 72.90625 
L 38.28125 72.90625 
L 38.28125 8.296875 
L 54.390625 8.296875 
L 54.390625 0 
L 12.40625 0 
z
" id="DejaVuSans-49"/>
      </defs>
      <g transform="translate(142.772273 281.977813)scale(0.14 -0.14)">
       <use xlink:href="#DejaVuSans-8722"/>
       <use x="83.789062" xlink:href="#DejaVuSans-49"/>
      </g>
     </g>
    </g>
    <g id="xtick_3">
     <g id="line2d_5">
      <path clip-path="url(#pb295589bce)" d="M 222.48 267.84 
L 222.48 34.56 
" style="fill:none;stroke:#cbcbcb;"/>
     </g>
     <g id="line2d_6"/>
     <g id="text_3">
      <!-- 0 -->
      <defs>
       <path d="M 31.78125 66.40625 
Q 24.171875 66.40625 20.328125 58.90625 
Q 16.5 51.421875 16.5 36.375 
Q 16.5 21.390625 20.328125 13.890625 
Q 24.171875 6.390625 31.78125 6.390625 
Q 39.453125 6.390625 43.28125 13.890625 
Q 47.125 21.390625 47.125 36.375 
Q 47.125 51.421875 43.28125 58.90625 
Q 39.453125 66.40625 31.78125 66.40625 
z
M 31.78125 74.21875 
Q 44.046875 74.21875 50.515625 64.515625 
Q 56.984375 54.828125 56.984375 36.375 
Q 56.984375 17.96875 50.515625 8.265625 
Q 44.046875 -1.421875 31.78125 -1.421875 
Q 19.53125 -1.421875 13.0625 8.265625 
Q 6.59375 17.96875 6.59375 36.375 
Q 6.59375 54.828125 13.0625 64.515625 
Q 19.53125 74.21875 31.78125 74.21875 
z
" id="DejaVuSans-48"/>
      </defs>
      <g transform="translate(218.02625 281.977813)scale(0.14 -0.14)">
       <use xlink:href="#DejaVuSans-48"/>
      </g>
     </g>
    </g>
    <g id="xtick_4">
     <g id="line2d_7">
      <path clip-path="url(#pb295589bce)" d="M 291.868196 267.84 
L 291.868196 34.56 
" style="fill:none;stroke:#cbcbcb;"/>
     </g>
     <g id="line2d_8"/>
     <g id="text_4">
      <!-- 1 -->
      <g transform="translate(287.414446 281.977813)scale(0.14 -0.14)">
       <use xlink:href="#DejaVuSans-49"/>
      </g>
     </g>
    </g>
    <g id="xtick_5">
     <g id="line2d_9">
      <path clip-path="url(#pb295589bce)" d="M 361.256392 267.84 
L 361.256392 34.56 
" style="fill:none;stroke:#cbcbcb;"/>
     </g>
     <g id="line2d_10"/>
     <g id="text_5">
      <!-- 2 -->
      <g transform="translate(356.802642 281.977813)scale(0.14 -0.14)">
       <use xlink:href="#DejaVuSans-50"/>
      </g>
     </g>
    </g>
    <g id="text_6">
     <!-- Theoretical quantiles -->
     <defs>
      <path d="M -0.296875 72.90625 
L 61.375 72.90625 
L 61.375 64.59375 
L 35.5 64.59375 
L 35.5 0 
L 25.59375 0 
L 25.59375 64.59375 
L -0.296875 64.59375 
z
" id="DejaVuSans-84"/>
      <path d="M 54.890625 33.015625 
L 54.890625 0 
L 45.90625 0 
L 45.90625 32.71875 
Q 45.90625 40.484375 42.875 44.328125 
Q 39.84375 48.1875 33.796875 48.1875 
Q 26.515625 48.1875 22.3125 43.546875 
Q 18.109375 38.921875 18.109375 30.90625 
L 18.109375 0 
L 9.078125 0 
L 9.078125 75.984375 
L 18.109375 75.984375 
L 18.109375 46.1875 
Q 21.34375 51.125 25.703125 53.5625 
Q 30.078125 56 35.796875 56 
Q 45.21875 56 50.046875 50.171875 
Q 54.890625 44.34375 54.890625 33.015625 
z
" id="DejaVuSans-104"/>
      <path d="M 56.203125 29.59375 
L 56.203125 25.203125 
L 14.890625 25.203125 
Q 15.484375 15.921875 20.484375 11.0625 
Q 25.484375 6.203125 34.421875 6.203125 
Q 39.59375 6.203125 44.453125 7.46875 
Q 49.3125 8.734375 54.109375 11.28125 
L 54.109375 2.78125 
Q 49.265625 0.734375 44.1875 -0.34375 
Q 39.109375 -1.421875 33.890625 -1.421875 
Q 20.796875 -1.421875 13.15625 6.1875 
Q 5.515625 13.8125 5.515625 26.8125 
Q 5.515625 40.234375 12.765625 48.109375 
Q 20.015625 56 32.328125 56 
Q 43.359375 56 49.78125 48.890625 
Q 56.203125 41.796875 56.203125 29.59375 
z
M 47.21875 32.234375 
Q 47.125 39.59375 43.09375 43.984375 
Q 39.0625 48.390625 32.421875 48.390625 
Q 24.90625 48.390625 20.390625 44.140625 
Q 15.875 39.890625 15.1875 32.171875 
z
" id="DejaVuSans-101"/>
      <path d="M 30.609375 48.390625 
Q 23.390625 48.390625 19.1875 42.75 
Q 14.984375 37.109375 14.984375 27.296875 
Q 14.984375 17.484375 19.15625 11.84375 
Q 23.34375 6.203125 30.609375 6.203125 
Q 37.796875 6.203125 41.984375 11.859375 
Q 46.1875 17.53125 46.1875 27.296875 
Q 46.1875 37.015625 41.984375 42.703125 
Q 37.796875 48.390625 30.609375 48.390625 
z
M 30.609375 56 
Q 42.328125 56 49.015625 48.375 
Q 55.71875 40.765625 55.71875 27.296875 
Q 55.71875 13.875 49.015625 6.21875 
Q 42.328125 -1.421875 30.609375 -1.421875 
Q 18.84375 -1.421875 12.171875 6.21875 
Q 5.515625 13.875 5.515625 27.296875 
Q 5.515625 40.765625 12.171875 48.375 
Q 18.84375 56 30.609375 56 
z
" id="DejaVuSans-111"/>
      <path d="M 41.109375 46.296875 
Q 39.59375 47.171875 37.8125 47.578125 
Q 36.03125 48 33.890625 48 
Q 26.265625 48 22.1875 43.046875 
Q 18.109375 38.09375 18.109375 28.8125 
L 18.109375 0 
L 9.078125 0 
L 9.078125 54.6875 
L 18.109375 54.6875 
L 18.109375 46.1875 
Q 20.953125 51.171875 25.484375 53.578125 
Q 30.03125 56 36.53125 56 
Q 37.453125 56 38.578125 55.875 
Q 39.703125 55.765625 41.0625 55.515625 
z
" id="DejaVuSans-114"/>
      <path d="M 18.3125 70.21875 
L 18.3125 54.6875 
L 36.8125 54.6875 
L 36.8125 47.703125 
L 18.3125 47.703125 
L 18.3125 18.015625 
Q 18.3125 11.328125 20.140625 9.421875 
Q 21.96875 7.515625 27.59375 7.515625 
L 36.8125 7.515625 
L 36.8125 0 
L 27.59375 0 
Q 17.1875 0 13.234375 3.875 
Q 9.28125 7.765625 9.28125 18.015625 
L 9.28125 47.703125 
L 2.6875 47.703125 
L 2.6875 54.6875 
L 9.28125 54.6875 
L 9.28125 70.21875 
z
" id="DejaVuSans-116"/>
      <path d="M 9.421875 54.6875 
L 18.40625 54.6875 
L 18.40625 0 
L 9.421875 0 
z
M 9.421875 75.984375 
L 18.40625 75.984375 
L 18.40625 64.59375 
L 9.421875 64.59375 
z
" id="DejaVuSans-105"/>
      <path d="M 48.78125 52.59375 
L 48.78125 44.1875 
Q 44.96875 46.296875 41.140625 47.34375 
Q 37.3125 48.390625 33.40625 48.390625 
Q 24.65625 48.390625 19.8125 42.84375 
Q 14.984375 37.3125 14.984375 27.296875 
Q 14.984375 17.28125 19.8125 11.734375 
Q 24.65625 6.203125 33.40625 6.203125 
Q 37.3125 6.203125 41.140625 7.25 
Q 44.96875 8.296875 48.78125 10.40625 
L 48.78125 2.09375 
Q 45.015625 0.34375 40.984375 -0.53125 
Q 36.96875 -1.421875 32.421875 -1.421875 
Q 20.0625 -1.421875 12.78125 6.34375 
Q 5.515625 14.109375 5.515625 27.296875 
Q 5.515625 40.671875 12.859375 48.328125 
Q 20.21875 56 33.015625 56 
Q 37.15625 56 41.109375 55.140625 
Q 45.0625 54.296875 48.78125 52.59375 
z
" id="DejaVuSans-99"/>
      <path d="M 34.28125 27.484375 
Q 23.390625 27.484375 19.1875 25 
Q 14.984375 22.515625 14.984375 16.5 
Q 14.984375 11.71875 18.140625 8.90625 
Q 21.296875 6.109375 26.703125 6.109375 
Q 34.1875 6.109375 38.703125 11.40625 
Q 43.21875 16.703125 43.21875 25.484375 
L 43.21875 27.484375 
z
M 52.203125 31.203125 
L 52.203125 0 
L 43.21875 0 
L 43.21875 8.296875 
Q 40.140625 3.328125 35.546875 0.953125 
Q 30.953125 -1.421875 24.3125 -1.421875 
Q 15.921875 -1.421875 10.953125 3.296875 
Q 6 8.015625 6 15.921875 
Q 6 25.140625 12.171875 29.828125 
Q 18.359375 34.515625 30.609375 34.515625 
L 43.21875 34.515625 
L 43.21875 35.40625 
Q 43.21875 41.609375 39.140625 45 
Q 35.0625 48.390625 27.6875 48.390625 
Q 23 48.390625 18.546875 47.265625 
Q 14.109375 46.140625 10.015625 43.890625 
L 10.015625 52.203125 
Q 14.9375 54.109375 19.578125 55.046875 
Q 24.21875 56 28.609375 56 
Q 40.484375 56 46.34375 49.84375 
Q 52.203125 43.703125 52.203125 31.203125 
z
" id="DejaVuSans-97"/>
      <path d="M 9.421875 75.984375 
L 18.40625 75.984375 
L 18.40625 0 
L 9.421875 0 
z
" id="DejaVuSans-108"/>
      <path id="DejaVuSans-32"/>
      <path d="M 14.796875 27.296875 
Q 14.796875 17.390625 18.875 11.75 
Q 22.953125 6.109375 30.078125 6.109375 
Q 37.203125 6.109375 41.296875 11.75 
Q 45.40625 17.390625 45.40625 27.296875 
Q 45.40625 37.203125 41.296875 42.84375 
Q 37.203125 48.484375 30.078125 48.484375 
Q 22.953125 48.484375 18.875 42.84375 
Q 14.796875 37.203125 14.796875 27.296875 
z
M 45.40625 8.203125 
Q 42.578125 3.328125 38.25 0.953125 
Q 33.9375 -1.421875 27.875 -1.421875 
Q 17.96875 -1.421875 11.734375 6.484375 
Q 5.515625 14.40625 5.515625 27.296875 
Q 5.515625 40.1875 11.734375 48.09375 
Q 17.96875 56 27.875 56 
Q 33.9375 56 38.25 53.625 
Q 42.578125 51.265625 45.40625 46.390625 
L 45.40625 54.6875 
L 54.390625 54.6875 
L 54.390625 -20.796875 
L 45.40625 -20.796875 
z
" id="DejaVuSans-113"/>
      <path d="M 8.5 21.578125 
L 8.5 54.6875 
L 17.484375 54.6875 
L 17.484375 21.921875 
Q 17.484375 14.15625 20.5 10.265625 
Q 23.53125 6.390625 29.59375 6.390625 
Q 36.859375 6.390625 41.078125 11.03125 
Q 45.3125 15.671875 45.3125 23.6875 
L 45.3125 54.6875 
L 54.296875 54.6875 
L 54.296875 0 
L 45.3125 0 
L 45.3125 8.40625 
Q 42.046875 3.421875 37.71875 1 
Q 33.40625 -1.421875 27.6875 -1.421875 
Q 18.265625 -1.421875 13.375 4.4375 
Q 8.5 10.296875 8.5 21.578125 
z
M 31.109375 56 
z
" id="DejaVuSans-117"/>
      <path d="M 54.890625 33.015625 
L 54.890625 0 
L 45.90625 0 
L 45.90625 32.71875 
Q 45.90625 40.484375 42.875 44.328125 
Q 39.84375 48.1875 33.796875 48.1875 
Q 26.515625 48.1875 22.3125 43.546875 
Q 18.109375 38.921875 18.109375 30.90625 
L 18.109375 0 
L 9.078125 0 
L 9.078125 54.6875 
L 18.109375 54.6875 
L 18.109375 46.1875 
Q 21.34375 51.125 25.703125 53.5625 
Q 30.078125 56 35.796875 56 
Q 45.21875 56 50.046875 50.171875 
Q 54.890625 44.34375 54.890625 33.015625 
z
" id="DejaVuSans-110"/>
      <path d="M 44.28125 53.078125 
L 44.28125 44.578125 
Q 40.484375 46.53125 36.375 47.5 
Q 32.28125 48.484375 27.875 48.484375 
Q 21.1875 48.484375 17.84375 46.4375 
Q 14.5 44.390625 14.5 40.28125 
Q 14.5 37.15625 16.890625 35.375 
Q 19.28125 33.59375 26.515625 31.984375 
L 29.59375 31.296875 
Q 39.15625 29.25 43.1875 25.515625 
Q 47.21875 21.78125 47.21875 15.09375 
Q 47.21875 7.46875 41.1875 3.015625 
Q 35.15625 -1.421875 24.609375 -1.421875 
Q 20.21875 -1.421875 15.453125 -0.5625 
Q 10.6875 0.296875 5.421875 2 
L 5.421875 11.28125 
Q 10.40625 8.6875 15.234375 7.390625 
Q 20.0625 6.109375 24.8125 6.109375 
Q 31.15625 6.109375 34.5625 8.28125 
Q 37.984375 10.453125 37.984375 14.40625 
Q 37.984375 18.0625 35.515625 20.015625 
Q 33.0625 21.96875 24.703125 23.78125 
L 21.578125 24.515625 
Q 13.234375 26.265625 9.515625 29.90625 
Q 5.8125 33.546875 5.8125 39.890625 
Q 5.8125 47.609375 11.28125 51.796875 
Q 16.75 56 26.8125 56 
Q 31.78125 56 36.171875 55.265625 
Q 40.578125 54.546875 44.28125 53.078125 
z
" id="DejaVuSans-115"/>
     </defs>
     <g transform="translate(134.07 301.65475)scale(0.168 -0.168)">
      <use xlink:href="#DejaVuSans-84"/>
      <use x="61.083984" xlink:href="#DejaVuSans-104"/>
      <use x="124.462891" xlink:href="#DejaVuSans-101"/>
      <use x="185.986328" xlink:href="#DejaVuSans-111"/>
      <use x="247.167969" xlink:href="#DejaVuSans-114"/>
      <use x="288.25" xlink:href="#DejaVuSans-101"/>
      <use x="349.773438" xlink:href="#DejaVuSans-116"/>
      <use x="388.982422" xlink:href="#DejaVuSans-105"/>
      <use x="416.765625" xlink:href="#DejaVuSans-99"/>
      <use x="471.746094" xlink:href="#DejaVuSans-97"/>
      <use x="533.025391" xlink:href="#DejaVuSans-108"/>
      <use x="560.808594" xlink:href="#DejaVuSans-32"/>
      <use x="592.595703" xlink:href="#DejaVuSans-113"/>
      <use x="656.072266" xlink:href="#DejaVuSans-117"/>
      <use x="719.451172" xlink:href="#DejaVuSans-97"/>
      <use x="780.730469" xlink:href="#DejaVuSans-110"/>
      <use x="844.109375" xlink:href="#DejaVuSans-116"/>
      <use x="883.318359" xlink:href="#DejaVuSans-105"/>
      <use x="911.101562" xlink:href="#DejaVuSans-108"/>
      <use x="938.884766" xlink:href="#DejaVuSans-101"/>
      <use x="1000.408203" xlink:href="#DejaVuSans-115"/>
     </g>
    </g>
   </g>
   <g id="matplotlib.axis_2">
    <g id="ytick_1">
     <g id="line2d_11">
      <path clip-path="url(#pb295589bce)" d="M 34.56 240.658026 
L 410.4 240.658026 
" style="fill:none;stroke:#cbcbcb;"/>
     </g>
     <g id="line2d_12"/>
     <g id="text_7">
      <!-- −2 -->
      <g transform="translate(10.420938 245.976932)scale(0.14 -0.14)">
       <use xlink:href="#DejaVuSans-8722"/>
       <use x="83.789062" xlink:href="#DejaVuSans-50"/>
      </g>
     </g>
    </g>
    <g id="ytick_2">
     <g id="line2d_13">
      <path clip-path="url(#pb295589bce)" d="M 34.56 196.465388 
L 410.4 196.465388 
" style="fill:none;stroke:#cbcbcb;"/>
     </g>
     <g id="line2d_14"/>
     <g id="text_8">
      <!-- −1 -->
      <g transform="translate(10.420938 201.784295)scale(0.14 -0.14)">
       <use xlink:href="#DejaVuSans-8722"/>
       <use x="83.789062" xlink:href="#DejaVuSans-49"/>
      </g>
     </g>
    </g>
    <g id="ytick_3">
     <g id="line2d_15">
      <path clip-path="url(#pb295589bce)" d="M 34.56 152.272751 
L 410.4 152.272751 
" style="fill:none;stroke:#cbcbcb;"/>
     </g>
     <g id="line2d_16"/>
     <g id="text_9">
      <!-- 0 -->
      <g transform="translate(22.1525 157.591657)scale(0.14 -0.14)">
       <use xlink:href="#DejaVuSans-48"/>
      </g>
     </g>
    </g>
    <g id="ytick_4">
     <g id="line2d_17">
      <path clip-path="url(#pb295589bce)" d="M 34.56 108.080114 
L 410.4 108.080114 
" style="fill:none;stroke:#cbcbcb;"/>
     </g>
     <g id="line2d_18"/>
     <g id="text_10">
      <!-- 1 -->
      <g transform="translate(22.1525 113.39902)scale(0.14 -0.14)">
       <use xlink:href="#DejaVuSans-49"/>
      </g>
     </g>
    </g>
    <g id="ytick_5">
     <g id="line2d_19">
      <path clip-path="url(#pb295589bce)" d="M 34.56 63.887476 
L 410.4 63.887476 
" style="fill:none;stroke:#cbcbcb;"/>
     </g>
     <g id="line2d_20"/>
     <g id="text_11">
      <!-- 2 -->
      <g transform="translate(22.1525 69.206383)scale(0.14 -0.14)">
       <use xlink:href="#DejaVuSans-50"/>
      </g>
     </g>
    </g>
    <g id="text_12">
     <!-- Ordered Values -->
     <defs>
      <path d="M 39.40625 66.21875 
Q 28.65625 66.21875 22.328125 58.203125 
Q 16.015625 50.203125 16.015625 36.375 
Q 16.015625 22.609375 22.328125 14.59375 
Q 28.65625 6.59375 39.40625 6.59375 
Q 50.140625 6.59375 56.421875 14.59375 
Q 62.703125 22.609375 62.703125 36.375 
Q 62.703125 50.203125 56.421875 58.203125 
Q 50.140625 66.21875 39.40625 66.21875 
z
M 39.40625 74.21875 
Q 54.734375 74.21875 63.90625 63.9375 
Q 73.09375 53.65625 73.09375 36.375 
Q 73.09375 19.140625 63.90625 8.859375 
Q 54.734375 -1.421875 39.40625 -1.421875 
Q 24.03125 -1.421875 14.8125 8.828125 
Q 5.609375 19.09375 5.609375 36.375 
Q 5.609375 53.65625 14.8125 63.9375 
Q 24.03125 74.21875 39.40625 74.21875 
z
" id="DejaVuSans-79"/>
      <path d="M 45.40625 46.390625 
L 45.40625 75.984375 
L 54.390625 75.984375 
L 54.390625 0 
L 45.40625 0 
L 45.40625 8.203125 
Q 42.578125 3.328125 38.25 0.953125 
Q 33.9375 -1.421875 27.875 -1.421875 
Q 17.96875 -1.421875 11.734375 6.484375 
Q 5.515625 14.40625 5.515625 27.296875 
Q 5.515625 40.1875 11.734375 48.09375 
Q 17.96875 56 27.875 56 
Q 33.9375 56 38.25 53.625 
Q 42.578125 51.265625 45.40625 46.390625 
z
M 14.796875 27.296875 
Q 14.796875 17.390625 18.875 11.75 
Q 22.953125 6.109375 30.078125 6.109375 
Q 37.203125 6.109375 41.296875 11.75 
Q 45.40625 17.390625 45.40625 27.296875 
Q 45.40625 37.203125 41.296875 42.84375 
Q 37.203125 48.484375 30.078125 48.484375 
Q 22.953125 48.484375 18.875 42.84375 
Q 14.796875 37.203125 14.796875 27.296875 
z
" id="DejaVuSans-100"/>
      <path d="M 28.609375 0 
L 0.78125 72.90625 
L 11.078125 72.90625 
L 34.1875 11.53125 
L 57.328125 72.90625 
L 67.578125 72.90625 
L 39.796875 0 
z
" id="DejaVuSans-86"/>
     </defs>
     <g transform="translate(2.927062 216.47325)rotate(-90)scale(0.168 -0.168)">
      <use xlink:href="#DejaVuSans-79"/>
      <use x="78.710938" xlink:href="#DejaVuSans-114"/>
      <use x="119.808594" xlink:href="#DejaVuSans-100"/>
      <use x="183.285156" xlink:href="#DejaVuSans-101"/>
      <use x="244.808594" xlink:href="#DejaVuSans-114"/>
      <use x="285.890625" xlink:href="#DejaVuSans-101"/>
      <use x="347.414062" xlink:href="#DejaVuSans-100"/>
      <use x="410.890625" xlink:href="#DejaVuSans-32"/>
      <use x="442.677734" xlink:href="#DejaVuSans-86"/>
      <use x="510.976562" xlink:href="#DejaVuSans-97"/>
      <use x="572.255859" xlink:href="#DejaVuSans-108"/>
      <use x="600.039062" xlink:href="#DejaVuSans-117"/>
      <use x="663.417969" xlink:href="#DejaVuSans-101"/>
      <use x="724.941406" xlink:href="#DejaVuSans-115"/>
     </g>
    </g>
   </g>
   <g id="line2d_21">
    <defs>
     <path d="M 0 3 
C 0.795609 3 1.55874 2.683901 2.12132 2.12132 
C 2.683901 1.55874 3 0.795609 3 0 
C 3 -0.795609 2.683901 -1.55874 2.12132 -2.12132 
C 1.55874 -2.683901 0.795609 -3 0 -3 
C -0.795609 -3 -1.55874 -2.683901 -2.12132 -2.12132 
C -2.683901 -1.55874 -3 -0.795609 -3 0 
C -3 0.795609 -2.683901 1.55874 -2.12132 2.12132 
C -1.55874 2.683901 -0.795609 3 0 3 
z
" id="m1307d7a3bb" style="stroke:#0000ff;"/>
    </defs>
    <g clip-path="url(#pb295589bce)">
     <use style="fill:#0000ff;stroke:#0000ff;" x="51.643636" xlink:href="#m1307d7a3bb" y="253.856357"/>
     <use style="fill:#0000ff;stroke:#0000ff;" x="74.980993" xlink:href="#m1307d7a3bb" y="225.508943"/>
     <use style="fill:#0000ff;stroke:#0000ff;" x="88.475588" xlink:href="#m1307d7a3bb" y="219.167973"/>
     <use style="fill:#0000ff;stroke:#0000ff;" x="98.244145" xlink:href="#m1307d7a3bb" y="213.440223"/>
     <use style="fill:#0000ff;stroke:#0000ff;" x="106.033213" xlink:href="#m1307d7a3bb" y="209.159462"/>
     <use style="fill:#0000ff;stroke:#0000ff;" x="112.582197" xlink:href="#m1307d7a3bb" y="208.103438"/>
     <use style="fill:#0000ff;stroke:#0000ff;" x="118.276885" xlink:href="#m1307d7a3bb" y="205.742515"/>
     <use style="fill:#0000ff;stroke:#0000ff;" x="123.345263" xlink:href="#m1307d7a3bb" y="205.63458"/>
     <use style="fill:#0000ff;stroke:#0000ff;" x="127.933817" xlink:href="#m1307d7a3bb" y="205.338323"/>
     <use style="fill:#0000ff;stroke:#0000ff;" x="132.142529" xlink:href="#m1307d7a3bb" y="204.502809"/>
     <use style="fill:#0000ff;stroke:#0000ff;" x="136.042833" xlink:href="#m1307d7a3bb" y="204.2352"/>
     <use style="fill:#0000ff;stroke:#0000ff;" x="139.687639" xlink:href="#m1307d7a3bb" y="203.742633"/>
     <use style="fill:#0000ff;stroke:#0000ff;" x="143.117287" xlink:href="#m1307d7a3bb" y="203.155955"/>
     <use style="fill:#0000ff;stroke:#0000ff;" x="146.363279" xlink:href="#m1307d7a3bb" y="201.983123"/>
     <use style="fill:#0000ff;stroke:#0000ff;" x="149.450719" xlink:href="#m1307d7a3bb" y="197.920461"/>
     <use style="fill:#0000ff;stroke:#0000ff;" x="152.399957" xlink:href="#m1307d7a3bb" y="197.808782"/>
     <use style="fill:#0000ff;stroke:#0000ff;" x="155.227736" xlink:href="#m1307d7a3bb" y="197.613014"/>
     <use style="fill:#0000ff;stroke:#0000ff;" x="157.948011" xlink:href="#m1307d7a3bb" y="197.414946"/>
     <use style="fill:#0000ff;stroke:#0000ff;" x="160.57255" xlink:href="#m1307d7a3bb" y="196.466956"/>
     <use style="fill:#0000ff;stroke:#0000ff;" x="163.111376" xlink:href="#m1307d7a3bb" y="195.221259"/>
     <use style="fill:#0000ff;stroke:#0000ff;" x="165.573105" xlink:href="#m1307d7a3bb" y="193.880231"/>
     <use style="fill:#0000ff;stroke:#0000ff;" x="167.965208" xlink:href="#m1307d7a3bb" y="192.569186"/>
     <use style="fill:#0000ff;stroke:#0000ff;" x="170.294208" xlink:href="#m1307d7a3bb" y="192.041077"/>
     <use style="fill:#0000ff;stroke:#0000ff;" x="172.565846" xlink:href="#m1307d7a3bb" y="191.884475"/>
     <use style="fill:#0000ff;stroke:#0000ff;" x="174.785201" xlink:href="#m1307d7a3bb" y="190.542683"/>
     <use style="fill:#0000ff;stroke:#0000ff;" x="176.9568" xlink:href="#m1307d7a3bb" y="187.998038"/>
     <use style="fill:#0000ff;stroke:#0000ff;" x="179.084696" xlink:href="#m1307d7a3bb" y="187.16957"/>
     <use style="fill:#0000ff;stroke:#0000ff;" x="181.17254" xlink:href="#m1307d7a3bb" y="186.606935"/>
     <use style="fill:#0000ff;stroke:#0000ff;" x="183.223633" xlink:href="#m1307d7a3bb" y="186.219837"/>
     <use style="fill:#0000ff;stroke:#0000ff;" x="185.240983" xlink:href="#m1307d7a3bb" y="184.286788"/>
     <use style="fill:#0000ff;stroke:#0000ff;" x="187.227331" xlink:href="#m1307d7a3bb" y="183.787396"/>
     <use style="fill:#0000ff;stroke:#0000ff;" x="189.185199" xlink:href="#m1307d7a3bb" y="181.512628"/>
     <use style="fill:#0000ff;stroke:#0000ff;" x="191.116908" xlink:href="#m1307d7a3bb" y="178.775043"/>
     <use style="fill:#0000ff;stroke:#0000ff;" x="193.024608" xlink:href="#m1307d7a3bb" y="178.565479"/>
     <use style="fill:#0000ff;stroke:#0000ff;" x="194.910295" xlink:href="#m1307d7a3bb" y="174.778161"/>
     <use style="fill:#0000ff;stroke:#0000ff;" x="196.775834" xlink:href="#m1307d7a3bb" y="173.057699"/>
     <use style="fill:#0000ff;stroke:#0000ff;" x="198.622974" xlink:href="#m1307d7a3bb" y="170.998161"/>
     <use style="fill:#0000ff;stroke:#0000ff;" x="200.453358" xlink:href="#m1307d7a3bb" y="169.997374"/>
     <use style="fill:#0000ff;stroke:#0000ff;" x="202.26854" xlink:href="#m1307d7a3bb" y="169.866465"/>
     <use style="fill:#0000ff;stroke:#0000ff;" x="204.069992" xlink:href="#m1307d7a3bb" y="169.444277"/>
     <use style="fill:#0000ff;stroke:#0000ff;" x="205.859118" xlink:href="#m1307d7a3bb" y="167.877075"/>
     <use style="fill:#0000ff;stroke:#0000ff;" x="207.63726" xlink:href="#m1307d7a3bb" y="167.482301"/>
     <use style="fill:#0000ff;stroke:#0000ff;" x="209.405707" xlink:href="#m1307d7a3bb" y="167.467585"/>
     <use style="fill:#0000ff;stroke:#0000ff;" x="211.1657" xlink:href="#m1307d7a3bb" y="164.282579"/>
     <use style="fill:#0000ff;stroke:#0000ff;" x="212.918443" xlink:href="#m1307d7a3bb" y="163.022205"/>
     <use style="fill:#0000ff;stroke:#0000ff;" x="214.665106" xlink:href="#m1307d7a3bb" y="161.497848"/>
     <use style="fill:#0000ff;stroke:#0000ff;" x="216.406829" xlink:href="#m1307d7a3bb" y="161.228118"/>
     <use style="fill:#0000ff;stroke:#0000ff;" x="218.144734" xlink:href="#m1307d7a3bb" y="159.789856"/>
     <use style="fill:#0000ff;stroke:#0000ff;" x="219.879924" xlink:href="#m1307d7a3bb" y="158.342556"/>
     <use style="fill:#0000ff;stroke:#0000ff;" x="221.613488" xlink:href="#m1307d7a3bb" y="156.788746"/>
     <use style="fill:#0000ff;stroke:#0000ff;" x="223.346512" xlink:href="#m1307d7a3bb" y="156.656631"/>
     <use style="fill:#0000ff;stroke:#0000ff;" x="225.080076" xlink:href="#m1307d7a3bb" y="152.384941"/>
     <use style="fill:#0000ff;stroke:#0000ff;" x="226.815266" xlink:href="#m1307d7a3bb" y="151.120228"/>
     <use style="fill:#0000ff;stroke:#0000ff;" x="228.553171" xlink:href="#m1307d7a3bb" y="147.304786"/>
     <use style="fill:#0000ff;stroke:#0000ff;" x="230.294894" xlink:href="#m1307d7a3bb" y="146.795411"/>
     <use style="fill:#0000ff;stroke:#0000ff;" x="232.041557" xlink:href="#m1307d7a3bb" y="146.695378"/>
     <use style="fill:#0000ff;stroke:#0000ff;" x="233.7943" xlink:href="#m1307d7a3bb" y="145.894484"/>
     <use style="fill:#0000ff;stroke:#0000ff;" x="235.554293" xlink:href="#m1307d7a3bb" y="143.37693"/>
     <use style="fill:#0000ff;stroke:#0000ff;" x="237.32274" xlink:href="#m1307d7a3bb" y="143.085145"/>
     <use style="fill:#0000ff;stroke:#0000ff;" x="239.100882" xlink:href="#m1307d7a3bb" y="142.423622"/>
     <use style="fill:#0000ff;stroke:#0000ff;" x="240.890008" xlink:href="#m1307d7a3bb" y="140.112404"/>
     <use style="fill:#0000ff;stroke:#0000ff;" x="242.69146" xlink:href="#m1307d7a3bb" y="139.181349"/>
     <use style="fill:#0000ff;stroke:#0000ff;" x="244.506642" xlink:href="#m1307d7a3bb" y="136.721872"/>
     <use style="fill:#0000ff;stroke:#0000ff;" x="246.337026" xlink:href="#m1307d7a3bb" y="136.477831"/>
     <use style="fill:#0000ff;stroke:#0000ff;" x="248.184166" xlink:href="#m1307d7a3bb" y="135.420978"/>
     <use style="fill:#0000ff;stroke:#0000ff;" x="250.049705" xlink:href="#m1307d7a3bb" y="133.735052"/>
     <use style="fill:#0000ff;stroke:#0000ff;" x="251.935392" xlink:href="#m1307d7a3bb" y="133.342662"/>
     <use style="fill:#0000ff;stroke:#0000ff;" x="253.843092" xlink:href="#m1307d7a3bb" y="131.340936"/>
     <use style="fill:#0000ff;stroke:#0000ff;" x="255.774801" xlink:href="#m1307d7a3bb" y="129.377797"/>
     <use style="fill:#0000ff;stroke:#0000ff;" x="257.732669" xlink:href="#m1307d7a3bb" y="128.007324"/>
     <use style="fill:#0000ff;stroke:#0000ff;" x="259.719017" xlink:href="#m1307d7a3bb" y="127.279296"/>
     <use style="fill:#0000ff;stroke:#0000ff;" x="261.736367" xlink:href="#m1307d7a3bb" y="127.21527"/>
     <use style="fill:#0000ff;stroke:#0000ff;" x="263.78746" xlink:href="#m1307d7a3bb" y="125.670593"/>
     <use style="fill:#0000ff;stroke:#0000ff;" x="265.875304" xlink:href="#m1307d7a3bb" y="121.689642"/>
     <use style="fill:#0000ff;stroke:#0000ff;" x="268.0032" xlink:href="#m1307d7a3bb" y="121.431346"/>
     <use style="fill:#0000ff;stroke:#0000ff;" x="270.174799" xlink:href="#m1307d7a3bb" y="121.050363"/>
     <use style="fill:#0000ff;stroke:#0000ff;" x="272.394154" xlink:href="#m1307d7a3bb" y="120.351404"/>
     <use style="fill:#0000ff;stroke:#0000ff;" x="274.665792" xlink:href="#m1307d7a3bb" y="117.169482"/>
     <use style="fill:#0000ff;stroke:#0000ff;" x="276.994792" xlink:href="#m1307d7a3bb" y="115.073064"/>
     <use style="fill:#0000ff;stroke:#0000ff;" x="279.386895" xlink:href="#m1307d7a3bb" y="112.762388"/>
     <use style="fill:#0000ff;stroke:#0000ff;" x="281.848624" xlink:href="#m1307d7a3bb" y="112.08316"/>
     <use style="fill:#0000ff;stroke:#0000ff;" x="284.38745" xlink:href="#m1307d7a3bb" y="110.129318"/>
     <use style="fill:#0000ff;stroke:#0000ff;" x="287.011989" xlink:href="#m1307d7a3bb" y="109.69779"/>
     <use style="fill:#0000ff;stroke:#0000ff;" x="289.732264" xlink:href="#m1307d7a3bb" y="108.921246"/>
     <use style="fill:#0000ff;stroke:#0000ff;" x="292.560043" xlink:href="#m1307d7a3bb" y="108.880654"/>
     <use style="fill:#0000ff;stroke:#0000ff;" x="295.509281" xlink:href="#m1307d7a3bb" y="107.446577"/>
     <use style="fill:#0000ff;stroke:#0000ff;" x="298.596721" xlink:href="#m1307d7a3bb" y="104.50367"/>
     <use style="fill:#0000ff;stroke:#0000ff;" x="301.842713" xlink:href="#m1307d7a3bb" y="103.791197"/>
     <use style="fill:#0000ff;stroke:#0000ff;" x="305.272361" xlink:href="#m1307d7a3bb" y="103.082369"/>
     <use style="fill:#0000ff;stroke:#0000ff;" x="308.917167" xlink:href="#m1307d7a3bb" y="102.830254"/>
     <use style="fill:#0000ff;stroke:#0000ff;" x="312.817471" xlink:href="#m1307d7a3bb" y="100.191997"/>
     <use style="fill:#0000ff;stroke:#0000ff;" x="317.026183" xlink:href="#m1307d7a3bb" y="98.044069"/>
     <use style="fill:#0000ff;stroke:#0000ff;" x="321.614737" xlink:href="#m1307d7a3bb" y="97.030672"/>
     <use style="fill:#0000ff;stroke:#0000ff;" x="326.683115" xlink:href="#m1307d7a3bb" y="95.832907"/>
     <use style="fill:#0000ff;stroke:#0000ff;" x="332.377803" xlink:href="#m1307d7a3bb" y="85.619869"/>
     <use style="fill:#0000ff;stroke:#0000ff;" x="338.926787" xlink:href="#m1307d7a3bb" y="77.115403"/>
     <use style="fill:#0000ff;stroke:#0000ff;" x="346.715855" xlink:href="#m1307d7a3bb" y="74.510005"/>
     <use style="fill:#0000ff;stroke:#0000ff;" x="356.484412" xlink:href="#m1307d7a3bb" y="73.824806"/>
     <use style="fill:#0000ff;stroke:#0000ff;" x="369.979007" xlink:href="#m1307d7a3bb" y="48.900571"/>
     <use style="fill:#0000ff;stroke:#0000ff;" x="393.316364" xlink:href="#m1307d7a3bb" y="45.163636"/>
    </g>
   </g>
   <g id="line2d_22">
    <path clip-path="url(#pb295589bce)" d="M 51.643636 257.236364 
L 74.980993 243.016843 
L 88.475588 234.794546 
L 98.244145 228.842535 
L 106.033213 224.096633 
L 112.582197 220.106318 
L 118.276885 216.636527 
L 123.345263 213.54835 
L 127.933817 210.75253 
L 132.142529 208.18815 
L 136.042833 205.811683 
L 139.687639 203.590892 
L 143.117287 201.501197 
L 146.363279 199.523405 
L 149.450719 197.642218 
L 152.399957 195.845239 
L 155.227736 194.122265 
L 157.948011 192.464793 
L 160.57255 190.865654 
L 163.111376 189.31874 
L 165.573105 187.818801 
L 167.965208 186.361285 
L 170.294208 184.942219 
L 172.565846 183.558103 
L 174.785201 182.205843 
L 176.9568 180.882682 
L 179.084696 179.586148 
L 181.17254 178.314019 
L 183.223633 177.064281 
L 185.240983 175.835105 
L 187.227331 174.624816 
L 189.185199 173.431882 
L 191.116908 172.254886 
L 193.024608 171.092519 
L 194.910295 169.943564 
L 196.775834 168.806885 
L 198.622974 167.681417 
L 200.453358 166.566159 
L 202.26854 165.460164 
L 204.069992 164.362534 
L 205.859118 163.272414 
L 207.63726 162.188986 
L 209.405707 161.111467 
L 211.1657 160.039097 
L 212.918443 158.971146 
L 214.665106 157.906899 
L 216.406829 156.845662 
L 218.144734 155.786751 
L 219.879924 154.729495 
L 221.613488 153.673229 
L 223.346512 152.617293 
L 225.080076 151.561027 
L 226.815266 150.503771 
L 228.553171 149.44486 
L 230.294894 148.383623 
L 232.041557 147.319376 
L 233.7943 146.251425 
L 235.554293 145.179055 
L 237.32274 144.101536 
L 239.100882 143.018108 
L 240.890008 141.927988 
L 242.69146 140.830358 
L 244.506642 139.724363 
L 246.337026 138.609105 
L 248.184166 137.483637 
L 250.049705 136.346958 
L 251.935392 135.198003 
L 253.843092 134.035636 
L 255.774801 132.85864 
L 257.732669 131.665706 
L 259.719017 130.455417 
L 261.736367 129.226241 
L 263.78746 127.976503 
L 265.875304 126.704374 
L 268.0032 125.40784 
L 270.174799 124.084679 
L 272.394154 122.732419 
L 274.665792 121.348303 
L 276.994792 119.929237 
L 279.386895 118.471721 
L 281.848624 116.971783 
L 284.38745 115.424868 
L 287.011989 113.825729 
L 289.732264 112.168257 
L 292.560043 110.445283 
L 295.509281 108.648304 
L 298.596721 106.767117 
L 301.842713 104.789325 
L 305.272361 102.69963 
L 308.917167 100.478839 
L 312.817471 98.102372 
L 317.026183 95.537992 
L 321.614737 92.742172 
L 326.683115 89.653995 
L 332.377803 86.184204 
L 338.926787 82.193889 
L 346.715855 77.447987 
L 356.484412 71.495976 
L 369.979007 63.273679 
L 393.316364 49.054158 
" style="fill:none;stroke:#ff0000;stroke-width:4;"/>
   </g>
   <g id="patch_3">
    <path d="M 34.56 267.84 
L 34.56 34.56 
" style="fill:none;stroke:#f0f0f0;stroke-linecap:square;stroke-linejoin:miter;stroke-width:3;"/>
   </g>
   <g id="patch_4">
    <path d="M 410.4 267.84 
L 410.4 34.56 
" style="fill:none;stroke:#f0f0f0;stroke-linecap:square;stroke-linejoin:miter;stroke-width:3;"/>
   </g>
   <g id="patch_5">
    <path d="M 34.56 267.84 
L 410.4 267.84 
" style="fill:none;stroke:#f0f0f0;stroke-linecap:square;stroke-linejoin:miter;stroke-width:3;"/>
   </g>
   <g id="patch_6">
    <path d="M 34.56 34.56 
L 410.4 34.56 
" style="fill:none;stroke:#f0f0f0;stroke-linecap:square;stroke-linejoin:miter;stroke-width:3;"/>
   </g>
   <g id="text_13">
    <!-- Probability Plot -->
    <defs>
     <path d="M 19.671875 64.796875 
L 19.671875 37.40625 
L 32.078125 37.40625 
Q 38.96875 37.40625 42.71875 40.96875 
Q 46.484375 44.53125 46.484375 51.125 
Q 46.484375 57.671875 42.71875 61.234375 
Q 38.96875 64.796875 32.078125 64.796875 
z
M 9.8125 72.90625 
L 32.078125 72.90625 
Q 44.34375 72.90625 50.609375 67.359375 
Q 56.890625 61.8125 56.890625 51.125 
Q 56.890625 40.328125 50.609375 34.8125 
Q 44.34375 29.296875 32.078125 29.296875 
L 19.671875 29.296875 
L 19.671875 0 
L 9.8125 0 
z
" id="DejaVuSans-80"/>
     <path d="M 48.6875 27.296875 
Q 48.6875 37.203125 44.609375 42.84375 
Q 40.53125 48.484375 33.40625 48.484375 
Q 26.265625 48.484375 22.1875 42.84375 
Q 18.109375 37.203125 18.109375 27.296875 
Q 18.109375 17.390625 22.1875 11.75 
Q 26.265625 6.109375 33.40625 6.109375 
Q 40.53125 6.109375 44.609375 11.75 
Q 48.6875 17.390625 48.6875 27.296875 
z
M 18.109375 46.390625 
Q 20.953125 51.265625 25.265625 53.625 
Q 29.59375 56 35.59375 56 
Q 45.5625 56 51.78125 48.09375 
Q 58.015625 40.1875 58.015625 27.296875 
Q 58.015625 14.40625 51.78125 6.484375 
Q 45.5625 -1.421875 35.59375 -1.421875 
Q 29.59375 -1.421875 25.265625 0.953125 
Q 20.953125 3.328125 18.109375 8.203125 
L 18.109375 0 
L 9.078125 0 
L 9.078125 75.984375 
L 18.109375 75.984375 
z
" id="DejaVuSans-98"/>
     <path d="M 32.171875 -5.078125 
Q 28.375 -14.84375 24.75 -17.8125 
Q 21.140625 -20.796875 15.09375 -20.796875 
L 7.90625 -20.796875 
L 7.90625 -13.28125 
L 13.1875 -13.28125 
Q 16.890625 -13.28125 18.9375 -11.515625 
Q 21 -9.765625 23.484375 -3.21875 
L 25.09375 0.875 
L 2.984375 54.6875 
L 12.5 54.6875 
L 29.59375 11.921875 
L 46.6875 54.6875 
L 56.203125 54.6875 
z
" id="DejaVuSans-121"/>
    </defs>
    <g transform="translate(146.59965 28.56)scale(0.2016 -0.2016)">
     <use xlink:href="#DejaVuSans-80"/>
     <use x="60.287109" xlink:href="#DejaVuSans-114"/>
     <use x="101.369141" xlink:href="#DejaVuSans-111"/>
     <use x="162.550781" xlink:href="#DejaVuSans-98"/>
     <use x="226.027344" xlink:href="#DejaVuSans-97"/>
     <use x="287.306641" xlink:href="#DejaVuSans-98"/>
     <use x="350.783203" xlink:href="#DejaVuSans-105"/>
     <use x="378.566406" xlink:href="#DejaVuSans-108"/>
     <use x="406.349609" xlink:href="#DejaVuSans-105"/>
     <use x="434.132812" xlink:href="#DejaVuSans-116"/>
     <use x="473.341797" xlink:href="#DejaVuSans-121"/>
     <use x="532.521484" xlink:href="#DejaVuSans-32"/>
     <use x="564.308594" xlink:href="#DejaVuSans-80"/>
     <use x="624.611328" xlink:href="#DejaVuSans-108"/>
     <use x="652.394531" xlink:href="#DejaVuSans-111"/>
     <use x="713.576172" xlink:href="#DejaVuSans-116"/>
    </g>
   </g>
  </g>
 </g>
 <defs>
  <clipPath id="pb295589bce">
   <rect height="233.28" width="375.84" x="34.56" y="34.56"/>
  </clipPath>
 </defs>
</svg>
