<?xml version="1.0" encoding="utf-8" standalone="no"?>
<!DOCTYPE svg PUBLIC "-//W3C//DTD SVG 1.1//EN"
  "http://www.w3.org/Graphics/SVG/1.1/DTD/svg11.dtd">
<!-- Created with matplotlib (https://matplotlib.org/) -->
<svg height="576pt" version="1.1" viewBox="0 0 720 576" width="720pt" xmlns="http://www.w3.org/2000/svg" xmlns:xlink="http://www.w3.org/1999/xlink">
 <defs>
  <style type="text/css">
*{stroke-linecap:butt;stroke-linejoin:round;}
  </style>
 </defs>
 <g id="figure_1">
  <g id="patch_1">
   <path d="M 0 576 
L 720 576 
L 720 0 
L 0 0 
z
" style="fill:#ffffff;"/>
  </g>
  <g id="axes_1">
   <g id="patch_2">
    <path d="M 57.6 535.68 
L 684 535.68 
L 684 69.12 
L 57.6 69.12 
z
" style="fill:#ffffff;"/>
   </g>
   <g id="matplotlib.axis_1">
    <g id="xtick_1">
     <g id="line2d_1">
      <path clip-path="url(#p418d63c7a5)" d="M 362.891657 535.68 
L 362.891657 69.12 
" style="fill:none;stroke:#cbcbcb;"/>
     </g>
     <g id="line2d_2"/>
     <g id="text_1">
      <!-- −0.118 -->
      <defs>
       <path d="M 10.59375 35.5 
L 73.1875 35.5 
L 73.1875 27.203125 
L 10.59375 27.203125 
z
" id="DejaVuSans-8722"/>
       <path d="M 31.78125 66.40625 
Q 24.171875 66.40625 20.328125 58.90625 
Q 16.5 51.421875 16.5 36.375 
Q 16.5 21.390625 20.328125 13.890625 
Q 24.171875 6.390625 31.78125 6.390625 
Q 39.453125 6.390625 43.28125 13.890625 
Q 47.125 21.390625 47.125 36.375 
Q 47.125 51.421875 43.28125 58.90625 
Q 39.453125 66.40625 31.78125 66.40625 
z
M 31.78125 74.21875 
Q 44.046875 74.21875 50.515625 64.515625 
Q 56.984375 54.828125 56.984375 36.375 
Q 56.984375 17.96875 50.515625 8.265625 
Q 44.046875 -1.421875 31.78125 -1.421875 
Q 19.53125 -1.421875 13.0625 8.265625 
Q 6.59375 17.96875 6.59375 36.375 
Q 6.59375 54.828125 13.0625 64.515625 
Q 19.53125 74.21875 31.78125 74.21875 
z
" id="DejaVuSans-48"/>
       <path d="M 10.6875 12.40625 
L 21 12.40625 
L 21 0 
L 10.6875 0 
z
" id="DejaVuSans-46"/>
       <path d="M 12.40625 8.296875 
L 28.515625 8.296875 
L 28.515625 63.921875 
L 10.984375 60.40625 
L 10.984375 69.390625 
L 28.421875 72.90625 
L 38.28125 72.90625 
L 38.28125 8.296875 
L 54.390625 8.296875 
L 54.390625 0 
L 12.40625 0 
z
" id="DejaVuSans-49"/>
       <path d="M 31.78125 34.625 
Q 24.75 34.625 20.71875 30.859375 
Q 16.703125 27.09375 16.703125 20.515625 
Q 16.703125 13.921875 20.71875 10.15625 
Q 24.75 6.390625 31.78125 6.390625 
Q 38.8125 6.390625 42.859375 10.171875 
Q 46.921875 13.96875 46.921875 20.515625 
Q 46.921875 27.09375 42.890625 30.859375 
Q 38.875 34.625 31.78125 34.625 
z
M 21.921875 38.8125 
Q 15.578125 40.375 12.03125 44.71875 
Q 8.5 49.078125 8.5 55.328125 
Q 8.5 64.0625 14.71875 69.140625 
Q 20.953125 74.21875 31.78125 74.21875 
Q 42.671875 74.21875 48.875 69.140625 
Q 55.078125 64.0625 55.078125 55.328125 
Q 55.078125 49.078125 51.53125 44.71875 
Q 48 40.375 41.703125 38.8125 
Q 48.828125 37.15625 52.796875 32.3125 
Q 56.78125 27.484375 56.78125 20.515625 
Q 56.78125 9.90625 50.3125 4.234375 
Q 43.84375 -1.421875 31.78125 -1.421875 
Q 19.734375 -1.421875 13.25 4.234375 
Q 6.78125 9.90625 6.78125 20.515625 
Q 6.78125 27.484375 10.78125 32.3125 
Q 14.796875 37.15625 21.921875 38.8125 
z
M 18.3125 54.390625 
Q 18.3125 48.734375 21.84375 45.5625 
Q 25.390625 42.390625 31.78125 42.390625 
Q 38.140625 42.390625 41.71875 45.5625 
Q 45.3125 48.734375 45.3125 54.390625 
Q 45.3125 60.0625 41.71875 63.234375 
Q 38.140625 66.40625 31.78125 66.40625 
Q 25.390625 66.40625 21.84375 63.234375 
Q 18.3125 60.0625 18.3125 54.390625 
z
" id="DejaVuSans-56"/>
      </defs>
      <g transform="translate(336.986189 549.817813)scale(0.14 -0.14)">
       <use xlink:href="#DejaVuSans-8722"/>
       <use x="83.789062" xlink:href="#DejaVuSans-48"/>
       <use x="147.412109" xlink:href="#DejaVuSans-46"/>
       <use x="179.199219" xlink:href="#DejaVuSans-49"/>
       <use x="242.822266" xlink:href="#DejaVuSans-49"/>
       <use x="306.445312" xlink:href="#DejaVuSans-56"/>
      </g>
     </g>
    </g>
    <g id="xtick_2">
     <g id="line2d_3">
      <path clip-path="url(#p418d63c7a5)" d="M 167.040047 535.68 
L 167.040047 69.12 
" style="fill:none;stroke:#cbcbcb;"/>
     </g>
     <g id="line2d_4"/>
     <g id="text_2">
      <!-- −5.266 -->
      <defs>
       <path d="M 10.796875 72.90625 
L 49.515625 72.90625 
L 49.515625 64.59375 
L 19.828125 64.59375 
L 19.828125 46.734375 
Q 21.96875 47.46875 24.109375 47.828125 
Q 26.265625 48.1875 28.421875 48.1875 
Q 40.625 48.1875 47.75 41.5 
Q 54.890625 34.8125 54.890625 23.390625 
Q 54.890625 11.625 47.5625 5.09375 
Q 40.234375 -1.421875 26.90625 -1.421875 
Q 22.3125 -1.421875 17.546875 -0.640625 
Q 12.796875 0.140625 7.71875 1.703125 
L 7.71875 11.625 
Q 12.109375 9.234375 16.796875 8.0625 
Q 21.484375 6.890625 26.703125 6.890625 
Q 35.15625 6.890625 40.078125 11.328125 
Q 45.015625 15.765625 45.015625 23.390625 
Q 45.015625 31 40.078125 35.4375 
Q 35.15625 39.890625 26.703125 39.890625 
Q 22.75 39.890625 18.8125 39.015625 
Q 14.890625 38.140625 10.796875 36.28125 
z
" id="DejaVuSans-53"/>
       <path d="M 19.1875 8.296875 
L 53.609375 8.296875 
L 53.609375 0 
L 7.328125 0 
L 7.328125 8.296875 
Q 12.9375 14.109375 22.625 23.890625 
Q 32.328125 33.6875 34.8125 36.53125 
Q 39.546875 41.84375 41.421875 45.53125 
Q 43.3125 49.21875 43.3125 52.78125 
Q 43.3125 58.59375 39.234375 62.25 
Q 35.15625 65.921875 28.609375 65.921875 
Q 23.96875 65.921875 18.8125 64.3125 
Q 13.671875 62.703125 7.8125 59.421875 
L 7.8125 69.390625 
Q 13.765625 71.78125 18.9375 73 
Q 24.125 74.21875 28.421875 74.21875 
Q 39.75 74.21875 46.484375 68.546875 
Q 53.21875 62.890625 53.21875 53.421875 
Q 53.21875 48.921875 51.53125 44.890625 
Q 49.859375 40.875 45.40625 35.40625 
Q 44.1875 33.984375 37.640625 27.21875 
Q 31.109375 20.453125 19.1875 8.296875 
z
" id="DejaVuSans-50"/>
       <path d="M 33.015625 40.375 
Q 26.375 40.375 22.484375 35.828125 
Q 18.609375 31.296875 18.609375 23.390625 
Q 18.609375 15.53125 22.484375 10.953125 
Q 26.375 6.390625 33.015625 6.390625 
Q 39.65625 6.390625 43.53125 10.953125 
Q 47.40625 15.53125 47.40625 23.390625 
Q 47.40625 31.296875 43.53125 35.828125 
Q 39.65625 40.375 33.015625 40.375 
z
M 52.59375 71.296875 
L 52.59375 62.3125 
Q 48.875 64.0625 45.09375 64.984375 
Q 41.3125 65.921875 37.59375 65.921875 
Q 27.828125 65.921875 22.671875 59.328125 
Q 17.53125 52.734375 16.796875 39.40625 
Q 19.671875 43.65625 24.015625 45.921875 
Q 28.375 48.1875 33.59375 48.1875 
Q 44.578125 48.1875 50.953125 41.515625 
Q 57.328125 34.859375 57.328125 23.390625 
Q 57.328125 12.15625 50.6875 5.359375 
Q 44.046875 -1.421875 33.015625 -1.421875 
Q 20.359375 -1.421875 13.671875 8.265625 
Q 6.984375 17.96875 6.984375 36.375 
Q 6.984375 53.65625 15.1875 63.9375 
Q 23.390625 74.21875 37.203125 74.21875 
Q 40.921875 74.21875 44.703125 73.484375 
Q 48.484375 72.75 52.59375 71.296875 
z
" id="DejaVuSans-54"/>
      </defs>
      <g transform="translate(141.134579 549.817813)scale(0.14 -0.14)">
       <use xlink:href="#DejaVuSans-8722"/>
       <use x="83.789062" xlink:href="#DejaVuSans-53"/>
       <use x="147.412109" xlink:href="#DejaVuSans-46"/>
       <use x="179.199219" xlink:href="#DejaVuSans-50"/>
       <use x="242.822266" xlink:href="#DejaVuSans-54"/>
       <use x="306.445312" xlink:href="#DejaVuSans-54"/>
      </g>
     </g>
    </g>
    <g id="text_3">
     <!-- Variance -->
     <defs>
      <path d="M 28.609375 0 
L 0.78125 72.90625 
L 11.078125 72.90625 
L 34.1875 11.53125 
L 57.328125 72.90625 
L 67.578125 72.90625 
L 39.796875 0 
z
" id="DejaVuSans-86"/>
      <path d="M 34.28125 27.484375 
Q 23.390625 27.484375 19.1875 25 
Q 14.984375 22.515625 14.984375 16.5 
Q 14.984375 11.71875 18.140625 8.90625 
Q 21.296875 6.109375 26.703125 6.109375 
Q 34.1875 6.109375 38.703125 11.40625 
Q 43.21875 16.703125 43.21875 25.484375 
L 43.21875 27.484375 
z
M 52.203125 31.203125 
L 52.203125 0 
L 43.21875 0 
L 43.21875 8.296875 
Q 40.140625 3.328125 35.546875 0.953125 
Q 30.953125 -1.421875 24.3125 -1.421875 
Q 15.921875 -1.421875 10.953125 3.296875 
Q 6 8.015625 6 15.921875 
Q 6 25.140625 12.171875 29.828125 
Q 18.359375 34.515625 30.609375 34.515625 
L 43.21875 34.515625 
L 43.21875 35.40625 
Q 43.21875 41.609375 39.140625 45 
Q 35.0625 48.390625 27.6875 48.390625 
Q 23 48.390625 18.546875 47.265625 
Q 14.109375 46.140625 10.015625 43.890625 
L 10.015625 52.203125 
Q 14.9375 54.109375 19.578125 55.046875 
Q 24.21875 56 28.609375 56 
Q 40.484375 56 46.34375 49.84375 
Q 52.203125 43.703125 52.203125 31.203125 
z
" id="DejaVuSans-97"/>
      <path d="M 41.109375 46.296875 
Q 39.59375 47.171875 37.8125 47.578125 
Q 36.03125 48 33.890625 48 
Q 26.265625 48 22.1875 43.046875 
Q 18.109375 38.09375 18.109375 28.8125 
L 18.109375 0 
L 9.078125 0 
L 9.078125 54.6875 
L 18.109375 54.6875 
L 18.109375 46.1875 
Q 20.953125 51.171875 25.484375 53.578125 
Q 30.03125 56 36.53125 56 
Q 37.453125 56 38.578125 55.875 
Q 39.703125 55.765625 41.0625 55.515625 
z
" id="DejaVuSans-114"/>
      <path d="M 9.421875 54.6875 
L 18.40625 54.6875 
L 18.40625 0 
L 9.421875 0 
z
M 9.421875 75.984375 
L 18.40625 75.984375 
L 18.40625 64.59375 
L 9.421875 64.59375 
z
" id="DejaVuSans-105"/>
      <path d="M 54.890625 33.015625 
L 54.890625 0 
L 45.90625 0 
L 45.90625 32.71875 
Q 45.90625 40.484375 42.875 44.328125 
Q 39.84375 48.1875 33.796875 48.1875 
Q 26.515625 48.1875 22.3125 43.546875 
Q 18.109375 38.921875 18.109375 30.90625 
L 18.109375 0 
L 9.078125 0 
L 9.078125 54.6875 
L 18.109375 54.6875 
L 18.109375 46.1875 
Q 21.34375 51.125 25.703125 53.5625 
Q 30.078125 56 35.796875 56 
Q 45.21875 56 50.046875 50.171875 
Q 54.890625 44.34375 54.890625 33.015625 
z
" id="DejaVuSans-110"/>
      <path d="M 48.78125 52.59375 
L 48.78125 44.1875 
Q 44.96875 46.296875 41.140625 47.34375 
Q 37.3125 48.390625 33.40625 48.390625 
Q 24.65625 48.390625 19.8125 42.84375 
Q 14.984375 37.3125 14.984375 27.296875 
Q 14.984375 17.28125 19.8125 11.734375 
Q 24.65625 6.203125 33.40625 6.203125 
Q 37.3125 6.203125 41.140625 7.25 
Q 44.96875 8.296875 48.78125 10.40625 
L 48.78125 2.09375 
Q 45.015625 0.34375 40.984375 -0.53125 
Q 36.96875 -1.421875 32.421875 -1.421875 
Q 20.0625 -1.421875 12.78125 6.34375 
Q 5.515625 14.109375 5.515625 27.296875 
Q 5.515625 40.671875 12.859375 48.328125 
Q 20.21875 56 33.015625 56 
Q 37.15625 56 41.109375 55.140625 
Q 45.0625 54.296875 48.78125 52.59375 
z
" id="DejaVuSans-99"/>
      <path d="M 56.203125 29.59375 
L 56.203125 25.203125 
L 14.890625 25.203125 
Q 15.484375 15.921875 20.484375 11.0625 
Q 25.484375 6.203125 34.421875 6.203125 
Q 39.59375 6.203125 44.453125 7.46875 
Q 49.3125 8.734375 54.109375 11.28125 
L 54.109375 2.78125 
Q 49.265625 0.734375 44.1875 -0.34375 
Q 39.109375 -1.421875 33.890625 -1.421875 
Q 20.796875 -1.421875 13.15625 6.1875 
Q 5.515625 13.8125 5.515625 26.8125 
Q 5.515625 40.234375 12.765625 48.109375 
Q 20.015625 56 32.328125 56 
Q 43.359375 56 49.78125 48.890625 
Q 56.203125 41.796875 56.203125 29.59375 
z
M 47.21875 32.234375 
Q 47.125 39.59375 43.09375 43.984375 
Q 39.0625 48.390625 32.421875 48.390625 
Q 24.90625 48.390625 20.390625 44.140625 
Q 15.875 39.890625 15.1875 32.171875 
z
" id="DejaVuSans-101"/>
     </defs>
     <g transform="translate(333.870187 569.49475)scale(0.168 -0.168)">
      <use xlink:href="#DejaVuSans-86"/>
      <use x="68.298828" xlink:href="#DejaVuSans-97"/>
      <use x="129.578125" xlink:href="#DejaVuSans-114"/>
      <use x="170.691406" xlink:href="#DejaVuSans-105"/>
      <use x="198.474609" xlink:href="#DejaVuSans-97"/>
      <use x="259.753906" xlink:href="#DejaVuSans-110"/>
      <use x="323.132812" xlink:href="#DejaVuSans-99"/>
      <use x="378.113281" xlink:href="#DejaVuSans-101"/>
     </g>
    </g>
    <g id="text_4">
     <!-- 1e−8 -->
     <g transform="translate(645.839062 566.367188)scale(0.14 -0.14)">
      <use xlink:href="#DejaVuSans-49"/>
      <use x="63.623047" xlink:href="#DejaVuSans-101"/>
      <use x="125.146484" xlink:href="#DejaVuSans-8722"/>
      <use x="208.935547" xlink:href="#DejaVuSans-56"/>
     </g>
    </g>
   </g>
   <g id="matplotlib.axis_2">
    <g id="ytick_1">
     <g id="line2d_5">
      <path clip-path="url(#p418d63c7a5)" d="M 57.6 535.68 
L 684 535.68 
" style="fill:none;stroke:#cbcbcb;"/>
     </g>
     <g id="line2d_6"/>
     <g id="text_5">
      <!-- 0.0 -->
      <g transform="translate(31.835625 540.998906)scale(0.14 -0.14)">
       <use xlink:href="#DejaVuSans-48"/>
       <use x="63.623047" xlink:href="#DejaVuSans-46"/>
       <use x="95.410156" xlink:href="#DejaVuSans-48"/>
      </g>
     </g>
    </g>
    <g id="ytick_2">
     <g id="line2d_7">
      <path clip-path="url(#p418d63c7a5)" d="M 57.6 440.872512 
L 684 440.872512 
" style="fill:none;stroke:#cbcbcb;"/>
     </g>
     <g id="line2d_8"/>
     <g id="text_6">
      <!-- 0.5 -->
      <g transform="translate(31.835625 446.191419)scale(0.14 -0.14)">
       <use xlink:href="#DejaVuSans-48"/>
       <use x="63.623047" xlink:href="#DejaVuSans-46"/>
       <use x="95.410156" xlink:href="#DejaVuSans-53"/>
      </g>
     </g>
    </g>
    <g id="ytick_3">
     <g id="line2d_9">
      <path clip-path="url(#p418d63c7a5)" d="M 57.6 346.065025 
L 684 346.065025 
" style="fill:none;stroke:#cbcbcb;"/>
     </g>
     <g id="line2d_10"/>
     <g id="text_7">
      <!-- 1.0 -->
      <g transform="translate(31.835625 351.383931)scale(0.14 -0.14)">
       <use xlink:href="#DejaVuSans-49"/>
       <use x="63.623047" xlink:href="#DejaVuSans-46"/>
       <use x="95.410156" xlink:href="#DejaVuSans-48"/>
      </g>
     </g>
    </g>
    <g id="ytick_4">
     <g id="line2d_11">
      <path clip-path="url(#p418d63c7a5)" d="M 57.6 251.257537 
L 684 251.257537 
" style="fill:none;stroke:#cbcbcb;"/>
     </g>
     <g id="line2d_12"/>
     <g id="text_8">
      <!-- 1.5 -->
      <g transform="translate(31.835625 256.576443)scale(0.14 -0.14)">
       <use xlink:href="#DejaVuSans-49"/>
       <use x="63.623047" xlink:href="#DejaVuSans-46"/>
       <use x="95.410156" xlink:href="#DejaVuSans-53"/>
      </g>
     </g>
    </g>
    <g id="ytick_5">
     <g id="line2d_13">
      <path clip-path="url(#p418d63c7a5)" d="M 57.6 156.450049 
L 684 156.450049 
" style="fill:none;stroke:#cbcbcb;"/>
     </g>
     <g id="line2d_14"/>
     <g id="text_9">
      <!-- 2.0 -->
      <g transform="translate(31.835625 161.768955)scale(0.14 -0.14)">
       <use xlink:href="#DejaVuSans-50"/>
       <use x="63.623047" xlink:href="#DejaVuSans-46"/>
       <use x="95.410156" xlink:href="#DejaVuSans-48"/>
      </g>
     </g>
    </g>
    <g id="text_10">
     <!-- 1e7 -->
     <defs>
      <path d="M 8.203125 72.90625 
L 55.078125 72.90625 
L 55.078125 68.703125 
L 28.609375 0 
L 18.3125 0 
L 43.21875 64.59375 
L 8.203125 64.59375 
z
" id="DejaVuSans-55"/>
     </defs>
     <g transform="translate(57.6 66.12)scale(0.14 -0.14)">
      <use xlink:href="#DejaVuSans-49"/>
      <use x="63.623047" xlink:href="#DejaVuSans-101"/>
      <use x="125.146484" xlink:href="#DejaVuSans-55"/>
     </g>
    </g>
   </g>
   <g id="patch_3">
    <path clip-path="url(#p418d63c7a5)" d="M 141.485786 535.68 
L 159.830923 535.68 
L 159.830923 523.883287 
L 141.485786 523.883287 
z
" style="fill:#204fab;opacity:0.4;"/>
   </g>
   <g id="patch_4">
    <path clip-path="url(#p418d63c7a5)" d="M 159.830923 535.68 
L 178.17606 535.68 
L 178.17606 516.018812 
L 159.830923 516.018812 
z
" style="fill:#204fab;opacity:0.4;"/>
   </g>
   <g id="patch_5">
    <path clip-path="url(#p418d63c7a5)" d="M 178.17606 535.68 
L 196.521197 535.68 
L 196.521197 512.086574 
L 178.17606 512.086574 
z
" style="fill:#204fab;opacity:0.4;"/>
   </g>
   <g id="patch_6">
    <path clip-path="url(#p418d63c7a5)" d="M 196.521197 535.68 
L 214.866334 535.68 
L 214.866334 484.56091 
L 196.521197 484.56091 
z
" style="fill:#204fab;opacity:0.4;"/>
   </g>
   <g id="patch_7">
    <path clip-path="url(#p418d63c7a5)" d="M 214.866334 535.68 
L 233.211471 535.68 
L 233.211471 476.696435 
L 214.866334 476.696435 
z
" style="fill:#204fab;opacity:0.4;"/>
   </g>
   <g id="patch_8">
    <path clip-path="url(#p418d63c7a5)" d="M 233.211471 535.68 
L 251.556609 535.68 
L 251.556609 476.696435 
L 233.211471 476.696435 
z
" style="fill:#204fab;opacity:0.4;"/>
   </g>
   <g id="patch_9">
    <path clip-path="url(#p418d63c7a5)" d="M 251.556609 535.68 
L 269.901746 535.68 
L 269.901746 394.119444 
L 251.556609 394.119444 
z
" style="fill:#204fab;opacity:0.4;"/>
   </g>
   <g id="patch_10">
    <path clip-path="url(#p418d63c7a5)" d="M 269.901746 535.68 
L 288.246883 535.68 
L 288.246883 370.526018 
L 269.901746 370.526018 
z
" style="fill:#204fab;opacity:0.4;"/>
   </g>
   <g id="patch_11">
    <path clip-path="url(#p418d63c7a5)" d="M 288.246883 535.68 
L 306.59202 535.68 
L 306.59202 256.491125 
L 288.246883 256.491125 
z
" style="fill:#204fab;opacity:0.4;"/>
   </g>
   <g id="patch_12">
    <path clip-path="url(#p418d63c7a5)" d="M 306.59202 535.68 
L 324.937157 535.68 
L 324.937157 209.304273 
L 306.59202 209.304273 
z
" style="fill:#204fab;opacity:0.4;"/>
   </g>
   <g id="patch_13">
    <path clip-path="url(#p418d63c7a5)" d="M 324.937157 535.68 
L 343.282294 535.68 
L 343.282294 252.558887 
L 324.937157 252.558887 
z
" style="fill:#204fab;opacity:0.4;"/>
   </g>
   <g id="patch_14">
    <path clip-path="url(#p418d63c7a5)" d="M 343.282294 535.68 
L 361.627431 535.68 
L 361.627431 107.066094 
L 343.282294 107.066094 
z
" style="fill:#204fab;opacity:0.4;"/>
   </g>
   <g id="patch_15">
    <path clip-path="url(#p418d63c7a5)" d="M 361.627431 535.68 
L 379.972569 535.68 
L 379.972569 91.337143 
L 361.627431 91.337143 
z
" style="fill:#204fab;opacity:0.4;"/>
   </g>
   <g id="patch_16">
    <path clip-path="url(#p418d63c7a5)" d="M 379.972569 535.68 
L 398.317706 535.68 
L 398.317706 110.998331 
L 379.972569 110.998331 
z
" style="fill:#204fab;opacity:0.4;"/>
   </g>
   <g id="patch_17">
    <path clip-path="url(#p418d63c7a5)" d="M 398.317706 535.68 
L 416.662843 535.68 
L 416.662843 150.320708 
L 398.317706 150.320708 
z
" style="fill:#204fab;opacity:0.4;"/>
   </g>
   <g id="patch_18">
    <path clip-path="url(#p418d63c7a5)" d="M 416.662843 535.68 
L 435.00798 535.68 
L 435.00798 272.220076 
L 416.662843 272.220076 
z
" style="fill:#204fab;opacity:0.4;"/>
   </g>
   <g id="patch_19">
    <path clip-path="url(#p418d63c7a5)" d="M 435.00798 535.68 
L 453.353117 535.68 
L 453.353117 299.74574 
L 435.00798 299.74574 
z
" style="fill:#204fab;opacity:0.4;"/>
   </g>
   <g id="patch_20">
    <path clip-path="url(#p418d63c7a5)" d="M 453.353117 535.68 
L 471.698254 535.68 
L 471.698254 421.645107 
L 453.353117 421.645107 
z
" style="fill:#204fab;opacity:0.4;"/>
   </g>
   <g id="patch_21">
    <path clip-path="url(#p418d63c7a5)" d="M 471.698254 535.68 
L 490.043391 535.68 
L 490.043391 409.848394 
L 471.698254 409.848394 
z
" style="fill:#204fab;opacity:0.4;"/>
   </g>
   <g id="patch_22">
    <path clip-path="url(#p418d63c7a5)" d="M 490.043391 535.68 
L 508.388529 535.68 
L 508.388529 496.357623 
L 490.043391 496.357623 
z
" style="fill:#204fab;opacity:0.4;"/>
   </g>
   <g id="patch_23">
    <path clip-path="url(#p418d63c7a5)" d="M 508.388529 535.68 
L 526.733666 535.68 
L 526.733666 512.086574 
L 508.388529 512.086574 
z
" style="fill:#204fab;opacity:0.4;"/>
   </g>
   <g id="patch_24">
    <path clip-path="url(#p418d63c7a5)" d="M 526.733666 535.68 
L 545.078803 535.68 
L 545.078803 516.018812 
L 526.733666 516.018812 
z
" style="fill:#204fab;opacity:0.4;"/>
   </g>
   <g id="patch_25">
    <path clip-path="url(#p418d63c7a5)" d="M 545.078803 535.68 
L 563.42394 535.68 
L 563.42394 535.68 
L 545.078803 535.68 
z
" style="fill:#204fab;opacity:0.4;"/>
   </g>
   <g id="patch_26">
    <path clip-path="url(#p418d63c7a5)" d="M 563.42394 535.68 
L 581.769077 535.68 
L 581.769077 535.68 
L 563.42394 535.68 
z
" style="fill:#204fab;opacity:0.4;"/>
   </g>
   <g id="patch_27">
    <path clip-path="url(#p418d63c7a5)" d="M 581.769077 535.68 
L 600.114214 535.68 
L 600.114214 527.815525 
L 581.769077 527.815525 
z
" style="fill:#204fab;opacity:0.4;"/>
   </g>
   <g id="line2d_15">
    <path clip-path="url(#p418d63c7a5)" d="M 86.072727 535.62471 
L 95.040515 535.517085 
L 104.008304 535.169285 
L 108.492198 534.838526 
L 112.976092 534.362285 
L 117.459986 533.716325 
L 121.94388 532.889689 
L 126.427774 531.889527 
L 135.395562 529.485031 
L 148.847244 525.43041 
L 157.815032 522.512282 
L 162.298926 520.844319 
L 166.78282 518.917855 
L 171.266714 516.64029 
L 175.750608 513.942408 
L 180.234503 510.801607 
L 184.718397 507.259405 
L 193.686185 499.464596 
L 198.170079 495.561205 
L 202.653973 491.876406 
L 207.137867 488.499909 
L 211.621761 485.414357 
L 220.589549 479.442541 
L 225.073443 475.967134 
L 229.557337 471.684756 
L 234.041231 466.24966 
L 238.525125 459.39301 
L 243.009019 450.963775 
L 247.492913 440.94786 
L 251.976807 429.460727 
L 256.460702 416.715214 
L 260.944596 402.973647 
L 265.42849 388.498954 
L 274.396278 358.225594 
L 287.84796 312.165497 
L 292.331854 297.502139 
L 296.815748 283.682165 
L 301.299642 271.012427 
L 305.783536 259.702681 
L 310.26743 249.778438 
L 314.751324 241.018796 
L 323.719112 224.906476 
L 328.203006 216.179011 
L 332.686901 206.184696 
L 337.170795 194.644478 
L 341.654689 181.690209 
L 350.622477 154.036881 
L 355.106371 141.178891 
L 359.590265 130.206332 
L 364.074159 121.798588 
L 368.558053 116.324246 
L 373.041947 113.849759 
L 377.525841 114.213422 
L 382.009735 117.128072 
L 386.493629 122.277657 
L 390.977523 129.385113 
L 395.461417 138.243763 
L 399.945311 148.716004 
L 404.429205 160.709882 
L 408.913099 174.14723 
L 413.396994 188.936877 
L 417.880888 204.962242 
L 422.364782 222.084368 
L 426.848676 240.151812 
L 431.33257 259.00345 
L 440.300358 298.265556 
L 449.268146 337.613806 
L 453.75204 356.303299 
L 458.235934 373.771058 
L 462.719828 389.717753 
L 467.203722 404.028643 
L 471.687616 416.79194 
L 476.17151 428.258194 
L 480.655404 438.75396 
L 485.139298 448.580572 
L 489.623193 457.933386 
L 494.107087 466.86722 
L 498.590981 475.314526 
L 503.074875 483.142883 
L 507.558769 490.225636 
L 512.042663 496.498415 
L 516.526557 501.983659 
L 521.010451 506.779897 
L 525.494345 511.025753 
L 529.978239 514.855765 
L 534.462133 518.364659 
L 538.946027 521.590473 
L 543.429921 524.518441 
L 547.913815 527.100161 
L 552.397709 529.278826 
L 556.881603 531.011598 
L 561.365497 532.2836 
L 565.849392 533.112476 
L 570.333286 533.545878 
L 574.81718 533.655436 
L 579.301074 533.529736 
L 597.23665 532.587311 
L 601.720544 532.617121 
L 606.204438 532.810208 
L 615.172226 533.556214 
L 628.623908 534.801783 
L 637.591696 535.314233 
L 646.559485 535.555991 
L 655.527273 535.629673 
L 655.527273 535.629673 
" style="fill:none;stroke:#204fab;stroke-width:4;"/>
   </g>
   <g id="line2d_16">
    <path clip-path="url(#p418d63c7a5)" d="M 167.040047 535.68 
L 167.040047 69.12 
" style="fill:none;stroke:#ff0000;stroke-width:4;"/>
   </g>
   <g id="patch_28">
    <path d="M 57.6 535.68 
L 57.6 69.12 
" style="fill:none;stroke:#f0f0f0;stroke-linecap:square;stroke-linejoin:miter;stroke-width:3;"/>
   </g>
   <g id="patch_29">
    <path d="M 684 535.68 
L 684 69.12 
" style="fill:none;stroke:#f0f0f0;stroke-linecap:square;stroke-linejoin:miter;stroke-width:3;"/>
   </g>
   <g id="patch_30">
    <path d="M 57.6 535.68 
L 684 535.68 
" style="fill:none;stroke:#f0f0f0;stroke-linecap:square;stroke-linejoin:miter;stroke-width:3;"/>
   </g>
   <g id="patch_31">
    <path d="M 57.6 69.12 
L 684 69.12 
" style="fill:none;stroke:#f0f0f0;stroke-linecap:square;stroke-linejoin:miter;stroke-width:3;"/>
   </g>
   <g id="text_11">
    <!-- Permutation Test for Variance Difference -->
    <defs>
     <path d="M 19.671875 64.796875 
L 19.671875 37.40625 
L 32.078125 37.40625 
Q 38.96875 37.40625 42.71875 40.96875 
Q 46.484375 44.53125 46.484375 51.125 
Q 46.484375 57.671875 42.71875 61.234375 
Q 38.96875 64.796875 32.078125 64.796875 
z
M 9.8125 72.90625 
L 32.078125 72.90625 
Q 44.34375 72.90625 50.609375 67.359375 
Q 56.890625 61.8125 56.890625 51.125 
Q 56.890625 40.328125 50.609375 34.8125 
Q 44.34375 29.296875 32.078125 29.296875 
L 19.671875 29.296875 
L 19.671875 0 
L 9.8125 0 
z
" id="DejaVuSans-80"/>
     <path d="M 52 44.1875 
Q 55.375 50.25 60.0625 53.125 
Q 64.75 56 71.09375 56 
Q 79.640625 56 84.28125 50.015625 
Q 88.921875 44.046875 88.921875 33.015625 
L 88.921875 0 
L 79.890625 0 
L 79.890625 32.71875 
Q 79.890625 40.578125 77.09375 44.375 
Q 74.3125 48.1875 68.609375 48.1875 
Q 61.625 48.1875 57.5625 43.546875 
Q 53.515625 38.921875 53.515625 30.90625 
L 53.515625 0 
L 44.484375 0 
L 44.484375 32.71875 
Q 44.484375 40.625 41.703125 44.40625 
Q 38.921875 48.1875 33.109375 48.1875 
Q 26.21875 48.1875 22.15625 43.53125 
Q 18.109375 38.875 18.109375 30.90625 
L 18.109375 0 
L 9.078125 0 
L 9.078125 54.6875 
L 18.109375 54.6875 
L 18.109375 46.1875 
Q 21.1875 51.21875 25.484375 53.609375 
Q 29.78125 56 35.6875 56 
Q 41.65625 56 45.828125 52.96875 
Q 50 49.953125 52 44.1875 
z
" id="DejaVuSans-109"/>
     <path d="M 8.5 21.578125 
L 8.5 54.6875 
L 17.484375 54.6875 
L 17.484375 21.921875 
Q 17.484375 14.15625 20.5 10.265625 
Q 23.53125 6.390625 29.59375 6.390625 
Q 36.859375 6.390625 41.078125 11.03125 
Q 45.3125 15.671875 45.3125 23.6875 
L 45.3125 54.6875 
L 54.296875 54.6875 
L 54.296875 0 
L 45.3125 0 
L 45.3125 8.40625 
Q 42.046875 3.421875 37.71875 1 
Q 33.40625 -1.421875 27.6875 -1.421875 
Q 18.265625 -1.421875 13.375 4.4375 
Q 8.5 10.296875 8.5 21.578125 
z
M 31.109375 56 
z
" id="DejaVuSans-117"/>
     <path d="M 18.3125 70.21875 
L 18.3125 54.6875 
L 36.8125 54.6875 
L 36.8125 47.703125 
L 18.3125 47.703125 
L 18.3125 18.015625 
Q 18.3125 11.328125 20.140625 9.421875 
Q 21.96875 7.515625 27.59375 7.515625 
L 36.8125 7.515625 
L 36.8125 0 
L 27.59375 0 
Q 17.1875 0 13.234375 3.875 
Q 9.28125 7.765625 9.28125 18.015625 
L 9.28125 47.703125 
L 2.6875 47.703125 
L 2.6875 54.6875 
L 9.28125 54.6875 
L 9.28125 70.21875 
z
" id="DejaVuSans-116"/>
     <path d="M 30.609375 48.390625 
Q 23.390625 48.390625 19.1875 42.75 
Q 14.984375 37.109375 14.984375 27.296875 
Q 14.984375 17.484375 19.15625 11.84375 
Q 23.34375 6.203125 30.609375 6.203125 
Q 37.796875 6.203125 41.984375 11.859375 
Q 46.1875 17.53125 46.1875 27.296875 
Q 46.1875 37.015625 41.984375 42.703125 
Q 37.796875 48.390625 30.609375 48.390625 
z
M 30.609375 56 
Q 42.328125 56 49.015625 48.375 
Q 55.71875 40.765625 55.71875 27.296875 
Q 55.71875 13.875 49.015625 6.21875 
Q 42.328125 -1.421875 30.609375 -1.421875 
Q 18.84375 -1.421875 12.171875 6.21875 
Q 5.515625 13.875 5.515625 27.296875 
Q 5.515625 40.765625 12.171875 48.375 
Q 18.84375 56 30.609375 56 
z
" id="DejaVuSans-111"/>
     <path id="DejaVuSans-32"/>
     <path d="M -0.296875 72.90625 
L 61.375 72.90625 
L 61.375 64.59375 
L 35.5 64.59375 
L 35.5 0 
L 25.59375 0 
L 25.59375 64.59375 
L -0.296875 64.59375 
z
" id="DejaVuSans-84"/>
     <path d="M 44.28125 53.078125 
L 44.28125 44.578125 
Q 40.484375 46.53125 36.375 47.5 
Q 32.28125 48.484375 27.875 48.484375 
Q 21.1875 48.484375 17.84375 46.4375 
Q 14.5 44.390625 14.5 40.28125 
Q 14.5 37.15625 16.890625 35.375 
Q 19.28125 33.59375 26.515625 31.984375 
L 29.59375 31.296875 
Q 39.15625 29.25 43.1875 25.515625 
Q 47.21875 21.78125 47.21875 15.09375 
Q 47.21875 7.46875 41.1875 3.015625 
Q 35.15625 -1.421875 24.609375 -1.421875 
Q 20.21875 -1.421875 15.453125 -0.5625 
Q 10.6875 0.296875 5.421875 2 
L 5.421875 11.28125 
Q 10.40625 8.6875 15.234375 7.390625 
Q 20.0625 6.109375 24.8125 6.109375 
Q 31.15625 6.109375 34.5625 8.28125 
Q 37.984375 10.453125 37.984375 14.40625 
Q 37.984375 18.0625 35.515625 20.015625 
Q 33.0625 21.96875 24.703125 23.78125 
L 21.578125 24.515625 
Q 13.234375 26.265625 9.515625 29.90625 
Q 5.8125 33.546875 5.8125 39.890625 
Q 5.8125 47.609375 11.28125 51.796875 
Q 16.75 56 26.8125 56 
Q 31.78125 56 36.171875 55.265625 
Q 40.578125 54.546875 44.28125 53.078125 
z
" id="DejaVuSans-115"/>
     <path d="M 37.109375 75.984375 
L 37.109375 68.5 
L 28.515625 68.5 
Q 23.6875 68.5 21.796875 66.546875 
Q 19.921875 64.59375 19.921875 59.515625 
L 19.921875 54.6875 
L 34.71875 54.6875 
L 34.71875 47.703125 
L 19.921875 47.703125 
L 19.921875 0 
L 10.890625 0 
L 10.890625 47.703125 
L 2.296875 47.703125 
L 2.296875 54.6875 
L 10.890625 54.6875 
L 10.890625 58.5 
Q 10.890625 67.625 15.140625 71.796875 
Q 19.390625 75.984375 28.609375 75.984375 
z
" id="DejaVuSans-102"/>
     <path d="M 19.671875 64.796875 
L 19.671875 8.109375 
L 31.59375 8.109375 
Q 46.6875 8.109375 53.6875 14.9375 
Q 60.6875 21.78125 60.6875 36.53125 
Q 60.6875 51.171875 53.6875 57.984375 
Q 46.6875 64.796875 31.59375 64.796875 
z
M 9.8125 72.90625 
L 30.078125 72.90625 
Q 51.265625 72.90625 61.171875 64.09375 
Q 71.09375 55.28125 71.09375 36.53125 
Q 71.09375 17.671875 61.125 8.828125 
Q 51.171875 0 30.078125 0 
L 9.8125 0 
z
" id="DejaVuSans-68"/>
    </defs>
    <g transform="translate(163.8765 40.54521)scale(0.2016 -0.2016)">
     <use xlink:href="#DejaVuSans-80"/>
     <use x="60.255859" xlink:href="#DejaVuSans-101"/>
     <use x="121.779297" xlink:href="#DejaVuSans-114"/>
     <use x="162.876953" xlink:href="#DejaVuSans-109"/>
     <use x="260.289062" xlink:href="#DejaVuSans-117"/>
     <use x="323.667969" xlink:href="#DejaVuSans-116"/>
     <use x="362.876953" xlink:href="#DejaVuSans-97"/>
     <use x="424.15625" xlink:href="#DejaVuSans-116"/>
     <use x="463.365234" xlink:href="#DejaVuSans-105"/>
     <use x="491.148438" xlink:href="#DejaVuSans-111"/>
     <use x="552.330078" xlink:href="#DejaVuSans-110"/>
     <use x="615.708984" xlink:href="#DejaVuSans-32"/>
     <use x="647.496094" xlink:href="#DejaVuSans-84"/>
     <use x="708.314453" xlink:href="#DejaVuSans-101"/>
     <use x="769.837891" xlink:href="#DejaVuSans-115"/>
     <use x="821.9375" xlink:href="#DejaVuSans-116"/>
     <use x="861.146484" xlink:href="#DejaVuSans-32"/>
     <use x="892.933594" xlink:href="#DejaVuSans-102"/>
     <use x="928.138672" xlink:href="#DejaVuSans-111"/>
     <use x="989.320312" xlink:href="#DejaVuSans-114"/>
     <use x="1030.433594" xlink:href="#DejaVuSans-32"/>
     <use x="1062.220703" xlink:href="#DejaVuSans-86"/>
     <use x="1130.519531" xlink:href="#DejaVuSans-97"/>
     <use x="1191.798828" xlink:href="#DejaVuSans-114"/>
     <use x="1232.912109" xlink:href="#DejaVuSans-105"/>
     <use x="1260.695312" xlink:href="#DejaVuSans-97"/>
     <use x="1321.974609" xlink:href="#DejaVuSans-110"/>
     <use x="1385.353516" xlink:href="#DejaVuSans-99"/>
     <use x="1440.333984" xlink:href="#DejaVuSans-101"/>
     <use x="1501.857422" xlink:href="#DejaVuSans-32"/>
     <use x="1533.644531" xlink:href="#DejaVuSans-68"/>
     <use x="1610.646484" xlink:href="#DejaVuSans-105"/>
     <use x="1638.429688" xlink:href="#DejaVuSans-102"/>
     <use x="1673.634766" xlink:href="#DejaVuSans-102"/>
     <use x="1708.839844" xlink:href="#DejaVuSans-101"/>
     <use x="1770.363281" xlink:href="#DejaVuSans-114"/>
     <use x="1811.445312" xlink:href="#DejaVuSans-101"/>
     <use x="1872.96875" xlink:href="#DejaVuSans-110"/>
     <use x="1936.347656" xlink:href="#DejaVuSans-99"/>
     <use x="1991.328125" xlink:href="#DejaVuSans-101"/>
    </g>
    <!--  -->
    <g transform="translate(370.8 63.12)scale(0.2016 -0.2016)"/>
   </g>
  </g>
 </g>
 <defs>
  <clipPath id="p418d63c7a5">
   <rect height="466.56" width="626.4" x="57.6" y="69.12"/>
  </clipPath>
 </defs>
</svg>
