<?xml version="1.0" encoding="utf-8" standalone="no"?>
<!DOCTYPE svg PUBLIC "-//W3C//DTD SVG 1.1//EN"
  "http://www.w3.org/Graphics/SVG/1.1/DTD/svg11.dtd">
<!-- Created with matplotlib (https://matplotlib.org/) -->
<svg height="576pt" version="1.1" viewBox="0 0 720 576" width="720pt" xmlns="http://www.w3.org/2000/svg" xmlns:xlink="http://www.w3.org/1999/xlink">
 <defs>
  <style type="text/css">
*{stroke-linecap:butt;stroke-linejoin:round;}
  </style>
 </defs>
 <g id="figure_1">
  <g id="patch_1">
   <path d="M 0 576 
L 720 576 
L 720 0 
L 0 0 
z
" style="fill:#ffffff;"/>
  </g>
  <g id="axes_1">
   <g id="patch_2">
    <path d="M 57.6 535.68 
L 684 535.68 
L 684 69.12 
L 57.6 69.12 
z
" style="fill:#ffffff;"/>
   </g>
   <g id="matplotlib.axis_1"/>
   <g id="matplotlib.axis_2">
    <g id="ytick_1">
     <g id="line2d_1">
      <path clip-path="url(#p39074b19b5)" d="M 57.6 535.68 
L 684 535.68 
" style="fill:none;stroke:#cbcbcb;"/>
     </g>
     <g id="line2d_2"/>
     <g id="text_1">
      <!-- 0 -->
      <defs>
       <path d="M 31.78125 66.40625 
Q 24.171875 66.40625 20.328125 58.90625 
Q 16.5 51.421875 16.5 36.375 
Q 16.5 21.390625 20.328125 13.890625 
Q 24.171875 6.390625 31.78125 6.390625 
Q 39.453125 6.390625 43.28125 13.890625 
Q 47.125 21.390625 47.125 36.375 
Q 47.125 51.421875 43.28125 58.90625 
Q 39.453125 66.40625 31.78125 66.40625 
z
M 31.78125 74.21875 
Q 44.046875 74.21875 50.515625 64.515625 
Q 56.984375 54.828125 56.984375 36.375 
Q 56.984375 17.96875 50.515625 8.265625 
Q 44.046875 -1.421875 31.78125 -1.421875 
Q 19.53125 -1.421875 13.0625 8.265625 
Q 6.59375 17.96875 6.59375 36.375 
Q 6.59375 54.828125 13.0625 64.515625 
Q 19.53125 74.21875 31.78125 74.21875 
z
" id="DejaVuSans-48"/>
      </defs>
      <g transform="translate(45.1925 540.998906)scale(0.14 -0.14)">
       <use xlink:href="#DejaVuSans-48"/>
      </g>
     </g>
    </g>
    <g id="ytick_2">
     <g id="line2d_3">
      <path clip-path="url(#p39074b19b5)" d="M 57.6 450.317985 
L 684 450.317985 
" style="fill:none;stroke:#cbcbcb;"/>
     </g>
     <g id="line2d_4"/>
     <g id="text_2">
      <!-- 500000 -->
      <defs>
       <path d="M 10.796875 72.90625 
L 49.515625 72.90625 
L 49.515625 64.59375 
L 19.828125 64.59375 
L 19.828125 46.734375 
Q 21.96875 47.46875 24.109375 47.828125 
Q 26.265625 48.1875 28.421875 48.1875 
Q 40.625 48.1875 47.75 41.5 
Q 54.890625 34.8125 54.890625 23.390625 
Q 54.890625 11.625 47.5625 5.09375 
Q 40.234375 -1.421875 26.90625 -1.421875 
Q 22.3125 -1.421875 17.546875 -0.640625 
Q 12.796875 0.140625 7.71875 1.703125 
L 7.71875 11.625 
Q 12.109375 9.234375 16.796875 8.0625 
Q 21.484375 6.890625 26.703125 6.890625 
Q 35.15625 6.890625 40.078125 11.328125 
Q 45.015625 15.765625 45.015625 23.390625 
Q 45.015625 31 40.078125 35.4375 
Q 35.15625 39.890625 26.703125 39.890625 
Q 22.75 39.890625 18.8125 39.015625 
Q 14.890625 38.140625 10.796875 36.28125 
z
" id="DejaVuSans-53"/>
      </defs>
      <g transform="translate(0.655 455.636891)scale(0.14 -0.14)">
       <use xlink:href="#DejaVuSans-53"/>
       <use x="63.623047" xlink:href="#DejaVuSans-48"/>
       <use x="127.246094" xlink:href="#DejaVuSans-48"/>
       <use x="190.869141" xlink:href="#DejaVuSans-48"/>
       <use x="254.492188" xlink:href="#DejaVuSans-48"/>
       <use x="318.115234" xlink:href="#DejaVuSans-48"/>
      </g>
     </g>
    </g>
    <g id="ytick_3">
     <g id="line2d_5">
      <path clip-path="url(#p39074b19b5)" d="M 57.6 364.95597 
L 684 364.95597 
" style="fill:none;stroke:#cbcbcb;"/>
     </g>
     <g id="line2d_6"/>
     <g id="text_3">
      <!-- 1000000 -->
      <defs>
       <path d="M 12.40625 8.296875 
L 28.515625 8.296875 
L 28.515625 63.921875 
L 10.984375 60.40625 
L 10.984375 69.390625 
L 28.421875 72.90625 
L 38.28125 72.90625 
L 38.28125 8.296875 
L 54.390625 8.296875 
L 54.390625 0 
L 12.40625 0 
z
" id="DejaVuSans-49"/>
      </defs>
      <g transform="translate(-8.2525 370.274876)scale(0.14 -0.14)">
       <use xlink:href="#DejaVuSans-49"/>
       <use x="63.623047" xlink:href="#DejaVuSans-48"/>
       <use x="127.246094" xlink:href="#DejaVuSans-48"/>
       <use x="190.869141" xlink:href="#DejaVuSans-48"/>
       <use x="254.492188" xlink:href="#DejaVuSans-48"/>
       <use x="318.115234" xlink:href="#DejaVuSans-48"/>
       <use x="381.738281" xlink:href="#DejaVuSans-48"/>
      </g>
     </g>
    </g>
    <g id="ytick_4">
     <g id="line2d_7">
      <path clip-path="url(#p39074b19b5)" d="M 57.6 279.593955 
L 684 279.593955 
" style="fill:none;stroke:#cbcbcb;"/>
     </g>
     <g id="line2d_8"/>
     <g id="text_4">
      <!-- 1500000 -->
      <g transform="translate(-8.2525 284.912861)scale(0.14 -0.14)">
       <use xlink:href="#DejaVuSans-49"/>
       <use x="63.623047" xlink:href="#DejaVuSans-53"/>
       <use x="127.246094" xlink:href="#DejaVuSans-48"/>
       <use x="190.869141" xlink:href="#DejaVuSans-48"/>
       <use x="254.492188" xlink:href="#DejaVuSans-48"/>
       <use x="318.115234" xlink:href="#DejaVuSans-48"/>
       <use x="381.738281" xlink:href="#DejaVuSans-48"/>
      </g>
     </g>
    </g>
    <g id="ytick_5">
     <g id="line2d_9">
      <path clip-path="url(#p39074b19b5)" d="M 57.6 194.23194 
L 684 194.23194 
" style="fill:none;stroke:#cbcbcb;"/>
     </g>
     <g id="line2d_10"/>
     <g id="text_5">
      <!-- 2000000 -->
      <defs>
       <path d="M 19.1875 8.296875 
L 53.609375 8.296875 
L 53.609375 0 
L 7.328125 0 
L 7.328125 8.296875 
Q 12.9375 14.109375 22.625 23.890625 
Q 32.328125 33.6875 34.8125 36.53125 
Q 39.546875 41.84375 41.421875 45.53125 
Q 43.3125 49.21875 43.3125 52.78125 
Q 43.3125 58.59375 39.234375 62.25 
Q 35.15625 65.921875 28.609375 65.921875 
Q 23.96875 65.921875 18.8125 64.3125 
Q 13.671875 62.703125 7.8125 59.421875 
L 7.8125 69.390625 
Q 13.765625 71.78125 18.9375 73 
Q 24.125 74.21875 28.421875 74.21875 
Q 39.75 74.21875 46.484375 68.546875 
Q 53.21875 62.890625 53.21875 53.421875 
Q 53.21875 48.921875 51.53125 44.890625 
Q 49.859375 40.875 45.40625 35.40625 
Q 44.1875 33.984375 37.640625 27.21875 
Q 31.109375 20.453125 19.1875 8.296875 
z
" id="DejaVuSans-50"/>
      </defs>
      <g transform="translate(-8.2525 199.550846)scale(0.14 -0.14)">
       <use xlink:href="#DejaVuSans-50"/>
       <use x="63.623047" xlink:href="#DejaVuSans-48"/>
       <use x="127.246094" xlink:href="#DejaVuSans-48"/>
       <use x="190.869141" xlink:href="#DejaVuSans-48"/>
       <use x="254.492188" xlink:href="#DejaVuSans-48"/>
       <use x="318.115234" xlink:href="#DejaVuSans-48"/>
       <use x="381.738281" xlink:href="#DejaVuSans-48"/>
      </g>
     </g>
    </g>
    <g id="ytick_6">
     <g id="line2d_11">
      <path clip-path="url(#p39074b19b5)" d="M 57.6 108.869925 
L 684 108.869925 
" style="fill:none;stroke:#cbcbcb;"/>
     </g>
     <g id="line2d_12"/>
     <g id="text_6">
      <!-- 2500000 -->
      <g transform="translate(-8.2525 114.188831)scale(0.14 -0.14)">
       <use xlink:href="#DejaVuSans-50"/>
       <use x="63.623047" xlink:href="#DejaVuSans-53"/>
       <use x="127.246094" xlink:href="#DejaVuSans-48"/>
       <use x="190.869141" xlink:href="#DejaVuSans-48"/>
       <use x="254.492188" xlink:href="#DejaVuSans-48"/>
       <use x="318.115234" xlink:href="#DejaVuSans-48"/>
       <use x="381.738281" xlink:href="#DejaVuSans-48"/>
      </g>
     </g>
    </g>
   </g>
   <g id="patch_3">
    <path clip-path="url(#p39074b19b5)" d="M 86.072728 535.68 
L 97.461819 535.68 
L 97.461819 535.205767 
L 86.072728 535.205767 
z
" style="fill:#204fab;opacity:0.4;"/>
   </g>
   <g id="patch_4">
    <path clip-path="url(#p39074b19b5)" d="M 97.461819 535.68 
L 108.85091 535.68 
L 108.85091 535.68 
L 97.461819 535.68 
z
" style="fill:#204fab;opacity:0.4;"/>
   </g>
   <g id="patch_5">
    <path clip-path="url(#p39074b19b5)" d="M 108.85091 535.68 
L 120.24 535.68 
L 120.24 535.68 
L 108.85091 535.68 
z
" style="fill:#204fab;opacity:0.4;"/>
   </g>
   <g id="patch_6">
    <path clip-path="url(#p39074b19b5)" d="M 120.24 535.68 
L 131.629091 535.68 
L 131.629091 535.68 
L 120.24 535.68 
z
" style="fill:#204fab;opacity:0.4;"/>
   </g>
   <g id="patch_7">
    <path clip-path="url(#p39074b19b5)" d="M 131.629091 535.68 
L 143.018182 535.68 
L 143.018182 535.68 
L 131.629091 535.68 
z
" style="fill:#204fab;opacity:0.4;"/>
   </g>
   <g id="patch_8">
    <path clip-path="url(#p39074b19b5)" d="M 143.018182 535.68 
L 154.407273 535.68 
L 154.407273 533.308833 
L 143.018182 533.308833 
z
" style="fill:#204fab;opacity:0.4;"/>
   </g>
   <g id="patch_9">
    <path clip-path="url(#p39074b19b5)" d="M 154.407273 535.68 
L 165.796364 535.68 
L 165.796364 535.68 
L 154.407273 535.68 
z
" style="fill:#204fab;opacity:0.4;"/>
   </g>
   <g id="patch_10">
    <path clip-path="url(#p39074b19b5)" d="M 165.796364 535.68 
L 177.185455 535.68 
L 177.185455 535.68 
L 165.796364 535.68 
z
" style="fill:#204fab;opacity:0.4;"/>
   </g>
   <g id="patch_11">
    <path clip-path="url(#p39074b19b5)" d="M 177.185455 535.68 
L 188.574546 535.68 
L 188.574546 534.731533 
L 177.185455 534.731533 
z
" style="fill:#204fab;opacity:0.4;"/>
   </g>
   <g id="patch_12">
    <path clip-path="url(#p39074b19b5)" d="M 188.574546 535.68 
L 199.963637 535.68 
L 199.963637 535.68 
L 188.574546 535.68 
z
" style="fill:#204fab;opacity:0.4;"/>
   </g>
   <g id="patch_13">
    <path clip-path="url(#p39074b19b5)" d="M 199.963637 535.68 
L 211.352728 535.68 
L 211.352728 535.68 
L 199.963637 535.68 
z
" style="fill:#204fab;opacity:0.4;"/>
   </g>
   <g id="patch_14">
    <path clip-path="url(#p39074b19b5)" d="M 211.352728 535.68 
L 222.741818 535.68 
L 222.741818 530.463432 
L 211.352728 530.463432 
z
" style="fill:#204fab;opacity:0.4;"/>
   </g>
   <g id="patch_15">
    <path clip-path="url(#p39074b19b5)" d="M 222.741818 535.68 
L 234.130909 535.68 
L 234.130909 535.68 
L 222.741818 535.68 
z
" style="fill:#204fab;opacity:0.4;"/>
   </g>
   <g id="patch_16">
    <path clip-path="url(#p39074b19b5)" d="M 234.130909 535.68 
L 245.52 535.68 
L 245.52 534.731533 
L 234.130909 534.731533 
z
" style="fill:#204fab;opacity:0.4;"/>
   </g>
   <g id="patch_17">
    <path clip-path="url(#p39074b19b5)" d="M 245.52 535.68 
L 256.909091 535.68 
L 256.909091 535.68 
L 245.52 535.68 
z
" style="fill:#204fab;opacity:0.4;"/>
   </g>
   <g id="patch_18">
    <path clip-path="url(#p39074b19b5)" d="M 256.909091 535.68 
L 268.298182 535.68 
L 268.298182 535.68 
L 256.909091 535.68 
z
" style="fill:#204fab;opacity:0.4;"/>
   </g>
   <g id="patch_19">
    <path clip-path="url(#p39074b19b5)" d="M 268.298182 535.68 
L 279.687273 535.68 
L 279.687273 449.843751 
L 268.298182 449.843751 
z
" style="fill:#204fab;opacity:0.4;"/>
   </g>
   <g id="patch_20">
    <path clip-path="url(#p39074b19b5)" d="M 279.687273 535.68 
L 291.076364 535.68 
L 291.076364 535.68 
L 279.687273 535.68 
z
" style="fill:#204fab;opacity:0.4;"/>
   </g>
   <g id="patch_21">
    <path clip-path="url(#p39074b19b5)" d="M 291.076364 535.68 
L 302.465455 535.68 
L 302.465455 535.68 
L 291.076364 535.68 
z
" style="fill:#204fab;opacity:0.4;"/>
   </g>
   <g id="patch_22">
    <path clip-path="url(#p39074b19b5)" d="M 302.465455 535.68 
L 313.854546 535.68 
L 313.854546 534.2573 
L 302.465455 534.2573 
z
" style="fill:#204fab;opacity:0.4;"/>
   </g>
   <g id="patch_23">
    <path clip-path="url(#p39074b19b5)" d="M 313.854546 535.68 
L 325.243636 535.68 
L 325.243636 535.68 
L 313.854546 535.68 
z
" style="fill:#204fab;opacity:0.4;"/>
   </g>
   <g id="patch_24">
    <path clip-path="url(#p39074b19b5)" d="M 325.243636 535.68 
L 336.632727 535.68 
L 336.632727 535.68 
L 325.243636 535.68 
z
" style="fill:#204fab;opacity:0.4;"/>
   </g>
   <g id="patch_25">
    <path clip-path="url(#p39074b19b5)" d="M 336.632727 535.68 
L 348.021818 535.68 
L 348.021818 516.710663 
L 336.632727 516.710663 
z
" style="fill:#204fab;opacity:0.4;"/>
   </g>
   <g id="patch_26">
    <path clip-path="url(#p39074b19b5)" d="M 348.021818 535.68 
L 359.410909 535.68 
L 359.410909 535.68 
L 348.021818 535.68 
z
" style="fill:#204fab;opacity:0.4;"/>
   </g>
   <g id="patch_27">
    <path clip-path="url(#p39074b19b5)" d="M 359.410909 535.68 
L 370.8 535.68 
L 370.8 533.783066 
L 359.410909 533.783066 
z
" style="fill:#204fab;opacity:0.4;"/>
   </g>
   <g id="patch_28">
    <path clip-path="url(#p39074b19b5)" d="M 370.8 535.68 
L 382.189091 535.68 
L 382.189091 535.68 
L 370.8 535.68 
z
" style="fill:#204fab;opacity:0.4;"/>
   </g>
   <g id="patch_29">
    <path clip-path="url(#p39074b19b5)" d="M 382.189091 535.68 
L 393.578182 535.68 
L 393.578182 535.68 
L 382.189091 535.68 
z
" style="fill:#204fab;opacity:0.4;"/>
   </g>
   <g id="patch_30">
    <path clip-path="url(#p39074b19b5)" d="M 393.578182 535.68 
L 404.967273 535.68 
L 404.967273 285.284756 
L 393.578182 285.284756 
z
" style="fill:#204fab;opacity:0.4;"/>
   </g>
   <g id="patch_31">
    <path clip-path="url(#p39074b19b5)" d="M 404.967273 535.68 
L 416.356364 535.68 
L 416.356364 535.68 
L 404.967273 535.68 
z
" style="fill:#204fab;opacity:0.4;"/>
   </g>
   <g id="patch_32">
    <path clip-path="url(#p39074b19b5)" d="M 416.356364 535.68 
L 427.745454 535.68 
L 427.745454 535.68 
L 416.356364 535.68 
z
" style="fill:#204fab;opacity:0.4;"/>
   </g>
   <g id="patch_33">
    <path clip-path="url(#p39074b19b5)" d="M 427.745454 535.68 
L 439.134545 535.68 
L 439.134545 530.937666 
L 427.745454 530.937666 
z
" style="fill:#204fab;opacity:0.4;"/>
   </g>
   <g id="patch_34">
    <path clip-path="url(#p39074b19b5)" d="M 439.134545 535.68 
L 450.523636 535.68 
L 450.523636 535.68 
L 439.134545 535.68 
z
" style="fill:#204fab;opacity:0.4;"/>
   </g>
   <g id="patch_35">
    <path clip-path="url(#p39074b19b5)" d="M 450.523636 535.68 
L 461.912727 535.68 
L 461.912727 535.68 
L 450.523636 535.68 
z
" style="fill:#204fab;opacity:0.4;"/>
   </g>
   <g id="patch_36">
    <path clip-path="url(#p39074b19b5)" d="M 461.912727 535.68 
L 473.301818 535.68 
L 473.301818 522.401464 
L 461.912727 522.401464 
z
" style="fill:#204fab;opacity:0.4;"/>
   </g>
   <g id="patch_37">
    <path clip-path="url(#p39074b19b5)" d="M 473.301818 535.68 
L 484.690909 535.68 
L 484.690909 535.68 
L 473.301818 535.68 
z
" style="fill:#204fab;opacity:0.4;"/>
   </g>
   <g id="patch_38">
    <path clip-path="url(#p39074b19b5)" d="M 484.690909 535.68 
L 496.08 535.68 
L 496.08 535.68 
L 484.690909 535.68 
z
" style="fill:#204fab;opacity:0.4;"/>
   </g>
   <g id="patch_39">
    <path clip-path="url(#p39074b19b5)" d="M 496.08 535.68 
L 507.469091 535.68 
L 507.469091 533.308833 
L 496.08 533.308833 
z
" style="fill:#204fab;opacity:0.4;"/>
   </g>
   <g id="patch_40">
    <path clip-path="url(#p39074b19b5)" d="M 507.469091 535.68 
L 518.858182 535.68 
L 518.858182 535.68 
L 507.469091 535.68 
z
" style="fill:#204fab;opacity:0.4;"/>
   </g>
   <g id="patch_41">
    <path clip-path="url(#p39074b19b5)" d="M 518.858182 535.68 
L 530.247272 535.68 
L 530.247272 457.90572 
L 518.858182 457.90572 
z
" style="fill:#204fab;opacity:0.4;"/>
   </g>
   <g id="patch_42">
    <path clip-path="url(#p39074b19b5)" d="M 530.247272 535.68 
L 541.636363 535.68 
L 541.636363 535.68 
L 530.247272 535.68 
z
" style="fill:#204fab;opacity:0.4;"/>
   </g>
   <g id="patch_43">
    <path clip-path="url(#p39074b19b5)" d="M 541.636363 535.68 
L 553.025454 535.68 
L 553.025454 535.68 
L 541.636363 535.68 
z
" style="fill:#204fab;opacity:0.4;"/>
   </g>
   <g id="patch_44">
    <path clip-path="url(#p39074b19b5)" d="M 553.025454 535.68 
L 564.414545 535.68 
L 564.414545 535.68 
L 553.025454 535.68 
z
" style="fill:#204fab;opacity:0.4;"/>
   </g>
   <g id="patch_45">
    <path clip-path="url(#p39074b19b5)" d="M 564.414545 535.68 
L 575.803636 535.68 
L 575.803636 535.68 
L 564.414545 535.68 
z
" style="fill:#204fab;opacity:0.4;"/>
   </g>
   <g id="patch_46">
    <path clip-path="url(#p39074b19b5)" d="M 575.803636 535.68 
L 587.192727 535.68 
L 587.192727 535.68 
L 575.803636 535.68 
z
" style="fill:#204fab;opacity:0.4;"/>
   </g>
   <g id="patch_47">
    <path clip-path="url(#p39074b19b5)" d="M 587.192727 535.68 
L 598.581818 535.68 
L 598.581818 530.463432 
L 587.192727 530.463432 
z
" style="fill:#204fab;opacity:0.4;"/>
   </g>
   <g id="patch_48">
    <path clip-path="url(#p39074b19b5)" d="M 598.581818 535.68 
L 609.970909 535.68 
L 609.970909 535.68 
L 598.581818 535.68 
z
" style="fill:#204fab;opacity:0.4;"/>
   </g>
   <g id="patch_49">
    <path clip-path="url(#p39074b19b5)" d="M 609.970909 535.68 
L 621.36 535.68 
L 621.36 535.68 
L 609.970909 535.68 
z
" style="fill:#204fab;opacity:0.4;"/>
   </g>
   <g id="patch_50">
    <path clip-path="url(#p39074b19b5)" d="M 621.36 535.68 
L 632.74909 535.68 
L 632.74909 535.68 
L 621.36 535.68 
z
" style="fill:#204fab;opacity:0.4;"/>
   </g>
   <g id="patch_51">
    <path clip-path="url(#p39074b19b5)" d="M 632.74909 535.68 
L 644.138181 535.68 
L 644.138181 535.68 
L 632.74909 535.68 
z
" style="fill:#204fab;opacity:0.4;"/>
   </g>
   <g id="patch_52">
    <path clip-path="url(#p39074b19b5)" d="M 644.138181 535.68 
L 655.527272 535.68 
L 655.527272 533.308833 
L 644.138181 533.308833 
z
" style="fill:#204fab;opacity:0.4;"/>
   </g>
   <g id="line2d_13">
    <path clip-path="url(#p39074b19b5)" d="M 86.072727 535.68 
L 90.556621 533.20427 
L 95.040515 535.68 
L 99.524409 534.297921 
L 104.008304 535.68 
L 108.492198 534.82266 
L 112.976092 535.68 
L 117.459986 535.202436 
L 121.94388 535.68 
L 130.911668 535.518129 
L 135.395562 535.68 
L 139.879456 534.616631 
L 144.36335 535.68 
L 148.847244 527.353654 
L 153.331138 535.68 
L 157.815032 534.589904 
L 162.298926 535.68 
L 166.78282 535.139146 
L 171.266714 535.68 
L 175.750608 535.68 
L 180.234503 533.552806 
L 184.718397 534.857349 
L 189.202291 535.68 
L 193.686185 534.160826 
L 198.170079 535.68 
L 202.653973 532.507127 
L 207.137867 535.68 
L 211.621761 518.900858 
L 216.105655 535.68 
L 220.589549 532.514305 
L 225.073443 535.68 
L 229.557337 532.40266 
L 234.041231 535.68 
L 238.525125 531.759236 
L 243.009019 535.68 
L 247.492913 528.445567 
L 251.976807 535.68 
L 256.460702 523.467 
L 260.944596 535.68 
L 265.42849 507.809724 
L 269.912384 535.68 
L 274.396278 331.335877 
L 278.880172 488.355222 
L 283.364066 530.821786 
L 287.84796 535.68 
L 292.331854 530.103172 
L 296.815748 535.68 
L 301.299642 532.353579 
L 305.783536 535.68 
L 310.26743 531.444083 
L 314.751324 535.68 
L 319.235218 532.880018 
L 323.719112 535.68 
L 328.203006 531.364182 
L 332.686901 535.68 
L 337.170795 501.87781 
L 341.654689 513.664114 
L 346.138583 535.68 
L 350.622477 534.239004 
L 355.106371 535.68 
L 359.590265 534.778028 
L 364.074159 535.68 
L 368.558053 532.494697 
L 373.041947 532.978431 
L 377.525841 535.68 
L 382.009735 533.361669 
L 386.493629 535.68 
L 390.977523 521.986994 
L 395.461417 535.68 
L 399.945311 245.83697 
L 404.429205 91.337143 
L 408.913099 535.68 
L 413.396994 486.759125 
L 417.880888 535.68 
L 422.364782 515.160032 
L 426.848676 535.68 
L 431.33257 519.855021 
L 435.816464 535.420796 
L 440.300358 529.908815 
L 444.784252 535.68 
L 449.268146 529.866279 
L 453.75204 535.68 
L 458.235934 530.506968 
L 462.719828 532.643797 
L 467.203722 499.833101 
L 471.687616 535.68 
L 476.17151 526.970004 
L 480.655404 535.68 
L 485.139298 528.839495 
L 489.623193 535.68 
L 494.107087 527.427584 
L 498.590981 535.68 
L 503.074875 527.658254 
L 507.558769 535.68 
L 512.042663 521.971485 
L 516.526557 535.68 
L 521.010451 512.333679 
L 525.494345 535.68 
L 529.978239 301.497508 
L 534.462133 535.68 
L 538.946027 498.461902 
L 543.429921 535.68 
L 547.913815 517.91868 
L 552.397709 535.68 
L 556.881603 524.871229 
L 561.365497 535.68 
L 565.849392 528.047673 
L 570.333286 535.68 
L 574.81718 529.446293 
L 579.301074 535.68 
L 583.784968 529.314096 
L 588.268862 535.68 
L 592.752756 513.935876 
L 597.23665 535.68 
L 601.720544 530.161869 
L 606.204438 535.68 
L 610.688332 532.182261 
L 615.172226 535.68 
L 619.65612 533.019229 
L 624.140014 535.68 
L 628.623908 533.40094 
L 633.107802 535.68 
L 637.591696 533.430831 
L 642.075591 535.68 
L 646.559485 532.791711 
L 651.043379 535.68 
L 655.527273 524.749673 
L 655.527273 524.749673 
" style="fill:none;stroke:#204fab;stroke-width:4;"/>
   </g>
   <g id="line2d_14">
    <path clip-path="url(#p39074b19b5)" d="M 86.072728 535.68 
L 86.072728 69.12 
" style="fill:none;stroke:#ff0000;stroke-width:4;"/>
   </g>
   <g id="patch_53">
    <path d="M 57.6 535.68 
L 57.6 69.12 
" style="fill:none;stroke:#f0f0f0;stroke-linecap:square;stroke-linejoin:miter;stroke-width:3;"/>
   </g>
   <g id="patch_54">
    <path d="M 684 535.68 
L 684 69.12 
" style="fill:none;stroke:#f0f0f0;stroke-linecap:square;stroke-linejoin:miter;stroke-width:3;"/>
   </g>
   <g id="patch_55">
    <path d="M 57.6 535.68 
L 684 535.68 
" style="fill:none;stroke:#f0f0f0;stroke-linecap:square;stroke-linejoin:miter;stroke-width:3;"/>
   </g>
   <g id="patch_56">
    <path d="M 57.6 69.12 
L 684 69.12 
" style="fill:none;stroke:#f0f0f0;stroke-linecap:square;stroke-linejoin:miter;stroke-width:3;"/>
   </g>
   <g id="text_7">
    <!-- Permutation Test for Median Difference -->
    <defs>
     <path d="M 19.671875 64.796875 
L 19.671875 37.40625 
L 32.078125 37.40625 
Q 38.96875 37.40625 42.71875 40.96875 
Q 46.484375 44.53125 46.484375 51.125 
Q 46.484375 57.671875 42.71875 61.234375 
Q 38.96875 64.796875 32.078125 64.796875 
z
M 9.8125 72.90625 
L 32.078125 72.90625 
Q 44.34375 72.90625 50.609375 67.359375 
Q 56.890625 61.8125 56.890625 51.125 
Q 56.890625 40.328125 50.609375 34.8125 
Q 44.34375 29.296875 32.078125 29.296875 
L 19.671875 29.296875 
L 19.671875 0 
L 9.8125 0 
z
" id="DejaVuSans-80"/>
     <path d="M 56.203125 29.59375 
L 56.203125 25.203125 
L 14.890625 25.203125 
Q 15.484375 15.921875 20.484375 11.0625 
Q 25.484375 6.203125 34.421875 6.203125 
Q 39.59375 6.203125 44.453125 7.46875 
Q 49.3125 8.734375 54.109375 11.28125 
L 54.109375 2.78125 
Q 49.265625 0.734375 44.1875 -0.34375 
Q 39.109375 -1.421875 33.890625 -1.421875 
Q 20.796875 -1.421875 13.15625 6.1875 
Q 5.515625 13.8125 5.515625 26.8125 
Q 5.515625 40.234375 12.765625 48.109375 
Q 20.015625 56 32.328125 56 
Q 43.359375 56 49.78125 48.890625 
Q 56.203125 41.796875 56.203125 29.59375 
z
M 47.21875 32.234375 
Q 47.125 39.59375 43.09375 43.984375 
Q 39.0625 48.390625 32.421875 48.390625 
Q 24.90625 48.390625 20.390625 44.140625 
Q 15.875 39.890625 15.1875 32.171875 
z
" id="DejaVuSans-101"/>
     <path d="M 41.109375 46.296875 
Q 39.59375 47.171875 37.8125 47.578125 
Q 36.03125 48 33.890625 48 
Q 26.265625 48 22.1875 43.046875 
Q 18.109375 38.09375 18.109375 28.8125 
L 18.109375 0 
L 9.078125 0 
L 9.078125 54.6875 
L 18.109375 54.6875 
L 18.109375 46.1875 
Q 20.953125 51.171875 25.484375 53.578125 
Q 30.03125 56 36.53125 56 
Q 37.453125 56 38.578125 55.875 
Q 39.703125 55.765625 41.0625 55.515625 
z
" id="DejaVuSans-114"/>
     <path d="M 52 44.1875 
Q 55.375 50.25 60.0625 53.125 
Q 64.75 56 71.09375 56 
Q 79.640625 56 84.28125 50.015625 
Q 88.921875 44.046875 88.921875 33.015625 
L 88.921875 0 
L 79.890625 0 
L 79.890625 32.71875 
Q 79.890625 40.578125 77.09375 44.375 
Q 74.3125 48.1875 68.609375 48.1875 
Q 61.625 48.1875 57.5625 43.546875 
Q 53.515625 38.921875 53.515625 30.90625 
L 53.515625 0 
L 44.484375 0 
L 44.484375 32.71875 
Q 44.484375 40.625 41.703125 44.40625 
Q 38.921875 48.1875 33.109375 48.1875 
Q 26.21875 48.1875 22.15625 43.53125 
Q 18.109375 38.875 18.109375 30.90625 
L 18.109375 0 
L 9.078125 0 
L 9.078125 54.6875 
L 18.109375 54.6875 
L 18.109375 46.1875 
Q 21.1875 51.21875 25.484375 53.609375 
Q 29.78125 56 35.6875 56 
Q 41.65625 56 45.828125 52.96875 
Q 50 49.953125 52 44.1875 
z
" id="DejaVuSans-109"/>
     <path d="M 8.5 21.578125 
L 8.5 54.6875 
L 17.484375 54.6875 
L 17.484375 21.921875 
Q 17.484375 14.15625 20.5 10.265625 
Q 23.53125 6.390625 29.59375 6.390625 
Q 36.859375 6.390625 41.078125 11.03125 
Q 45.3125 15.671875 45.3125 23.6875 
L 45.3125 54.6875 
L 54.296875 54.6875 
L 54.296875 0 
L 45.3125 0 
L 45.3125 8.40625 
Q 42.046875 3.421875 37.71875 1 
Q 33.40625 -1.421875 27.6875 -1.421875 
Q 18.265625 -1.421875 13.375 4.4375 
Q 8.5 10.296875 8.5 21.578125 
z
M 31.109375 56 
z
" id="DejaVuSans-117"/>
     <path d="M 18.3125 70.21875 
L 18.3125 54.6875 
L 36.8125 54.6875 
L 36.8125 47.703125 
L 18.3125 47.703125 
L 18.3125 18.015625 
Q 18.3125 11.328125 20.140625 9.421875 
Q 21.96875 7.515625 27.59375 7.515625 
L 36.8125 7.515625 
L 36.8125 0 
L 27.59375 0 
Q 17.1875 0 13.234375 3.875 
Q 9.28125 7.765625 9.28125 18.015625 
L 9.28125 47.703125 
L 2.6875 47.703125 
L 2.6875 54.6875 
L 9.28125 54.6875 
L 9.28125 70.21875 
z
" id="DejaVuSans-116"/>
     <path d="M 34.28125 27.484375 
Q 23.390625 27.484375 19.1875 25 
Q 14.984375 22.515625 14.984375 16.5 
Q 14.984375 11.71875 18.140625 8.90625 
Q 21.296875 6.109375 26.703125 6.109375 
Q 34.1875 6.109375 38.703125 11.40625 
Q 43.21875 16.703125 43.21875 25.484375 
L 43.21875 27.484375 
z
M 52.203125 31.203125 
L 52.203125 0 
L 43.21875 0 
L 43.21875 8.296875 
Q 40.140625 3.328125 35.546875 0.953125 
Q 30.953125 -1.421875 24.3125 -1.421875 
Q 15.921875 -1.421875 10.953125 3.296875 
Q 6 8.015625 6 15.921875 
Q 6 25.140625 12.171875 29.828125 
Q 18.359375 34.515625 30.609375 34.515625 
L 43.21875 34.515625 
L 43.21875 35.40625 
Q 43.21875 41.609375 39.140625 45 
Q 35.0625 48.390625 27.6875 48.390625 
Q 23 48.390625 18.546875 47.265625 
Q 14.109375 46.140625 10.015625 43.890625 
L 10.015625 52.203125 
Q 14.9375 54.109375 19.578125 55.046875 
Q 24.21875 56 28.609375 56 
Q 40.484375 56 46.34375 49.84375 
Q 52.203125 43.703125 52.203125 31.203125 
z
" id="DejaVuSans-97"/>
     <path d="M 9.421875 54.6875 
L 18.40625 54.6875 
L 18.40625 0 
L 9.421875 0 
z
M 9.421875 75.984375 
L 18.40625 75.984375 
L 18.40625 64.59375 
L 9.421875 64.59375 
z
" id="DejaVuSans-105"/>
     <path d="M 30.609375 48.390625 
Q 23.390625 48.390625 19.1875 42.75 
Q 14.984375 37.109375 14.984375 27.296875 
Q 14.984375 17.484375 19.15625 11.84375 
Q 23.34375 6.203125 30.609375 6.203125 
Q 37.796875 6.203125 41.984375 11.859375 
Q 46.1875 17.53125 46.1875 27.296875 
Q 46.1875 37.015625 41.984375 42.703125 
Q 37.796875 48.390625 30.609375 48.390625 
z
M 30.609375 56 
Q 42.328125 56 49.015625 48.375 
Q 55.71875 40.765625 55.71875 27.296875 
Q 55.71875 13.875 49.015625 6.21875 
Q 42.328125 -1.421875 30.609375 -1.421875 
Q 18.84375 -1.421875 12.171875 6.21875 
Q 5.515625 13.875 5.515625 27.296875 
Q 5.515625 40.765625 12.171875 48.375 
Q 18.84375 56 30.609375 56 
z
" id="DejaVuSans-111"/>
     <path d="M 54.890625 33.015625 
L 54.890625 0 
L 45.90625 0 
L 45.90625 32.71875 
Q 45.90625 40.484375 42.875 44.328125 
Q 39.84375 48.1875 33.796875 48.1875 
Q 26.515625 48.1875 22.3125 43.546875 
Q 18.109375 38.921875 18.109375 30.90625 
L 18.109375 0 
L 9.078125 0 
L 9.078125 54.6875 
L 18.109375 54.6875 
L 18.109375 46.1875 
Q 21.34375 51.125 25.703125 53.5625 
Q 30.078125 56 35.796875 56 
Q 45.21875 56 50.046875 50.171875 
Q 54.890625 44.34375 54.890625 33.015625 
z
" id="DejaVuSans-110"/>
     <path id="DejaVuSans-32"/>
     <path d="M -0.296875 72.90625 
L 61.375 72.90625 
L 61.375 64.59375 
L 35.5 64.59375 
L 35.5 0 
L 25.59375 0 
L 25.59375 64.59375 
L -0.296875 64.59375 
z
" id="DejaVuSans-84"/>
     <path d="M 44.28125 53.078125 
L 44.28125 44.578125 
Q 40.484375 46.53125 36.375 47.5 
Q 32.28125 48.484375 27.875 48.484375 
Q 21.1875 48.484375 17.84375 46.4375 
Q 14.5 44.390625 14.5 40.28125 
Q 14.5 37.15625 16.890625 35.375 
Q 19.28125 33.59375 26.515625 31.984375 
L 29.59375 31.296875 
Q 39.15625 29.25 43.1875 25.515625 
Q 47.21875 21.78125 47.21875 15.09375 
Q 47.21875 7.46875 41.1875 3.015625 
Q 35.15625 -1.421875 24.609375 -1.421875 
Q 20.21875 -1.421875 15.453125 -0.5625 
Q 10.6875 0.296875 5.421875 2 
L 5.421875 11.28125 
Q 10.40625 8.6875 15.234375 7.390625 
Q 20.0625 6.109375 24.8125 6.109375 
Q 31.15625 6.109375 34.5625 8.28125 
Q 37.984375 10.453125 37.984375 14.40625 
Q 37.984375 18.0625 35.515625 20.015625 
Q 33.0625 21.96875 24.703125 23.78125 
L 21.578125 24.515625 
Q 13.234375 26.265625 9.515625 29.90625 
Q 5.8125 33.546875 5.8125 39.890625 
Q 5.8125 47.609375 11.28125 51.796875 
Q 16.75 56 26.8125 56 
Q 31.78125 56 36.171875 55.265625 
Q 40.578125 54.546875 44.28125 53.078125 
z
" id="DejaVuSans-115"/>
     <path d="M 37.109375 75.984375 
L 37.109375 68.5 
L 28.515625 68.5 
Q 23.6875 68.5 21.796875 66.546875 
Q 19.921875 64.59375 19.921875 59.515625 
L 19.921875 54.6875 
L 34.71875 54.6875 
L 34.71875 47.703125 
L 19.921875 47.703125 
L 19.921875 0 
L 10.890625 0 
L 10.890625 47.703125 
L 2.296875 47.703125 
L 2.296875 54.6875 
L 10.890625 54.6875 
L 10.890625 58.5 
Q 10.890625 67.625 15.140625 71.796875 
Q 19.390625 75.984375 28.609375 75.984375 
z
" id="DejaVuSans-102"/>
     <path d="M 9.8125 72.90625 
L 24.515625 72.90625 
L 43.109375 23.296875 
L 61.8125 72.90625 
L 76.515625 72.90625 
L 76.515625 0 
L 66.890625 0 
L 66.890625 64.015625 
L 48.09375 14.015625 
L 38.1875 14.015625 
L 19.390625 64.015625 
L 19.390625 0 
L 9.8125 0 
z
" id="DejaVuSans-77"/>
     <path d="M 45.40625 46.390625 
L 45.40625 75.984375 
L 54.390625 75.984375 
L 54.390625 0 
L 45.40625 0 
L 45.40625 8.203125 
Q 42.578125 3.328125 38.25 0.953125 
Q 33.9375 -1.421875 27.875 -1.421875 
Q 17.96875 -1.421875 11.734375 6.484375 
Q 5.515625 14.40625 5.515625 27.296875 
Q 5.515625 40.1875 11.734375 48.09375 
Q 17.96875 56 27.875 56 
Q 33.9375 56 38.25 53.625 
Q 42.578125 51.265625 45.40625 46.390625 
z
M 14.796875 27.296875 
Q 14.796875 17.390625 18.875 11.75 
Q 22.953125 6.109375 30.078125 6.109375 
Q 37.203125 6.109375 41.296875 11.75 
Q 45.40625 17.390625 45.40625 27.296875 
Q 45.40625 37.203125 41.296875 42.84375 
Q 37.203125 48.484375 30.078125 48.484375 
Q 22.953125 48.484375 18.875 42.84375 
Q 14.796875 37.203125 14.796875 27.296875 
z
" id="DejaVuSans-100"/>
     <path d="M 19.671875 64.796875 
L 19.671875 8.109375 
L 31.59375 8.109375 
Q 46.6875 8.109375 53.6875 14.9375 
Q 60.6875 21.78125 60.6875 36.53125 
Q 60.6875 51.171875 53.6875 57.984375 
Q 46.6875 64.796875 31.59375 64.796875 
z
M 9.8125 72.90625 
L 30.078125 72.90625 
Q 51.265625 72.90625 61.171875 64.09375 
Q 71.09375 55.28125 71.09375 36.53125 
Q 71.09375 17.671875 61.125 8.828125 
Q 51.171875 0 30.078125 0 
L 9.8125 0 
z
" id="DejaVuSans-68"/>
     <path d="M 48.78125 52.59375 
L 48.78125 44.1875 
Q 44.96875 46.296875 41.140625 47.34375 
Q 37.3125 48.390625 33.40625 48.390625 
Q 24.65625 48.390625 19.8125 42.84375 
Q 14.984375 37.3125 14.984375 27.296875 
Q 14.984375 17.28125 19.8125 11.734375 
Q 24.65625 6.203125 33.40625 6.203125 
Q 37.3125 6.203125 41.140625 7.25 
Q 44.96875 8.296875 48.78125 10.40625 
L 48.78125 2.09375 
Q 45.015625 0.34375 40.984375 -0.53125 
Q 36.96875 -1.421875 32.421875 -1.421875 
Q 20.0625 -1.421875 12.78125 6.34375 
Q 5.515625 14.109375 5.515625 27.296875 
Q 5.515625 40.671875 12.859375 48.328125 
Q 20.21875 56 33.015625 56 
Q 37.15625 56 41.109375 55.140625 
Q 45.0625 54.296875 48.78125 52.59375 
z
" id="DejaVuSans-99"/>
    </defs>
    <g transform="translate(171.52785 63.12)scale(0.2016 -0.2016)">
     <use xlink:href="#DejaVuSans-80"/>
     <use x="60.255859" xlink:href="#DejaVuSans-101"/>
     <use x="121.779297" xlink:href="#DejaVuSans-114"/>
     <use x="162.876953" xlink:href="#DejaVuSans-109"/>
     <use x="260.289062" xlink:href="#DejaVuSans-117"/>
     <use x="323.667969" xlink:href="#DejaVuSans-116"/>
     <use x="362.876953" xlink:href="#DejaVuSans-97"/>
     <use x="424.15625" xlink:href="#DejaVuSans-116"/>
     <use x="463.365234" xlink:href="#DejaVuSans-105"/>
     <use x="491.148438" xlink:href="#DejaVuSans-111"/>
     <use x="552.330078" xlink:href="#DejaVuSans-110"/>
     <use x="615.708984" xlink:href="#DejaVuSans-32"/>
     <use x="647.496094" xlink:href="#DejaVuSans-84"/>
     <use x="708.314453" xlink:href="#DejaVuSans-101"/>
     <use x="769.837891" xlink:href="#DejaVuSans-115"/>
     <use x="821.9375" xlink:href="#DejaVuSans-116"/>
     <use x="861.146484" xlink:href="#DejaVuSans-32"/>
     <use x="892.933594" xlink:href="#DejaVuSans-102"/>
     <use x="928.138672" xlink:href="#DejaVuSans-111"/>
     <use x="989.320312" xlink:href="#DejaVuSans-114"/>
     <use x="1030.433594" xlink:href="#DejaVuSans-32"/>
     <use x="1062.220703" xlink:href="#DejaVuSans-77"/>
     <use x="1148.5" xlink:href="#DejaVuSans-101"/>
     <use x="1210.023438" xlink:href="#DejaVuSans-100"/>
     <use x="1273.5" xlink:href="#DejaVuSans-105"/>
     <use x="1301.283203" xlink:href="#DejaVuSans-97"/>
     <use x="1362.5625" xlink:href="#DejaVuSans-110"/>
     <use x="1425.941406" xlink:href="#DejaVuSans-32"/>
     <use x="1457.728516" xlink:href="#DejaVuSans-68"/>
     <use x="1534.730469" xlink:href="#DejaVuSans-105"/>
     <use x="1562.513672" xlink:href="#DejaVuSans-102"/>
     <use x="1597.71875" xlink:href="#DejaVuSans-102"/>
     <use x="1632.923828" xlink:href="#DejaVuSans-101"/>
     <use x="1694.447266" xlink:href="#DejaVuSans-114"/>
     <use x="1735.529297" xlink:href="#DejaVuSans-101"/>
     <use x="1797.052734" xlink:href="#DejaVuSans-110"/>
     <use x="1860.431641" xlink:href="#DejaVuSans-99"/>
     <use x="1915.412109" xlink:href="#DejaVuSans-101"/>
    </g>
   </g>
  </g>
 </g>
 <defs>
  <clipPath id="p39074b19b5">
   <rect height="466.56" width="626.4" x="57.6" y="69.12"/>
  </clipPath>
 </defs>
</svg>
