<?xml version="1.0" encoding="utf-8" standalone="no"?>
<!DOCTYPE svg PUBLIC "-//W3C//DTD SVG 1.1//EN"
  "http://www.w3.org/Graphics/SVG/1.1/DTD/svg11.dtd">
<!-- Created with matplotlib (https://matplotlib.org/) -->
<svg height="288pt" version="1.1" viewBox="0 0 432 288" width="432pt" xmlns="http://www.w3.org/2000/svg" xmlns:xlink="http://www.w3.org/1999/xlink">
 <defs>
  <style type="text/css">
*{stroke-linecap:butt;stroke-linejoin:round;}
  </style>
 </defs>
 <g id="figure_1">
  <g id="patch_1">
   <path d="M 0 288 
L 432 288 
L 432 0 
L 0 0 
z
" style="fill:#f0f0f0;"/>
  </g>
  <g id="axes_1">
   <g id="patch_2">
    <path d="M 34.56 267.84 
L 410.4 267.84 
L 410.4 34.56 
L 34.56 34.56 
z
" style="fill:#ffffff;"/>
   </g>
   <g id="matplotlib.axis_1">
    <g id="xtick_1">
     <g id="line2d_1">
      <path clip-path="url(#p8875f8b47a)" d="M 223.33439 267.84 
L 223.33439 34.56 
" style="fill:none;stroke:#cbcbcb;"/>
     </g>
     <g id="line2d_2"/>
     <g id="text_1">
      <!-- −0.034 -->
      <defs>
       <path d="M 10.59375 35.5 
L 73.1875 35.5 
L 73.1875 27.203125 
L 10.59375 27.203125 
z
" id="DejaVuSans-8722"/>
       <path d="M 31.78125 66.40625 
Q 24.171875 66.40625 20.328125 58.90625 
Q 16.5 51.421875 16.5 36.375 
Q 16.5 21.390625 20.328125 13.890625 
Q 24.171875 6.390625 31.78125 6.390625 
Q 39.453125 6.390625 43.28125 13.890625 
Q 47.125 21.390625 47.125 36.375 
Q 47.125 51.421875 43.28125 58.90625 
Q 39.453125 66.40625 31.78125 66.40625 
z
M 31.78125 74.21875 
Q 44.046875 74.21875 50.515625 64.515625 
Q 56.984375 54.828125 56.984375 36.375 
Q 56.984375 17.96875 50.515625 8.265625 
Q 44.046875 -1.421875 31.78125 -1.421875 
Q 19.53125 -1.421875 13.0625 8.265625 
Q 6.59375 17.96875 6.59375 36.375 
Q 6.59375 54.828125 13.0625 64.515625 
Q 19.53125 74.21875 31.78125 74.21875 
z
" id="DejaVuSans-48"/>
       <path d="M 10.6875 12.40625 
L 21 12.40625 
L 21 0 
L 10.6875 0 
z
" id="DejaVuSans-46"/>
       <path d="M 40.578125 39.3125 
Q 47.65625 37.796875 51.625 33 
Q 55.609375 28.21875 55.609375 21.1875 
Q 55.609375 10.40625 48.1875 4.484375 
Q 40.765625 -1.421875 27.09375 -1.421875 
Q 22.515625 -1.421875 17.65625 -0.515625 
Q 12.796875 0.390625 7.625 2.203125 
L 7.625 11.71875 
Q 11.71875 9.328125 16.59375 8.109375 
Q 21.484375 6.890625 26.8125 6.890625 
Q 36.078125 6.890625 40.9375 10.546875 
Q 45.796875 14.203125 45.796875 21.1875 
Q 45.796875 27.640625 41.28125 31.265625 
Q 36.765625 34.90625 28.71875 34.90625 
L 20.21875 34.90625 
L 20.21875 43.015625 
L 29.109375 43.015625 
Q 36.375 43.015625 40.234375 45.921875 
Q 44.09375 48.828125 44.09375 54.296875 
Q 44.09375 59.90625 40.109375 62.90625 
Q 36.140625 65.921875 28.71875 65.921875 
Q 24.65625 65.921875 20.015625 65.03125 
Q 15.375 64.15625 9.8125 62.3125 
L 9.8125 71.09375 
Q 15.4375 72.65625 20.34375 73.4375 
Q 25.25 74.21875 29.59375 74.21875 
Q 40.828125 74.21875 47.359375 69.109375 
Q 53.90625 64.015625 53.90625 55.328125 
Q 53.90625 49.265625 50.4375 45.09375 
Q 46.96875 40.921875 40.578125 39.3125 
z
" id="DejaVuSans-51"/>
       <path d="M 37.796875 64.3125 
L 12.890625 25.390625 
L 37.796875 25.390625 
z
M 35.203125 72.90625 
L 47.609375 72.90625 
L 47.609375 25.390625 
L 58.015625 25.390625 
L 58.015625 17.1875 
L 47.609375 17.1875 
L 47.609375 0 
L 37.796875 0 
L 37.796875 17.1875 
L 4.890625 17.1875 
L 4.890625 26.703125 
z
" id="DejaVuSans-52"/>
      </defs>
      <g transform="translate(197.428921 281.977813)scale(0.14 -0.14)">
       <use xlink:href="#DejaVuSans-8722"/>
       <use x="83.789062" xlink:href="#DejaVuSans-48"/>
       <use x="147.412109" xlink:href="#DejaVuSans-46"/>
       <use x="179.199219" xlink:href="#DejaVuSans-48"/>
       <use x="242.822266" xlink:href="#DejaVuSans-51"/>
       <use x="306.445312" xlink:href="#DejaVuSans-52"/>
      </g>
     </g>
    </g>
    <g id="xtick_2">
     <g id="line2d_3">
      <path clip-path="url(#p8875f8b47a)" d="M 172.699193 267.84 
L 172.699193 34.56 
" style="fill:none;stroke:#cbcbcb;"/>
     </g>
     <g id="line2d_4"/>
     <g id="text_2">
      <!-- −2.871 -->
      <defs>
       <path d="M 19.1875 8.296875 
L 53.609375 8.296875 
L 53.609375 0 
L 7.328125 0 
L 7.328125 8.296875 
Q 12.9375 14.109375 22.625 23.890625 
Q 32.328125 33.6875 34.8125 36.53125 
Q 39.546875 41.84375 41.421875 45.53125 
Q 43.3125 49.21875 43.3125 52.78125 
Q 43.3125 58.59375 39.234375 62.25 
Q 35.15625 65.921875 28.609375 65.921875 
Q 23.96875 65.921875 18.8125 64.3125 
Q 13.671875 62.703125 7.8125 59.421875 
L 7.8125 69.390625 
Q 13.765625 71.78125 18.9375 73 
Q 24.125 74.21875 28.421875 74.21875 
Q 39.75 74.21875 46.484375 68.546875 
Q 53.21875 62.890625 53.21875 53.421875 
Q 53.21875 48.921875 51.53125 44.890625 
Q 49.859375 40.875 45.40625 35.40625 
Q 44.1875 33.984375 37.640625 27.21875 
Q 31.109375 20.453125 19.1875 8.296875 
z
" id="DejaVuSans-50"/>
       <path d="M 31.78125 34.625 
Q 24.75 34.625 20.71875 30.859375 
Q 16.703125 27.09375 16.703125 20.515625 
Q 16.703125 13.921875 20.71875 10.15625 
Q 24.75 6.390625 31.78125 6.390625 
Q 38.8125 6.390625 42.859375 10.171875 
Q 46.921875 13.96875 46.921875 20.515625 
Q 46.921875 27.09375 42.890625 30.859375 
Q 38.875 34.625 31.78125 34.625 
z
M 21.921875 38.8125 
Q 15.578125 40.375 12.03125 44.71875 
Q 8.5 49.078125 8.5 55.328125 
Q 8.5 64.0625 14.71875 69.140625 
Q 20.953125 74.21875 31.78125 74.21875 
Q 42.671875 74.21875 48.875 69.140625 
Q 55.078125 64.0625 55.078125 55.328125 
Q 55.078125 49.078125 51.53125 44.71875 
Q 48 40.375 41.703125 38.8125 
Q 48.828125 37.15625 52.796875 32.3125 
Q 56.78125 27.484375 56.78125 20.515625 
Q 56.78125 9.90625 50.3125 4.234375 
Q 43.84375 -1.421875 31.78125 -1.421875 
Q 19.734375 -1.421875 13.25 4.234375 
Q 6.78125 9.90625 6.78125 20.515625 
Q 6.78125 27.484375 10.78125 32.3125 
Q 14.796875 37.15625 21.921875 38.8125 
z
M 18.3125 54.390625 
Q 18.3125 48.734375 21.84375 45.5625 
Q 25.390625 42.390625 31.78125 42.390625 
Q 38.140625 42.390625 41.71875 45.5625 
Q 45.3125 48.734375 45.3125 54.390625 
Q 45.3125 60.0625 41.71875 63.234375 
Q 38.140625 66.40625 31.78125 66.40625 
Q 25.390625 66.40625 21.84375 63.234375 
Q 18.3125 60.0625 18.3125 54.390625 
z
" id="DejaVuSans-56"/>
       <path d="M 8.203125 72.90625 
L 55.078125 72.90625 
L 55.078125 68.703125 
L 28.609375 0 
L 18.3125 0 
L 43.21875 64.59375 
L 8.203125 64.59375 
z
" id="DejaVuSans-55"/>
       <path d="M 12.40625 8.296875 
L 28.515625 8.296875 
L 28.515625 63.921875 
L 10.984375 60.40625 
L 10.984375 69.390625 
L 28.421875 72.90625 
L 38.28125 72.90625 
L 38.28125 8.296875 
L 54.390625 8.296875 
L 54.390625 0 
L 12.40625 0 
z
" id="DejaVuSans-49"/>
      </defs>
      <g transform="translate(146.793725 281.977813)scale(0.14 -0.14)">
       <use xlink:href="#DejaVuSans-8722"/>
       <use x="83.789062" xlink:href="#DejaVuSans-50"/>
       <use x="147.412109" xlink:href="#DejaVuSans-46"/>
       <use x="179.199219" xlink:href="#DejaVuSans-56"/>
       <use x="242.822266" xlink:href="#DejaVuSans-55"/>
       <use x="306.445312" xlink:href="#DejaVuSans-49"/>
      </g>
     </g>
    </g>
    <g id="text_3">
     <!-- Variance -->
     <defs>
      <path d="M 28.609375 0 
L 0.78125 72.90625 
L 11.078125 72.90625 
L 34.1875 11.53125 
L 57.328125 72.90625 
L 67.578125 72.90625 
L 39.796875 0 
z
" id="DejaVuSans-86"/>
      <path d="M 34.28125 27.484375 
Q 23.390625 27.484375 19.1875 25 
Q 14.984375 22.515625 14.984375 16.5 
Q 14.984375 11.71875 18.140625 8.90625 
Q 21.296875 6.109375 26.703125 6.109375 
Q 34.1875 6.109375 38.703125 11.40625 
Q 43.21875 16.703125 43.21875 25.484375 
L 43.21875 27.484375 
z
M 52.203125 31.203125 
L 52.203125 0 
L 43.21875 0 
L 43.21875 8.296875 
Q 40.140625 3.328125 35.546875 0.953125 
Q 30.953125 -1.421875 24.3125 -1.421875 
Q 15.921875 -1.421875 10.953125 3.296875 
Q 6 8.015625 6 15.921875 
Q 6 25.140625 12.171875 29.828125 
Q 18.359375 34.515625 30.609375 34.515625 
L 43.21875 34.515625 
L 43.21875 35.40625 
Q 43.21875 41.609375 39.140625 45 
Q 35.0625 48.390625 27.6875 48.390625 
Q 23 48.390625 18.546875 47.265625 
Q 14.109375 46.140625 10.015625 43.890625 
L 10.015625 52.203125 
Q 14.9375 54.109375 19.578125 55.046875 
Q 24.21875 56 28.609375 56 
Q 40.484375 56 46.34375 49.84375 
Q 52.203125 43.703125 52.203125 31.203125 
z
" id="DejaVuSans-97"/>
      <path d="M 41.109375 46.296875 
Q 39.59375 47.171875 37.8125 47.578125 
Q 36.03125 48 33.890625 48 
Q 26.265625 48 22.1875 43.046875 
Q 18.109375 38.09375 18.109375 28.8125 
L 18.109375 0 
L 9.078125 0 
L 9.078125 54.6875 
L 18.109375 54.6875 
L 18.109375 46.1875 
Q 20.953125 51.171875 25.484375 53.578125 
Q 30.03125 56 36.53125 56 
Q 37.453125 56 38.578125 55.875 
Q 39.703125 55.765625 41.0625 55.515625 
z
" id="DejaVuSans-114"/>
      <path d="M 9.421875 54.6875 
L 18.40625 54.6875 
L 18.40625 0 
L 9.421875 0 
z
M 9.421875 75.984375 
L 18.40625 75.984375 
L 18.40625 64.59375 
L 9.421875 64.59375 
z
" id="DejaVuSans-105"/>
      <path d="M 54.890625 33.015625 
L 54.890625 0 
L 45.90625 0 
L 45.90625 32.71875 
Q 45.90625 40.484375 42.875 44.328125 
Q 39.84375 48.1875 33.796875 48.1875 
Q 26.515625 48.1875 22.3125 43.546875 
Q 18.109375 38.921875 18.109375 30.90625 
L 18.109375 0 
L 9.078125 0 
L 9.078125 54.6875 
L 18.109375 54.6875 
L 18.109375 46.1875 
Q 21.34375 51.125 25.703125 53.5625 
Q 30.078125 56 35.796875 56 
Q 45.21875 56 50.046875 50.171875 
Q 54.890625 44.34375 54.890625 33.015625 
z
" id="DejaVuSans-110"/>
      <path d="M 48.78125 52.59375 
L 48.78125 44.1875 
Q 44.96875 46.296875 41.140625 47.34375 
Q 37.3125 48.390625 33.40625 48.390625 
Q 24.65625 48.390625 19.8125 42.84375 
Q 14.984375 37.3125 14.984375 27.296875 
Q 14.984375 17.28125 19.8125 11.734375 
Q 24.65625 6.203125 33.40625 6.203125 
Q 37.3125 6.203125 41.140625 7.25 
Q 44.96875 8.296875 48.78125 10.40625 
L 48.78125 2.09375 
Q 45.015625 0.34375 40.984375 -0.53125 
Q 36.96875 -1.421875 32.421875 -1.421875 
Q 20.0625 -1.421875 12.78125 6.34375 
Q 5.515625 14.109375 5.515625 27.296875 
Q 5.515625 40.671875 12.859375 48.328125 
Q 20.21875 56 33.015625 56 
Q 37.15625 56 41.109375 55.140625 
Q 45.0625 54.296875 48.78125 52.59375 
z
" id="DejaVuSans-99"/>
      <path d="M 56.203125 29.59375 
L 56.203125 25.203125 
L 14.890625 25.203125 
Q 15.484375 15.921875 20.484375 11.0625 
Q 25.484375 6.203125 34.421875 6.203125 
Q 39.59375 6.203125 44.453125 7.46875 
Q 49.3125 8.734375 54.109375 11.28125 
L 54.109375 2.78125 
Q 49.265625 0.734375 44.1875 -0.34375 
Q 39.109375 -1.421875 33.890625 -1.421875 
Q 20.796875 -1.421875 13.15625 6.1875 
Q 5.515625 13.8125 5.515625 26.8125 
Q 5.515625 40.234375 12.765625 48.109375 
Q 20.015625 56 32.328125 56 
Q 43.359375 56 49.78125 48.890625 
Q 56.203125 41.796875 56.203125 29.59375 
z
M 47.21875 32.234375 
Q 47.125 39.59375 43.09375 43.984375 
Q 39.0625 48.390625 32.421875 48.390625 
Q 24.90625 48.390625 20.390625 44.140625 
Q 15.875 39.890625 15.1875 32.171875 
z
" id="DejaVuSans-101"/>
     </defs>
     <g transform="translate(185.550187 301.65475)scale(0.168 -0.168)">
      <use xlink:href="#DejaVuSans-86"/>
      <use x="68.298828" xlink:href="#DejaVuSans-97"/>
      <use x="129.578125" xlink:href="#DejaVuSans-114"/>
      <use x="170.691406" xlink:href="#DejaVuSans-105"/>
      <use x="198.474609" xlink:href="#DejaVuSans-97"/>
      <use x="259.753906" xlink:href="#DejaVuSans-110"/>
      <use x="323.132812" xlink:href="#DejaVuSans-99"/>
      <use x="378.113281" xlink:href="#DejaVuSans-101"/>
     </g>
    </g>
    <g id="text_4">
     <!-- 1e−8 -->
     <g transform="translate(372.239062 298.527188)scale(0.14 -0.14)">
      <use xlink:href="#DejaVuSans-49"/>
      <use x="63.623047" xlink:href="#DejaVuSans-101"/>
      <use x="125.146484" xlink:href="#DejaVuSans-8722"/>
      <use x="208.935547" xlink:href="#DejaVuSans-56"/>
     </g>
    </g>
   </g>
   <g id="matplotlib.axis_2">
    <g id="ytick_1">
     <g id="line2d_5">
      <path clip-path="url(#p8875f8b47a)" d="M 34.56 267.84 
L 410.4 267.84 
" style="fill:none;stroke:#cbcbcb;"/>
     </g>
     <g id="line2d_6"/>
     <g id="text_5">
      <!-- 0.00 -->
      <g transform="translate(-0.111875 273.158906)scale(0.14 -0.14)">
       <use xlink:href="#DejaVuSans-48"/>
       <use x="63.623047" xlink:href="#DejaVuSans-46"/>
       <use x="95.410156" xlink:href="#DejaVuSans-48"/>
       <use x="159.033203" xlink:href="#DejaVuSans-48"/>
      </g>
     </g>
    </g>
    <g id="ytick_2">
     <g id="line2d_7">
      <path clip-path="url(#p8875f8b47a)" d="M 34.56 232.00501 
L 410.4 232.00501 
" style="fill:none;stroke:#cbcbcb;"/>
     </g>
     <g id="line2d_8"/>
     <g id="text_6">
      <!-- 0.25 -->
      <defs>
       <path d="M 10.796875 72.90625 
L 49.515625 72.90625 
L 49.515625 64.59375 
L 19.828125 64.59375 
L 19.828125 46.734375 
Q 21.96875 47.46875 24.109375 47.828125 
Q 26.265625 48.1875 28.421875 48.1875 
Q 40.625 48.1875 47.75 41.5 
Q 54.890625 34.8125 54.890625 23.390625 
Q 54.890625 11.625 47.5625 5.09375 
Q 40.234375 -1.421875 26.90625 -1.421875 
Q 22.3125 -1.421875 17.546875 -0.640625 
Q 12.796875 0.140625 7.71875 1.703125 
L 7.71875 11.625 
Q 12.109375 9.234375 16.796875 8.0625 
Q 21.484375 6.890625 26.703125 6.890625 
Q 35.15625 6.890625 40.078125 11.328125 
Q 45.015625 15.765625 45.015625 23.390625 
Q 45.015625 31 40.078125 35.4375 
Q 35.15625 39.890625 26.703125 39.890625 
Q 22.75 39.890625 18.8125 39.015625 
Q 14.890625 38.140625 10.796875 36.28125 
z
" id="DejaVuSans-53"/>
      </defs>
      <g transform="translate(-0.111875 237.323917)scale(0.14 -0.14)">
       <use xlink:href="#DejaVuSans-48"/>
       <use x="63.623047" xlink:href="#DejaVuSans-46"/>
       <use x="95.410156" xlink:href="#DejaVuSans-50"/>
       <use x="159.033203" xlink:href="#DejaVuSans-53"/>
      </g>
     </g>
    </g>
    <g id="ytick_3">
     <g id="line2d_9">
      <path clip-path="url(#p8875f8b47a)" d="M 34.56 196.170021 
L 410.4 196.170021 
" style="fill:none;stroke:#cbcbcb;"/>
     </g>
     <g id="line2d_10"/>
     <g id="text_7">
      <!-- 0.50 -->
      <g transform="translate(-0.111875 201.488927)scale(0.14 -0.14)">
       <use xlink:href="#DejaVuSans-48"/>
       <use x="63.623047" xlink:href="#DejaVuSans-46"/>
       <use x="95.410156" xlink:href="#DejaVuSans-53"/>
       <use x="159.033203" xlink:href="#DejaVuSans-48"/>
      </g>
     </g>
    </g>
    <g id="ytick_4">
     <g id="line2d_11">
      <path clip-path="url(#p8875f8b47a)" d="M 34.56 160.335031 
L 410.4 160.335031 
" style="fill:none;stroke:#cbcbcb;"/>
     </g>
     <g id="line2d_12"/>
     <g id="text_8">
      <!-- 0.75 -->
      <g transform="translate(-0.111875 165.653937)scale(0.14 -0.14)">
       <use xlink:href="#DejaVuSans-48"/>
       <use x="63.623047" xlink:href="#DejaVuSans-46"/>
       <use x="95.410156" xlink:href="#DejaVuSans-55"/>
       <use x="159.033203" xlink:href="#DejaVuSans-53"/>
      </g>
     </g>
    </g>
    <g id="ytick_5">
     <g id="line2d_13">
      <path clip-path="url(#p8875f8b47a)" d="M 34.56 124.500041 
L 410.4 124.500041 
" style="fill:none;stroke:#cbcbcb;"/>
     </g>
     <g id="line2d_14"/>
     <g id="text_9">
      <!-- 1.00 -->
      <g transform="translate(-0.111875 129.818947)scale(0.14 -0.14)">
       <use xlink:href="#DejaVuSans-49"/>
       <use x="63.623047" xlink:href="#DejaVuSans-46"/>
       <use x="95.410156" xlink:href="#DejaVuSans-48"/>
       <use x="159.033203" xlink:href="#DejaVuSans-48"/>
      </g>
     </g>
    </g>
    <g id="ytick_6">
     <g id="line2d_15">
      <path clip-path="url(#p8875f8b47a)" d="M 34.56 88.665051 
L 410.4 88.665051 
" style="fill:none;stroke:#cbcbcb;"/>
     </g>
     <g id="line2d_16"/>
     <g id="text_10">
      <!-- 1.25 -->
      <g transform="translate(-0.111875 93.983958)scale(0.14 -0.14)">
       <use xlink:href="#DejaVuSans-49"/>
       <use x="63.623047" xlink:href="#DejaVuSans-46"/>
       <use x="95.410156" xlink:href="#DejaVuSans-50"/>
       <use x="159.033203" xlink:href="#DejaVuSans-53"/>
      </g>
     </g>
    </g>
    <g id="ytick_7">
     <g id="line2d_17">
      <path clip-path="url(#p8875f8b47a)" d="M 34.56 52.830062 
L 410.4 52.830062 
" style="fill:none;stroke:#cbcbcb;"/>
     </g>
     <g id="line2d_18"/>
     <g id="text_11">
      <!-- 1.50 -->
      <g transform="translate(-0.111875 58.148968)scale(0.14 -0.14)">
       <use xlink:href="#DejaVuSans-49"/>
       <use x="63.623047" xlink:href="#DejaVuSans-46"/>
       <use x="95.410156" xlink:href="#DejaVuSans-53"/>
       <use x="159.033203" xlink:href="#DejaVuSans-48"/>
      </g>
     </g>
    </g>
    <g id="text_12">
     <!-- 1e7 -->
     <g transform="translate(34.56 31.56)scale(0.14 -0.14)">
      <use xlink:href="#DejaVuSans-49"/>
      <use x="63.623047" xlink:href="#DejaVuSans-101"/>
      <use x="125.146484" xlink:href="#DejaVuSans-55"/>
     </g>
    </g>
   </g>
   <g id="patch_3">
    <path clip-path="url(#p8875f8b47a)" d="M 87.388719 267.84 
L 99.135787 267.84 
L 99.135787 263.483697 
L 87.388719 263.483697 
z
" style="fill:#204fab;opacity:0.4;"/>
   </g>
   <g id="patch_4">
    <path clip-path="url(#p8875f8b47a)" d="M 99.135787 267.84 
L 110.882855 267.84 
L 110.882855 265.661849 
L 99.135787 265.661849 
z
" style="fill:#204fab;opacity:0.4;"/>
   </g>
   <g id="patch_5">
    <path clip-path="url(#p8875f8b47a)" d="M 110.882855 267.84 
L 122.629923 267.84 
L 122.629923 248.236639 
L 110.882855 248.236639 
z
" style="fill:#204fab;opacity:0.4;"/>
   </g>
   <g id="patch_6">
    <path clip-path="url(#p8875f8b47a)" d="M 122.629923 267.84 
L 134.376991 267.84 
L 134.376991 243.880336 
L 122.629923 243.880336 
z
" style="fill:#204fab;opacity:0.4;"/>
   </g>
   <g id="patch_7">
    <path clip-path="url(#p8875f8b47a)" d="M 134.376991 267.84 
L 146.124058 267.84 
L 146.124058 224.276975 
L 134.376991 224.276975 
z
" style="fill:#204fab;opacity:0.4;"/>
   </g>
   <g id="patch_8">
    <path clip-path="url(#p8875f8b47a)" d="M 146.124058 267.84 
L 157.871126 267.84 
L 157.871126 193.782857 
L 146.124058 193.782857 
z
" style="fill:#204fab;opacity:0.4;"/>
   </g>
   <g id="patch_9">
    <path clip-path="url(#p8875f8b47a)" d="M 157.871126 267.84 
L 169.618194 267.84 
L 169.618194 189.426555 
L 157.871126 189.426555 
z
" style="fill:#204fab;opacity:0.4;"/>
   </g>
   <g id="patch_10">
    <path clip-path="url(#p8875f8b47a)" d="M 169.618194 267.84 
L 181.365262 267.84 
L 181.365262 121.903866 
L 169.618194 121.903866 
z
" style="fill:#204fab;opacity:0.4;"/>
   </g>
   <g id="patch_11">
    <path clip-path="url(#p8875f8b47a)" d="M 181.365262 267.84 
L 193.11233 267.84 
L 193.11233 117.547563 
L 181.365262 117.547563 
z
" style="fill:#204fab;opacity:0.4;"/>
   </g>
   <g id="patch_12">
    <path clip-path="url(#p8875f8b47a)" d="M 193.11233 267.84 
L 204.859398 267.84 
L 204.859398 50.024874 
L 193.11233 50.024874 
z
" style="fill:#204fab;opacity:0.4;"/>
   </g>
   <g id="patch_13">
    <path clip-path="url(#p8875f8b47a)" d="M 204.859398 267.84 
L 216.606466 267.84 
L 216.606466 52.203025 
L 204.859398 52.203025 
z
" style="fill:#204fab;opacity:0.4;"/>
   </g>
   <g id="patch_14">
    <path clip-path="url(#p8875f8b47a)" d="M 216.606466 267.84 
L 228.353534 267.84 
L 228.353534 45.668571 
L 216.606466 45.668571 
z
" style="fill:#204fab;opacity:0.4;"/>
   </g>
   <g id="patch_15">
    <path clip-path="url(#p8875f8b47a)" d="M 228.353534 267.84 
L 240.100602 267.84 
L 240.100602 54.381176 
L 228.353534 54.381176 
z
" style="fill:#204fab;opacity:0.4;"/>
   </g>
   <g id="patch_16">
    <path clip-path="url(#p8875f8b47a)" d="M 240.100602 267.84 
L 251.84767 267.84 
L 251.84767 73.984538 
L 240.100602 73.984538 
z
" style="fill:#204fab;opacity:0.4;"/>
   </g>
   <g id="patch_17">
    <path clip-path="url(#p8875f8b47a)" d="M 251.84767 267.84 
L 263.594738 267.84 
L 263.594738 97.944202 
L 251.84767 97.944202 
z
" style="fill:#204fab;opacity:0.4;"/>
   </g>
   <g id="patch_18">
    <path clip-path="url(#p8875f8b47a)" d="M 263.594738 267.84 
L 275.341806 267.84 
L 275.341806 163.288739 
L 263.594738 163.288739 
z
" style="fill:#204fab;opacity:0.4;"/>
   </g>
   <g id="patch_19">
    <path clip-path="url(#p8875f8b47a)" d="M 275.341806 267.84 
L 287.088874 267.84 
L 287.088874 154.576134 
L 275.341806 154.576134 
z
" style="fill:#204fab;opacity:0.4;"/>
   </g>
   <g id="patch_20">
    <path clip-path="url(#p8875f8b47a)" d="M 287.088874 267.84 
L 298.835942 267.84 
L 298.835942 211.208067 
L 287.088874 211.208067 
z
" style="fill:#204fab;opacity:0.4;"/>
   </g>
   <g id="patch_21">
    <path clip-path="url(#p8875f8b47a)" d="M 298.835942 267.84 
L 310.583009 267.84 
L 310.583009 206.851765 
L 298.835942 206.851765 
z
" style="fill:#204fab;opacity:0.4;"/>
   </g>
   <g id="patch_22">
    <path clip-path="url(#p8875f8b47a)" d="M 310.583009 267.84 
L 322.330077 267.84 
L 322.330077 228.633277 
L 310.583009 228.633277 
z
" style="fill:#204fab;opacity:0.4;"/>
   </g>
   <g id="patch_23">
    <path clip-path="url(#p8875f8b47a)" d="M 322.330077 267.84 
L 334.077145 267.84 
L 334.077145 248.236639 
L 322.330077 248.236639 
z
" style="fill:#204fab;opacity:0.4;"/>
   </g>
   <g id="patch_24">
    <path clip-path="url(#p8875f8b47a)" d="M 334.077145 267.84 
L 345.824213 267.84 
L 345.824213 263.483697 
L 334.077145 263.483697 
z
" style="fill:#204fab;opacity:0.4;"/>
   </g>
   <g id="patch_25">
    <path clip-path="url(#p8875f8b47a)" d="M 345.824213 267.84 
L 357.571281 267.84 
L 357.571281 263.483697 
L 345.824213 263.483697 
z
" style="fill:#204fab;opacity:0.4;"/>
   </g>
   <g id="line2d_19">
    <path clip-path="url(#p8875f8b47a)" d="M 51.643636 267.823474 
L 62.404982 267.727354 
L 70.475991 267.43762 
L 75.856664 267.071425 
L 81.237337 266.552158 
L 86.61801 265.859065 
L 91.998683 264.883292 
L 94.689019 264.220516 
L 97.379356 263.394903 
L 100.069692 262.375074 
L 102.760029 261.139319 
L 105.450365 259.678867 
L 108.140702 257.997015 
L 110.831038 256.103923 
L 113.521374 254.008586 
L 116.211711 251.710755 
L 118.902047 249.195921 
L 121.592384 246.435555 
L 124.28272 243.393131 
L 126.973057 240.034526 
L 129.663393 236.339935 
L 132.353729 232.313808 
L 135.044066 227.98949 
L 140.424739 218.698056 
L 148.495748 204.091801 
L 153.876421 193.908885 
L 156.566757 188.436411 
L 159.257094 182.567617 
L 161.94743 176.239755 
L 164.637767 169.455332 
L 170.01844 154.854538 
L 188.850795 101.73529 
L 194.231467 86.232324 
L 196.921804 78.850256 
L 199.61214 72.033861 
L 202.302477 66.004225 
L 204.992813 60.912724 
L 207.68315 56.81733 
L 210.373486 53.685448 
L 213.063822 51.419894 
L 215.754159 49.897507 
L 218.444495 49.007209 
L 221.134832 48.676484 
L 223.825168 48.880918 
L 226.515505 49.637933 
L 229.205841 50.990646 
L 231.896178 52.989457 
L 234.586514 55.677679 
L 237.27685 59.084318 
L 239.967187 63.223677 
L 242.657523 68.098723 
L 245.34786 73.703901 
L 248.038196 80.023507 
L 250.728533 87.023842 
L 253.418869 94.640682 
L 256.109205 102.767008 
L 266.870551 136.804545 
L 269.560888 144.727014 
L 272.251224 152.154473 
L 274.94156 159.071813 
L 277.631897 165.519351 
L 280.322233 171.563987 
L 283.01257 177.268596 
L 285.702906 182.670965 
L 288.393243 187.778954 
L 291.083579 192.581517 
L 293.773916 197.068933 
L 296.464252 201.252614 
L 301.844925 208.914177 
L 309.915934 219.914086 
L 315.296607 227.665464 
L 323.367616 239.633525 
L 326.057953 243.430118 
L 328.748289 246.996388 
L 331.438626 250.266299 
L 334.128962 253.191845 
L 336.819298 255.745986 
L 339.509635 257.923476 
L 342.199971 259.739645 
L 344.890308 261.227184 
L 347.580644 262.431139 
L 350.270981 263.402703 
L 352.961317 264.192731 
L 358.34199 265.398147 
L 363.722663 266.284489 
L 369.103336 266.939899 
L 374.484009 267.383488 
L 379.864681 267.64173 
L 387.935691 267.797786 
L 393.316364 267.823152 
L 393.316364 267.823152 
" style="fill:none;stroke:#204fab;stroke-width:4;"/>
   </g>
   <g id="line2d_20">
    <path clip-path="url(#p8875f8b47a)" d="M 172.699193 267.84 
L 172.699193 34.56 
" style="fill:none;stroke:#ff0000;stroke-width:4;"/>
   </g>
   <g id="patch_26">
    <path d="M 34.56 267.84 
L 34.56 34.56 
" style="fill:none;stroke:#f0f0f0;stroke-linecap:square;stroke-linejoin:miter;stroke-width:3;"/>
   </g>
   <g id="patch_27">
    <path d="M 410.4 267.84 
L 410.4 34.56 
" style="fill:none;stroke:#f0f0f0;stroke-linecap:square;stroke-linejoin:miter;stroke-width:3;"/>
   </g>
   <g id="patch_28">
    <path d="M 34.56 267.84 
L 410.4 267.84 
" style="fill:none;stroke:#f0f0f0;stroke-linecap:square;stroke-linejoin:miter;stroke-width:3;"/>
   </g>
   <g id="patch_29">
    <path d="M 34.56 34.56 
L 410.4 34.56 
" style="fill:none;stroke:#f0f0f0;stroke-linecap:square;stroke-linejoin:miter;stroke-width:3;"/>
   </g>
   <g id="text_13">
    <!-- Permutation Test for Variance Difference -->
    <defs>
     <path d="M 19.671875 64.796875 
L 19.671875 37.40625 
L 32.078125 37.40625 
Q 38.96875 37.40625 42.71875 40.96875 
Q 46.484375 44.53125 46.484375 51.125 
Q 46.484375 57.671875 42.71875 61.234375 
Q 38.96875 64.796875 32.078125 64.796875 
z
M 9.8125 72.90625 
L 32.078125 72.90625 
Q 44.34375 72.90625 50.609375 67.359375 
Q 56.890625 61.8125 56.890625 51.125 
Q 56.890625 40.328125 50.609375 34.8125 
Q 44.34375 29.296875 32.078125 29.296875 
L 19.671875 29.296875 
L 19.671875 0 
L 9.8125 0 
z
" id="DejaVuSans-80"/>
     <path d="M 52 44.1875 
Q 55.375 50.25 60.0625 53.125 
Q 64.75 56 71.09375 56 
Q 79.640625 56 84.28125 50.015625 
Q 88.921875 44.046875 88.921875 33.015625 
L 88.921875 0 
L 79.890625 0 
L 79.890625 32.71875 
Q 79.890625 40.578125 77.09375 44.375 
Q 74.3125 48.1875 68.609375 48.1875 
Q 61.625 48.1875 57.5625 43.546875 
Q 53.515625 38.921875 53.515625 30.90625 
L 53.515625 0 
L 44.484375 0 
L 44.484375 32.71875 
Q 44.484375 40.625 41.703125 44.40625 
Q 38.921875 48.1875 33.109375 48.1875 
Q 26.21875 48.1875 22.15625 43.53125 
Q 18.109375 38.875 18.109375 30.90625 
L 18.109375 0 
L 9.078125 0 
L 9.078125 54.6875 
L 18.109375 54.6875 
L 18.109375 46.1875 
Q 21.1875 51.21875 25.484375 53.609375 
Q 29.78125 56 35.6875 56 
Q 41.65625 56 45.828125 52.96875 
Q 50 49.953125 52 44.1875 
z
" id="DejaVuSans-109"/>
     <path d="M 8.5 21.578125 
L 8.5 54.6875 
L 17.484375 54.6875 
L 17.484375 21.921875 
Q 17.484375 14.15625 20.5 10.265625 
Q 23.53125 6.390625 29.59375 6.390625 
Q 36.859375 6.390625 41.078125 11.03125 
Q 45.3125 15.671875 45.3125 23.6875 
L 45.3125 54.6875 
L 54.296875 54.6875 
L 54.296875 0 
L 45.3125 0 
L 45.3125 8.40625 
Q 42.046875 3.421875 37.71875 1 
Q 33.40625 -1.421875 27.6875 -1.421875 
Q 18.265625 -1.421875 13.375 4.4375 
Q 8.5 10.296875 8.5 21.578125 
z
M 31.109375 56 
z
" id="DejaVuSans-117"/>
     <path d="M 18.3125 70.21875 
L 18.3125 54.6875 
L 36.8125 54.6875 
L 36.8125 47.703125 
L 18.3125 47.703125 
L 18.3125 18.015625 
Q 18.3125 11.328125 20.140625 9.421875 
Q 21.96875 7.515625 27.59375 7.515625 
L 36.8125 7.515625 
L 36.8125 0 
L 27.59375 0 
Q 17.1875 0 13.234375 3.875 
Q 9.28125 7.765625 9.28125 18.015625 
L 9.28125 47.703125 
L 2.6875 47.703125 
L 2.6875 54.6875 
L 9.28125 54.6875 
L 9.28125 70.21875 
z
" id="DejaVuSans-116"/>
     <path d="M 30.609375 48.390625 
Q 23.390625 48.390625 19.1875 42.75 
Q 14.984375 37.109375 14.984375 27.296875 
Q 14.984375 17.484375 19.15625 11.84375 
Q 23.34375 6.203125 30.609375 6.203125 
Q 37.796875 6.203125 41.984375 11.859375 
Q 46.1875 17.53125 46.1875 27.296875 
Q 46.1875 37.015625 41.984375 42.703125 
Q 37.796875 48.390625 30.609375 48.390625 
z
M 30.609375 56 
Q 42.328125 56 49.015625 48.375 
Q 55.71875 40.765625 55.71875 27.296875 
Q 55.71875 13.875 49.015625 6.21875 
Q 42.328125 -1.421875 30.609375 -1.421875 
Q 18.84375 -1.421875 12.171875 6.21875 
Q 5.515625 13.875 5.515625 27.296875 
Q 5.515625 40.765625 12.171875 48.375 
Q 18.84375 56 30.609375 56 
z
" id="DejaVuSans-111"/>
     <path id="DejaVuSans-32"/>
     <path d="M -0.296875 72.90625 
L 61.375 72.90625 
L 61.375 64.59375 
L 35.5 64.59375 
L 35.5 0 
L 25.59375 0 
L 25.59375 64.59375 
L -0.296875 64.59375 
z
" id="DejaVuSans-84"/>
     <path d="M 44.28125 53.078125 
L 44.28125 44.578125 
Q 40.484375 46.53125 36.375 47.5 
Q 32.28125 48.484375 27.875 48.484375 
Q 21.1875 48.484375 17.84375 46.4375 
Q 14.5 44.390625 14.5 40.28125 
Q 14.5 37.15625 16.890625 35.375 
Q 19.28125 33.59375 26.515625 31.984375 
L 29.59375 31.296875 
Q 39.15625 29.25 43.1875 25.515625 
Q 47.21875 21.78125 47.21875 15.09375 
Q 47.21875 7.46875 41.1875 3.015625 
Q 35.15625 -1.421875 24.609375 -1.421875 
Q 20.21875 -1.421875 15.453125 -0.5625 
Q 10.6875 0.296875 5.421875 2 
L 5.421875 11.28125 
Q 10.40625 8.6875 15.234375 7.390625 
Q 20.0625 6.109375 24.8125 6.109375 
Q 31.15625 6.109375 34.5625 8.28125 
Q 37.984375 10.453125 37.984375 14.40625 
Q 37.984375 18.0625 35.515625 20.015625 
Q 33.0625 21.96875 24.703125 23.78125 
L 21.578125 24.515625 
Q 13.234375 26.265625 9.515625 29.90625 
Q 5.8125 33.546875 5.8125 39.890625 
Q 5.8125 47.609375 11.28125 51.796875 
Q 16.75 56 26.8125 56 
Q 31.78125 56 36.171875 55.265625 
Q 40.578125 54.546875 44.28125 53.078125 
z
" id="DejaVuSans-115"/>
     <path d="M 37.109375 75.984375 
L 37.109375 68.5 
L 28.515625 68.5 
Q 23.6875 68.5 21.796875 66.546875 
Q 19.921875 64.59375 19.921875 59.515625 
L 19.921875 54.6875 
L 34.71875 54.6875 
L 34.71875 47.703125 
L 19.921875 47.703125 
L 19.921875 0 
L 10.890625 0 
L 10.890625 47.703125 
L 2.296875 47.703125 
L 2.296875 54.6875 
L 10.890625 54.6875 
L 10.890625 58.5 
Q 10.890625 67.625 15.140625 71.796875 
Q 19.390625 75.984375 28.609375 75.984375 
z
" id="DejaVuSans-102"/>
     <path d="M 19.671875 64.796875 
L 19.671875 8.109375 
L 31.59375 8.109375 
Q 46.6875 8.109375 53.6875 14.9375 
Q 60.6875 21.78125 60.6875 36.53125 
Q 60.6875 51.171875 53.6875 57.984375 
Q 46.6875 64.796875 31.59375 64.796875 
z
M 9.8125 72.90625 
L 30.078125 72.90625 
Q 51.265625 72.90625 61.171875 64.09375 
Q 71.09375 55.28125 71.09375 36.53125 
Q 71.09375 17.671875 61.125 8.828125 
Q 51.171875 0 30.078125 0 
L 9.8125 0 
z
" id="DejaVuSans-68"/>
    </defs>
    <g transform="translate(15.5565 5.98521)scale(0.2016 -0.2016)">
     <use xlink:href="#DejaVuSans-80"/>
     <use x="60.255859" xlink:href="#DejaVuSans-101"/>
     <use x="121.779297" xlink:href="#DejaVuSans-114"/>
     <use x="162.876953" xlink:href="#DejaVuSans-109"/>
     <use x="260.289062" xlink:href="#DejaVuSans-117"/>
     <use x="323.667969" xlink:href="#DejaVuSans-116"/>
     <use x="362.876953" xlink:href="#DejaVuSans-97"/>
     <use x="424.15625" xlink:href="#DejaVuSans-116"/>
     <use x="463.365234" xlink:href="#DejaVuSans-105"/>
     <use x="491.148438" xlink:href="#DejaVuSans-111"/>
     <use x="552.330078" xlink:href="#DejaVuSans-110"/>
     <use x="615.708984" xlink:href="#DejaVuSans-32"/>
     <use x="647.496094" xlink:href="#DejaVuSans-84"/>
     <use x="708.314453" xlink:href="#DejaVuSans-101"/>
     <use x="769.837891" xlink:href="#DejaVuSans-115"/>
     <use x="821.9375" xlink:href="#DejaVuSans-116"/>
     <use x="861.146484" xlink:href="#DejaVuSans-32"/>
     <use x="892.933594" xlink:href="#DejaVuSans-102"/>
     <use x="928.138672" xlink:href="#DejaVuSans-111"/>
     <use x="989.320312" xlink:href="#DejaVuSans-114"/>
     <use x="1030.433594" xlink:href="#DejaVuSans-32"/>
     <use x="1062.220703" xlink:href="#DejaVuSans-86"/>
     <use x="1130.519531" xlink:href="#DejaVuSans-97"/>
     <use x="1191.798828" xlink:href="#DejaVuSans-114"/>
     <use x="1232.912109" xlink:href="#DejaVuSans-105"/>
     <use x="1260.695312" xlink:href="#DejaVuSans-97"/>
     <use x="1321.974609" xlink:href="#DejaVuSans-110"/>
     <use x="1385.353516" xlink:href="#DejaVuSans-99"/>
     <use x="1440.333984" xlink:href="#DejaVuSans-101"/>
     <use x="1501.857422" xlink:href="#DejaVuSans-32"/>
     <use x="1533.644531" xlink:href="#DejaVuSans-68"/>
     <use x="1610.646484" xlink:href="#DejaVuSans-105"/>
     <use x="1638.429688" xlink:href="#DejaVuSans-102"/>
     <use x="1673.634766" xlink:href="#DejaVuSans-102"/>
     <use x="1708.839844" xlink:href="#DejaVuSans-101"/>
     <use x="1770.363281" xlink:href="#DejaVuSans-114"/>
     <use x="1811.445312" xlink:href="#DejaVuSans-101"/>
     <use x="1872.96875" xlink:href="#DejaVuSans-110"/>
     <use x="1936.347656" xlink:href="#DejaVuSans-99"/>
     <use x="1991.328125" xlink:href="#DejaVuSans-101"/>
    </g>
    <!--  -->
    <g transform="translate(222.48 28.56)scale(0.2016 -0.2016)"/>
   </g>
  </g>
 </g>
 <defs>
  <clipPath id="p8875f8b47a">
   <rect height="233.28" width="375.84" x="34.56" y="34.56"/>
  </clipPath>
 </defs>
</svg>
